<?xml version="1.0" encoding="utf-8" standalone="no"?>
<!DOCTYPE svg PUBLIC "-//W3C//DTD SVG 1.1//EN"
  "http://www.w3.org/Graphics/SVG/1.1/DTD/svg11.dtd">
<svg xmlns:xlink="http://www.w3.org/1999/xlink" width="504pt" height="396pt" viewBox="0 0 504 396" xmlns="http://www.w3.org/2000/svg" version="1.1">
 <metadata>
  <rdf:RDF xmlns:dc="http://purl.org/dc/elements/1.1/" xmlns:cc="http://creativecommons.org/ns#" xmlns:rdf="http://www.w3.org/1999/02/22-rdf-syntax-ns#">
   <cc:Work>
    <dc:type rdf:resource="http://purl.org/dc/dcmitype/StillImage"/>
    <dc:date>2024-05-15T17:16:01.519665</dc:date>
    <dc:format>image/svg+xml</dc:format>
    <dc:creator>
     <cc:Agent>
      <dc:title>Matplotlib v3.8.2, https://matplotlib.org/</dc:title>
     </cc:Agent>
    </dc:creator>
   </cc:Work>
  </rdf:RDF>
 </metadata>
 <defs>
  <style type="text/css">*{stroke-linejoin: round; stroke-linecap: butt}</style>
 </defs>
 <g id="figure_1">
  <g id="patch_1">
   <path d="M 0 396 
L 504 396 
L 504 0 
L 0 0 
z
" style="fill: #ffffff"/>
  </g>
  <g id="axes_1">
   <g id="patch_2">
    <path d="M 90.56 341.08 
L 488.88 341.08 
L 488.88 20.52 
L 90.56 20.52 
z
" style="fill: #ffffff"/>
   </g>
   <g id="matplotlib.axis_1">
    <g id="xtick_1">
     <g id="line2d_1">
      <defs>
       <path id="m0d00b241ef" d="M 0 0 
L 0 3.5 
" style="stroke: #000000; stroke-width: 0.8"/>
      </defs>
      <g>
       <use xlink:href="#m0d00b241ef" x="105.312593" y="341.08" style="stroke: #000000; stroke-width: 0.8"/>
      </g>
     </g>
     <g id="text_1">
      <!-- 0 -->
      <g transform="translate(100.858843 358.717813) scale(0.14 -0.14)">
       <defs>
        <path id="DejaVuSans-30" d="M 2034 4250 
Q 1547 4250 1301 3770 
Q 1056 3291 1056 2328 
Q 1056 1369 1301 889 
Q 1547 409 2034 409 
Q 2525 409 2770 889 
Q 3016 1369 3016 2328 
Q 3016 3291 2770 3770 
Q 2525 4250 2034 4250 
z
M 2034 4750 
Q 2819 4750 3233 4129 
Q 3647 3509 3647 2328 
Q 3647 1150 3233 529 
Q 2819 -91 2034 -91 
Q 1250 -91 836 529 
Q 422 1150 422 2328 
Q 422 3509 836 4129 
Q 1250 4750 2034 4750 
z
" transform="scale(0.015625)"/>
       </defs>
       <use xlink:href="#DejaVuSans-30"/>
      </g>
     </g>
    </g>
    <g id="xtick_2">
     <g id="line2d_2">
      <g>
       <use xlink:href="#m0d00b241ef" x="179.075556" y="341.08" style="stroke: #000000; stroke-width: 0.8"/>
      </g>
     </g>
     <g id="text_2">
      <!-- 1 -->
      <g transform="translate(174.621806 358.717813) scale(0.14 -0.14)">
       <defs>
        <path id="DejaVuSans-31" d="M 794 531 
L 1825 531 
L 1825 4091 
L 703 3866 
L 703 4441 
L 1819 4666 
L 2450 4666 
L 2450 531 
L 3481 531 
L 3481 0 
L 794 0 
L 794 531 
z
" transform="scale(0.015625)"/>
       </defs>
       <use xlink:href="#DejaVuSans-31"/>
      </g>
     </g>
    </g>
    <g id="xtick_3">
     <g id="line2d_3">
      <g>
       <use xlink:href="#m0d00b241ef" x="252.838519" y="341.08" style="stroke: #000000; stroke-width: 0.8"/>
      </g>
     </g>
     <g id="text_3">
      <!-- 2 -->
      <g transform="translate(248.384769 358.717813) scale(0.14 -0.14)">
       <defs>
        <path id="DejaVuSans-32" d="M 1228 531 
L 3431 531 
L 3431 0 
L 469 0 
L 469 531 
Q 828 903 1448 1529 
Q 2069 2156 2228 2338 
Q 2531 2678 2651 2914 
Q 2772 3150 2772 3378 
Q 2772 3750 2511 3984 
Q 2250 4219 1831 4219 
Q 1534 4219 1204 4116 
Q 875 4013 500 3803 
L 500 4441 
Q 881 4594 1212 4672 
Q 1544 4750 1819 4750 
Q 2544 4750 2975 4387 
Q 3406 4025 3406 3419 
Q 3406 3131 3298 2873 
Q 3191 2616 2906 2266 
Q 2828 2175 2409 1742 
Q 1991 1309 1228 531 
z
" transform="scale(0.015625)"/>
       </defs>
       <use xlink:href="#DejaVuSans-32"/>
      </g>
     </g>
    </g>
    <g id="xtick_4">
     <g id="line2d_4">
      <g>
       <use xlink:href="#m0d00b241ef" x="326.601481" y="341.08" style="stroke: #000000; stroke-width: 0.8"/>
      </g>
     </g>
     <g id="text_4">
      <!-- 3 -->
      <g transform="translate(322.147731 358.717813) scale(0.14 -0.14)">
       <defs>
        <path id="DejaVuSans-33" d="M 2597 2516 
Q 3050 2419 3304 2112 
Q 3559 1806 3559 1356 
Q 3559 666 3084 287 
Q 2609 -91 1734 -91 
Q 1441 -91 1130 -33 
Q 819 25 488 141 
L 488 750 
Q 750 597 1062 519 
Q 1375 441 1716 441 
Q 2309 441 2620 675 
Q 2931 909 2931 1356 
Q 2931 1769 2642 2001 
Q 2353 2234 1838 2234 
L 1294 2234 
L 1294 2753 
L 1863 2753 
Q 2328 2753 2575 2939 
Q 2822 3125 2822 3475 
Q 2822 3834 2567 4026 
Q 2313 4219 1838 4219 
Q 1578 4219 1281 4162 
Q 984 4106 628 3988 
L 628 4550 
Q 988 4650 1302 4700 
Q 1616 4750 1894 4750 
Q 2613 4750 3031 4423 
Q 3450 4097 3450 3541 
Q 3450 3153 3228 2886 
Q 3006 2619 2597 2516 
z
" transform="scale(0.015625)"/>
       </defs>
       <use xlink:href="#DejaVuSans-33"/>
      </g>
     </g>
    </g>
    <g id="xtick_5">
     <g id="line2d_5">
      <g>
       <use xlink:href="#m0d00b241ef" x="400.364444" y="341.08" style="stroke: #000000; stroke-width: 0.8"/>
      </g>
     </g>
     <g id="text_5">
      <!-- 4 -->
      <g transform="translate(395.910694 358.717813) scale(0.14 -0.14)">
       <defs>
        <path id="DejaVuSans-34" d="M 2419 4116 
L 825 1625 
L 2419 1625 
L 2419 4116 
z
M 2253 4666 
L 3047 4666 
L 3047 1625 
L 3713 1625 
L 3713 1100 
L 3047 1100 
L 3047 0 
L 2419 0 
L 2419 1100 
L 313 1100 
L 313 1709 
L 2253 4666 
z
" transform="scale(0.015625)"/>
       </defs>
       <use xlink:href="#DejaVuSans-34"/>
      </g>
     </g>
    </g>
    <g id="xtick_6">
     <g id="line2d_6">
      <g>
       <use xlink:href="#m0d00b241ef" x="474.127407" y="341.08" style="stroke: #000000; stroke-width: 0.8"/>
      </g>
     </g>
     <g id="text_6">
      <!-- 5 -->
      <g transform="translate(469.673657 358.717813) scale(0.14 -0.14)">
       <defs>
        <path id="DejaVuSans-35" d="M 691 4666 
L 3169 4666 
L 3169 4134 
L 1269 4134 
L 1269 2991 
Q 1406 3038 1543 3061 
Q 1681 3084 1819 3084 
Q 2600 3084 3056 2656 
Q 3513 2228 3513 1497 
Q 3513 744 3044 326 
Q 2575 -91 1722 -91 
Q 1428 -91 1123 -41 
Q 819 9 494 109 
L 494 744 
Q 775 591 1075 516 
Q 1375 441 1709 441 
Q 2250 441 2565 725 
Q 2881 1009 2881 1497 
Q 2881 1984 2565 2268 
Q 2250 2553 1709 2553 
Q 1456 2553 1204 2497 
Q 953 2441 691 2322 
L 691 4666 
z
" transform="scale(0.015625)"/>
       </defs>
       <use xlink:href="#DejaVuSans-35"/>
      </g>
     </g>
    </g>
    <g id="text_7">
     <!-- $\Delta t$ [ns] -->
     <g transform="translate(266.41 376.267188) scale(0.14 -0.14)">
      <defs>
       <path id="DejaVuSans-394" d="M 2188 4044 
L 906 525 
L 3472 525 
L 2188 4044 
z
M 50 0 
L 1831 4666 
L 2547 4666 
L 4325 0 
L 50 0 
z
" transform="scale(0.015625)"/>
       <path id="DejaVuSans-Oblique-74" d="M 2706 3500 
L 2619 3053 
L 1472 3053 
L 1100 1153 
Q 1081 1047 1072 975 
Q 1063 903 1063 863 
Q 1063 663 1183 572 
Q 1303 481 1569 481 
L 2150 481 
L 2053 0 
L 1503 0 
Q 991 0 739 200 
Q 488 400 488 806 
Q 488 878 497 964 
Q 506 1050 525 1153 
L 897 3053 
L 409 3053 
L 500 3500 
L 978 3500 
L 1172 4494 
L 1747 4494 
L 1556 3500 
L 2706 3500 
z
" transform="scale(0.015625)"/>
       <path id="DejaVuSans-20" transform="scale(0.015625)"/>
       <path id="DejaVuSans-5b" d="M 550 4863 
L 1875 4863 
L 1875 4416 
L 1125 4416 
L 1125 -397 
L 1875 -397 
L 1875 -844 
L 550 -844 
L 550 4863 
z
" transform="scale(0.015625)"/>
       <path id="DejaVuSans-6e" d="M 3513 2113 
L 3513 0 
L 2938 0 
L 2938 2094 
Q 2938 2591 2744 2837 
Q 2550 3084 2163 3084 
Q 1697 3084 1428 2787 
Q 1159 2491 1159 1978 
L 1159 0 
L 581 0 
L 581 3500 
L 1159 3500 
L 1159 2956 
Q 1366 3272 1645 3428 
Q 1925 3584 2291 3584 
Q 2894 3584 3203 3211 
Q 3513 2838 3513 2113 
z
" transform="scale(0.015625)"/>
       <path id="DejaVuSans-73" d="M 2834 3397 
L 2834 2853 
Q 2591 2978 2328 3040 
Q 2066 3103 1784 3103 
Q 1356 3103 1142 2972 
Q 928 2841 928 2578 
Q 928 2378 1081 2264 
Q 1234 2150 1697 2047 
L 1894 2003 
Q 2506 1872 2764 1633 
Q 3022 1394 3022 966 
Q 3022 478 2636 193 
Q 2250 -91 1575 -91 
Q 1294 -91 989 -36 
Q 684 19 347 128 
L 347 722 
Q 666 556 975 473 
Q 1284 391 1588 391 
Q 1994 391 2212 530 
Q 2431 669 2431 922 
Q 2431 1156 2273 1281 
Q 2116 1406 1581 1522 
L 1381 1569 
Q 847 1681 609 1914 
Q 372 2147 372 2553 
Q 372 3047 722 3315 
Q 1072 3584 1716 3584 
Q 2034 3584 2315 3537 
Q 2597 3491 2834 3397 
z
" transform="scale(0.015625)"/>
       <path id="DejaVuSans-5d" d="M 1947 4863 
L 1947 -844 
L 622 -844 
L 622 -397 
L 1369 -397 
L 1369 4416 
L 622 4416 
L 622 4863 
L 1947 4863 
z
" transform="scale(0.015625)"/>
      </defs>
      <use xlink:href="#DejaVuSans-394" transform="translate(0 0.015625)"/>
      <use xlink:href="#DejaVuSans-Oblique-74" transform="translate(68.408203 0.015625)"/>
      <use xlink:href="#DejaVuSans-20" transform="translate(107.617188 0.015625)"/>
      <use xlink:href="#DejaVuSans-5b" transform="translate(139.404297 0.015625)"/>
      <use xlink:href="#DejaVuSans-6e" transform="translate(178.417969 0.015625)"/>
      <use xlink:href="#DejaVuSans-73" transform="translate(241.796875 0.015625)"/>
      <use xlink:href="#DejaVuSans-5d" transform="translate(293.896484 0.015625)"/>
     </g>
    </g>
   </g>
   <g id="matplotlib.axis_2">
    <g id="ytick_1">
     <g id="line2d_7">
      <defs>
       <path id="mcc095a199a" d="M 0 0 
L -3.5 0 
" style="stroke: #000000; stroke-width: 0.8"/>
      </defs>
      <g>
       <use xlink:href="#mcc095a199a" x="90.56" y="341.08" style="stroke: #000000; stroke-width: 0.8"/>
      </g>
     </g>
     <g id="text_8">
      <!-- 0.0000 -->
      <g transform="translate(34.573125 346.398906) scale(0.14 -0.14)">
       <defs>
        <path id="DejaVuSans-2e" d="M 684 794 
L 1344 794 
L 1344 0 
L 684 0 
L 684 794 
z
" transform="scale(0.015625)"/>
       </defs>
       <use xlink:href="#DejaVuSans-30"/>
       <use xlink:href="#DejaVuSans-2e" x="63.623047"/>
       <use xlink:href="#DejaVuSans-30" x="95.410156"/>
       <use xlink:href="#DejaVuSans-30" x="159.033203"/>
       <use xlink:href="#DejaVuSans-30" x="222.65625"/>
       <use xlink:href="#DejaVuSans-30" x="286.279297"/>
      </g>
     </g>
    </g>
    <g id="ytick_2">
     <g id="line2d_8">
      <g>
       <use xlink:href="#mcc095a199a" x="90.56" y="301.01" style="stroke: #000000; stroke-width: 0.8"/>
      </g>
     </g>
     <g id="text_9">
      <!-- 0.0025 -->
      <g transform="translate(34.573125 306.328906) scale(0.14 -0.14)">
       <use xlink:href="#DejaVuSans-30"/>
       <use xlink:href="#DejaVuSans-2e" x="63.623047"/>
       <use xlink:href="#DejaVuSans-30" x="95.410156"/>
       <use xlink:href="#DejaVuSans-30" x="159.033203"/>
       <use xlink:href="#DejaVuSans-32" x="222.65625"/>
       <use xlink:href="#DejaVuSans-35" x="286.279297"/>
      </g>
     </g>
    </g>
    <g id="ytick_3">
     <g id="line2d_9">
      <g>
       <use xlink:href="#mcc095a199a" x="90.56" y="260.94" style="stroke: #000000; stroke-width: 0.8"/>
      </g>
     </g>
     <g id="text_10">
      <!-- 0.0050 -->
      <g transform="translate(34.573125 266.258906) scale(0.14 -0.14)">
       <use xlink:href="#DejaVuSans-30"/>
       <use xlink:href="#DejaVuSans-2e" x="63.623047"/>
       <use xlink:href="#DejaVuSans-30" x="95.410156"/>
       <use xlink:href="#DejaVuSans-30" x="159.033203"/>
       <use xlink:href="#DejaVuSans-35" x="222.65625"/>
       <use xlink:href="#DejaVuSans-30" x="286.279297"/>
      </g>
     </g>
    </g>
    <g id="ytick_4">
     <g id="line2d_10">
      <g>
       <use xlink:href="#mcc095a199a" x="90.56" y="220.87" style="stroke: #000000; stroke-width: 0.8"/>
      </g>
     </g>
     <g id="text_11">
      <!-- 0.0075 -->
      <g transform="translate(34.573125 226.188906) scale(0.14 -0.14)">
       <defs>
        <path id="DejaVuSans-37" d="M 525 4666 
L 3525 4666 
L 3525 4397 
L 1831 0 
L 1172 0 
L 2766 4134 
L 525 4134 
L 525 4666 
z
" transform="scale(0.015625)"/>
       </defs>
       <use xlink:href="#DejaVuSans-30"/>
       <use xlink:href="#DejaVuSans-2e" x="63.623047"/>
       <use xlink:href="#DejaVuSans-30" x="95.410156"/>
       <use xlink:href="#DejaVuSans-30" x="159.033203"/>
       <use xlink:href="#DejaVuSans-37" x="222.65625"/>
       <use xlink:href="#DejaVuSans-35" x="286.279297"/>
      </g>
     </g>
    </g>
    <g id="ytick_5">
     <g id="line2d_11">
      <g>
       <use xlink:href="#mcc095a199a" x="90.56" y="180.8" style="stroke: #000000; stroke-width: 0.8"/>
      </g>
     </g>
     <g id="text_12">
      <!-- 0.0100 -->
      <g transform="translate(34.573125 186.118906) scale(0.14 -0.14)">
       <use xlink:href="#DejaVuSans-30"/>
       <use xlink:href="#DejaVuSans-2e" x="63.623047"/>
       <use xlink:href="#DejaVuSans-30" x="95.410156"/>
       <use xlink:href="#DejaVuSans-31" x="159.033203"/>
       <use xlink:href="#DejaVuSans-30" x="222.65625"/>
       <use xlink:href="#DejaVuSans-30" x="286.279297"/>
      </g>
     </g>
    </g>
    <g id="ytick_6">
     <g id="line2d_12">
      <g>
       <use xlink:href="#mcc095a199a" x="90.56" y="140.73" style="stroke: #000000; stroke-width: 0.8"/>
      </g>
     </g>
     <g id="text_13">
      <!-- 0.0125 -->
      <g transform="translate(34.573125 146.048906) scale(0.14 -0.14)">
       <use xlink:href="#DejaVuSans-30"/>
       <use xlink:href="#DejaVuSans-2e" x="63.623047"/>
       <use xlink:href="#DejaVuSans-30" x="95.410156"/>
       <use xlink:href="#DejaVuSans-31" x="159.033203"/>
       <use xlink:href="#DejaVuSans-32" x="222.65625"/>
       <use xlink:href="#DejaVuSans-35" x="286.279297"/>
      </g>
     </g>
    </g>
    <g id="ytick_7">
     <g id="line2d_13">
      <g>
       <use xlink:href="#mcc095a199a" x="90.56" y="100.66" style="stroke: #000000; stroke-width: 0.8"/>
      </g>
     </g>
     <g id="text_14">
      <!-- 0.0150 -->
      <g transform="translate(34.573125 105.978906) scale(0.14 -0.14)">
       <use xlink:href="#DejaVuSans-30"/>
       <use xlink:href="#DejaVuSans-2e" x="63.623047"/>
       <use xlink:href="#DejaVuSans-30" x="95.410156"/>
       <use xlink:href="#DejaVuSans-31" x="159.033203"/>
       <use xlink:href="#DejaVuSans-35" x="222.65625"/>
       <use xlink:href="#DejaVuSans-30" x="286.279297"/>
      </g>
     </g>
    </g>
    <g id="ytick_8">
     <g id="line2d_14">
      <g>
       <use xlink:href="#mcc095a199a" x="90.56" y="60.59" style="stroke: #000000; stroke-width: 0.8"/>
      </g>
     </g>
     <g id="text_15">
      <!-- 0.0175 -->
      <g transform="translate(34.573125 65.908906) scale(0.14 -0.14)">
       <use xlink:href="#DejaVuSans-30"/>
       <use xlink:href="#DejaVuSans-2e" x="63.623047"/>
       <use xlink:href="#DejaVuSans-30" x="95.410156"/>
       <use xlink:href="#DejaVuSans-31" x="159.033203"/>
       <use xlink:href="#DejaVuSans-37" x="222.65625"/>
       <use xlink:href="#DejaVuSans-35" x="286.279297"/>
      </g>
     </g>
    </g>
    <g id="ytick_9">
     <g id="line2d_15">
      <g>
       <use xlink:href="#mcc095a199a" x="90.56" y="20.52" style="stroke: #000000; stroke-width: 0.8"/>
      </g>
     </g>
     <g id="text_16">
      <!-- 0.0200 -->
      <g transform="translate(34.573125 25.838906) scale(0.14 -0.14)">
       <use xlink:href="#DejaVuSans-30"/>
       <use xlink:href="#DejaVuSans-2e" x="63.623047"/>
       <use xlink:href="#DejaVuSans-30" x="95.410156"/>
       <use xlink:href="#DejaVuSans-32" x="159.033203"/>
       <use xlink:href="#DejaVuSans-30" x="222.65625"/>
       <use xlink:href="#DejaVuSans-30" x="286.279297"/>
      </g>
     </g>
    </g>
    <g id="text_17">
     <!-- $\sigma_g$ -->
     <g transform="translate(26.233125 188.57) rotate(-90) scale(0.14 -0.14)">
      <defs>
       <path id="DejaVuSans-Oblique-3c3" d="M 2219 3044 
Q 1744 3044 1422 2700 
Q 1081 2341 969 1747 
Q 844 1119 1044 756 
Q 1241 397 1706 397 
Q 2166 397 2503 759 
Q 2844 1122 2966 1747 
Q 3075 2319 2881 2700 
Q 2700 3044 2219 3044 
z
M 2309 3503 
L 4219 3500 
L 4106 2925 
L 3463 2925 
Q 3706 2438 3575 1747 
Q 3406 888 2884 400 
Q 2359 -91 1609 -91 
Q 856 -91 525 400 
Q 194 888 363 1747 
Q 528 2609 1050 3097 
Q 1484 3503 2309 3503 
z
" transform="scale(0.015625)"/>
       <path id="DejaVuSans-Oblique-67" d="M 3816 3500 
L 3219 434 
Q 3047 -456 2561 -893 
Q 2075 -1331 1253 -1331 
Q 950 -1331 690 -1286 
Q 431 -1241 206 -1147 
L 313 -588 
Q 525 -725 762 -790 
Q 1000 -856 1269 -856 
Q 1816 -856 2167 -557 
Q 2519 -259 2631 300 
L 2681 563 
Q 2441 288 2122 144 
Q 1803 0 1434 0 
Q 903 0 598 351 
Q 294 703 294 1319 
Q 294 1803 478 2267 
Q 663 2731 997 3091 
Q 1219 3328 1514 3456 
Q 1809 3584 2131 3584 
Q 2484 3584 2746 3420 
Q 3009 3256 3138 2956 
L 3238 3500 
L 3816 3500 
z
M 2950 2216 
Q 2950 2641 2750 2872 
Q 2550 3103 2181 3103 
Q 1953 3103 1747 3012 
Q 1541 2922 1394 2759 
Q 1156 2491 1023 2127 
Q 891 1763 891 1375 
Q 891 944 1092 712 
Q 1294 481 1672 481 
Q 2219 481 2584 976 
Q 2950 1472 2950 2216 
z
" transform="scale(0.015625)"/>
      </defs>
      <use xlink:href="#DejaVuSans-Oblique-3c3" transform="translate(0 0.265625)"/>
      <use xlink:href="#DejaVuSans-Oblique-67" transform="translate(63.378906 -16.140625) scale(0.7)"/>
     </g>
    </g>
   </g>
   <g id="line2d_16">
    <path clip-path="url(#p5c1e7f9583)" style="fill: none; stroke: #000000; stroke-width: 1.5; stroke-linecap: square"/>
   </g>
   <g id="line2d_17">
    <path clip-path="url(#p5c1e7f9583)" style="fill: none; stroke-dasharray: 5.55,2.4; stroke-dashoffset: 0; stroke: #000000; stroke-width: 1.5"/>
   </g>
   <g id="line2d_18">
    <path d="M 109.000741 230.165733 
L 112.688889 244.670231 
L 116.377037 239.758407 
L 120.065185 230.220778 
L 123.753333 239.717381 
L 127.441481 241.01951 
L 131.12963 236.211485 
L 134.817778 227.630052 
L 138.505926 234.111782 
L 142.194074 240.660465 
L 145.882222 244.447741 
L 149.57037 233.327472 
L 153.258519 244.150547 
L 156.946667 242.313268 
L 160.634815 250.433108 
L 164.322963 252.238206 
L 168.011111 255.006399 
L 171.699259 242.017733 
L 175.387407 247.223059 
L 179.075556 249.493583 
L 182.763704 255.776902 
L 186.451852 253.401613 
L 190.14 262.69871 
L 193.828148 257.234071 
L 197.516296 260.890948 
L 201.204444 271.634221 
L 204.892593 264.40307 
L 208.580741 265.959946 
L 212.268889 262.94152 
L 215.957037 265.562527 
L 219.645185 262.072264 
L 223.333333 274.475725 
L 227.021481 268.808138 
L 230.70963 270.37937 
L 234.397778 276.978204 
L 238.085926 266.046885 
L 241.774074 279.990429 
L 245.462222 276.507374 
L 249.15037 281.444854 
L 252.838519 275.236287 
L 256.526667 286.243837 
L 260.214815 280.583636 
L 263.902963 281.378094 
L 267.591111 280.235058 
L 271.279259 279.621656 
L 274.967407 284.672559 
L 278.655556 283.871541 
L 282.343704 278.988036 
L 286.031852 290.269354 
L 289.72 284.533137 
L 293.408148 290.377651 
L 297.096296 290.041295 
L 300.784444 289.403903 
L 304.472593 286.279915 
L 308.160741 295.411891 
L 311.848889 289.704397 
L 315.537037 293.356 
L 319.225185 288.121459 
L 322.913333 295.681922 
L 326.601481 294.094297 
L 330.28963 292.14028 
L 333.977778 295.40357 
L 337.665926 294.667772 
L 341.354074 295.249626 
L 345.042222 297.68275 
L 348.73037 295.751443 
L 352.418519 293.927754 
L 356.106667 299.038661 
L 359.794815 302.215286 
L 363.482963 300.262433 
L 367.171111 299.721224 
L 370.859259 293.974826 
L 374.547407 296.667845 
L 378.235556 300.84216 
L 381.923704 296.45889 
L 385.611852 299.900424 
L 389.3 300.522433 
L 392.988148 303.283381 
L 396.676296 300.291348 
L 400.364444 298.800533 
L 404.052593 300.983184 
L 407.740741 300.042366 
L 411.428889 300.299616 
L 415.117037 300.069663 
L 418.805185 303.111694 
L 422.493333 301.417681 
L 426.181481 298.391517 
L 429.86963 300.581454 
L 433.557778 306.45849 
L 437.245926 307.811547 
L 440.934074 304.764725 
L 444.622222 301.892665 
L 448.31037 302.268322 
L 451.998519 307.877667 
L 455.686667 304.916098 
L 459.374815 303.506548 
L 463.062963 301.326681 
L 466.751111 306.021168 
L 470.439259 306.740509 
L 474.127407 304.741945 
" clip-path="url(#p5c1e7f9583)" style="fill: none; stroke: #ff0000; stroke-width: 1.5; stroke-linecap: square"/>
   </g>
   <g id="line2d_19">
    <path d="M 139.550659 -1 
L 142.194074 19.806283 
L 145.882222 42.991844 
L 149.57037 61.865925 
L 153.258519 77.482482 
L 156.946667 90.585463 
L 160.634815 101.715792 
L 164.322963 111.274765 
L 168.011111 119.563882 
L 171.699259 126.815292 
L 175.387407 133.209234 
L 179.075556 138.887835 
L 182.763704 143.963677 
L 186.451852 148.528084 
L 190.14 152.65439 
L 193.828148 156.404305 
L 197.516296 159.826253 
L 201.204444 162.964669 
L 204.892593 165.851639 
L 208.580741 168.517085 
L 212.268889 170.987307 
L 215.957037 173.282787 
L 219.645185 175.423027 
L 223.333333 177.422509 
L 227.021481 179.295262 
L 230.70963 181.052977 
L 234.397778 182.706893 
L 238.085926 184.266953 
L 241.774074 185.740749 
L 245.462222 187.133733 
L 249.15037 188.455356 
L 252.838519 189.709124 
L 256.526667 190.900045 
L 260.214815 192.034994 
L 263.902963 193.115102 
L 267.591111 194.146771 
L 271.279259 195.132399 
L 274.967407 196.075187 
L 278.655556 196.977625 
L 282.343704 197.841534 
L 286.031852 198.671594 
L 289.72 199.468556 
L 293.408148 200.232601 
L 297.096296 200.968839 
L 300.784444 201.676622 
L 304.472593 202.360428 
L 308.160741 203.016966 
L 311.848889 203.652 
L 315.537037 204.263456 
L 319.225185 204.854747 
L 322.913333 205.427169 
L 326.601481 205.979778 
L 330.28963 206.513379 
L 333.977778 207.032742 
L 337.665926 207.534237 
L 341.354074 208.020241 
L 345.042222 208.490902 
L 348.73037 208.948384 
L 352.418519 209.390375 
L 356.106667 209.820999 
L 359.794815 210.239915 
L 363.482963 210.646632 
L 367.171111 211.04282 
L 370.859259 211.425439 
L 374.547407 211.800645 
L 378.235556 212.16522 
L 381.923704 212.51812 
L 385.611852 212.863039 
L 389.3 213.201283 
L 392.988148 213.529153 
L 396.676296 213.84775 
L 400.364444 214.160684 
L 404.052593 214.463956 
L 407.740741 214.76111 
L 411.428889 215.05054 
L 415.117037 215.333161 
L 418.805185 215.609869 
L 422.493333 215.878854 
L 426.181481 216.14362 
L 429.86963 216.402274 
L 433.557778 216.652806 
L 437.245926 216.901473 
L 440.934074 217.143447 
L 444.622222 217.379371 
L 448.31037 217.60988 
L 451.998519 217.835596 
L 455.686667 218.057131 
L 459.374815 218.27509 
L 463.062963 218.487094 
L 466.751111 218.69665 
L 470.439259 218.901312 
L 474.127407 219.101572 
" clip-path="url(#p5c1e7f9583)" style="fill: none; stroke-dasharray: 5.55,2.4; stroke-dashoffset: 0; stroke: #ff0000; stroke-width: 1.5"/>
   </g>
   <g id="line2d_20">
    <path d="M 109.000741 122.337559 
L 112.688889 174.992778 
L 116.377037 201.904928 
L 120.065185 220.574924 
L 123.753333 230.45762 
L 127.441481 251.882175 
L 131.12963 251.377031 
L 134.817778 266.699122 
L 138.505926 266.308404 
L 142.194074 271.368642 
L 145.882222 273.420183 
L 149.57037 281.096595 
L 153.258519 280.591922 
L 156.946667 280.859646 
L 160.634815 278.914846 
L 164.322963 286.386042 
L 168.011111 286.967159 
L 171.699259 297.389098 
L 175.387407 296.502444 
L 179.075556 295.321835 
L 182.763704 295.124753 
L 186.451852 293.816943 
L 190.14 295.608677 
L 193.828148 301.04391 
L 197.516296 294.78297 
L 201.204444 299.045466 
L 204.892593 297.495255 
L 208.580741 302.641068 
L 212.268889 301.847134 
L 215.957037 305.179774 
L 219.645185 303.553936 
L 223.333333 306.17992 
L 227.021481 305.962915 
L 230.70963 305.325189 
L 234.397778 305.779057 
L 238.085926 311.727438 
L 241.774074 305.803136 
L 245.462222 307.306742 
L 249.15037 308.114274 
L 252.838519 308.45998 
L 256.526667 308.814406 
L 260.214815 307.610334 
L 263.902963 310.170513 
L 267.591111 309.91548 
L 271.279259 311.335506 
L 274.967407 311.744312 
L 278.655556 313.12605 
L 282.343704 315.587726 
L 286.031852 311.812597 
L 289.72 309.41862 
L 293.408148 313.749192 
L 297.096296 313.969645 
L 300.784444 315.499602 
L 304.472593 313.56404 
L 308.160741 312.269122 
L 311.848889 316.072958 
L 315.537037 317.099087 
L 319.225185 314.640467 
L 322.913333 314.234724 
L 326.601481 319.814992 
L 330.28963 318.733894 
L 333.977778 315.799956 
L 337.665926 316.027755 
L 341.354074 319.072647 
L 345.042222 318.169656 
L 348.73037 315.327849 
L 352.418519 317.086039 
L 356.106667 317.247336 
L 359.794815 321.012568 
L 363.482963 319.128633 
L 367.171111 318.51837 
L 370.859259 318.25185 
L 374.547407 316.88975 
L 378.235556 319.350301 
L 381.923704 318.529425 
L 385.611852 319.052292 
L 389.3 320.464267 
L 392.988148 323.019866 
L 396.676296 319.07683 
L 400.364444 321.133527 
L 404.052593 320.593602 
L 407.740741 320.729122 
L 411.428889 323.567418 
L 415.117037 322.649525 
L 418.805185 322.650172 
L 422.493333 322.60653 
L 426.181481 319.80668 
L 429.86963 322.0679 
L 433.557778 323.353956 
L 437.245926 322.026413 
L 440.934074 322.008482 
L 444.622222 321.911313 
L 448.31037 322.173777 
L 451.998519 322.610828 
L 455.686667 323.256247 
L 459.374815 322.020072 
L 463.062963 321.179544 
L 466.751111 322.085056 
L 470.439259 322.854896 
L 474.127407 323.581856 
" clip-path="url(#p5c1e7f9583)" style="fill: none; stroke: #0000ff; stroke-width: 1.5; stroke-linecap: square"/>
   </g>
   <g id="line2d_21">
    <path d="M 119.973723 -1 
L 120.065185 1.284573 
L 123.753333 56.783723 
L 127.441481 93.882031 
L 131.12963 120.410967 
L 134.817778 140.299753 
L 138.505926 155.740135 
L 142.194074 168.053884 
L 145.882222 178.085707 
L 149.57037 186.401854 
L 153.258519 193.396867 
L 156.946667 199.352737 
L 160.634815 204.477764 
L 164.322963 208.929021 
L 168.011111 212.826223 
L 171.699259 216.263275 
L 175.387407 219.314271 
L 179.075556 222.038659 
L 182.763704 224.484211 
L 186.451852 226.690422 
L 190.14 228.689372 
L 193.828148 230.508706 
L 197.516296 232.170057 
L 201.204444 233.694156 
L 204.892593 235.095485 
L 208.580741 236.388129 
L 212.268889 237.58472 
L 215.957037 238.694951 
L 219.645185 239.728385 
L 223.333333 240.691907 
L 227.021481 241.592429 
L 230.70963 242.435683 
L 234.397778 243.227339 
L 238.085926 243.972441 
L 241.774074 244.67473 
L 245.462222 245.336737 
L 249.15037 245.963578 
L 252.838519 246.556765 
L 256.526667 247.118814 
L 260.214815 247.653475 
L 263.902963 248.16096 
L 267.591111 248.644831 
L 271.279259 249.106184 
L 274.967407 249.546651 
L 278.655556 249.967453 
L 282.343704 250.369412 
L 286.031852 250.75519 
L 289.72 251.124983 
L 293.408148 251.478642 
L 297.096296 251.81917 
L 300.784444 252.145928 
L 304.472593 252.461557 
L 308.160741 252.763753 
L 311.848889 253.056011 
L 315.537037 253.336824 
L 319.225185 253.608211 
L 322.913333 253.870845 
L 326.601481 254.12397 
L 330.28963 254.36796 
L 333.977778 254.605751 
L 337.665926 254.834879 
L 341.354074 255.056753 
L 345.042222 255.271355 
L 348.73037 255.479973 
L 352.418519 255.681007 
L 356.106667 255.877029 
L 359.794815 256.067727 
L 363.482963 256.252692 
L 367.171111 256.432923 
L 370.859259 256.606362 
L 374.547407 256.776937 
L 378.235556 256.94248 
L 381.923704 257.102237 
L 385.611852 257.258552 
L 389.3 257.412214 
L 392.988148 257.560745 
L 396.676296 257.704802 
L 400.364444 257.846696 
L 404.052593 257.98375 
L 407.740741 258.118237 
L 411.428889 258.249054 
L 415.117037 258.376753 
L 418.805185 258.501879 
L 422.493333 258.623196 
L 426.181481 258.742969 
L 429.86963 258.859914 
L 433.557778 258.972663 
L 437.245926 259.085309 
L 440.934074 259.19463 
L 444.622222 259.301015 
L 448.31037 259.40485 
L 451.998519 259.506515 
L 455.686667 259.606385 
L 459.374815 259.704832 
L 463.062963 259.80025 
L 466.751111 259.894938 
L 470.439259 259.987247 
L 474.127407 260.07748 
" clip-path="url(#p5c1e7f9583)" style="fill: none; stroke-dasharray: 5.55,2.4; stroke-dashoffset: 0; stroke: #0000ff; stroke-width: 1.5"/>
   </g>
   <g id="line2d_22">
    <path d="M 109.000741 167.442832 
L 112.688889 210.70893 
L 116.377037 258.176242 
L 120.065185 264.327619 
L 123.753333 277.413193 
L 127.441481 281.573746 
L 131.12963 290.180434 
L 134.817778 292.655538 
L 138.505926 293.732828 
L 142.194074 295.237868 
L 145.882222 297.785308 
L 149.57037 298.446422 
L 153.258519 300.262102 
L 156.946667 304.030468 
L 160.634815 300.549386 
L 164.322963 307.634102 
L 168.011111 311.110487 
L 171.699259 309.126123 
L 175.387407 314.295208 
L 179.075556 312.111232 
L 182.763704 313.965657 
L 186.451852 313.238282 
L 190.14 314.758534 
L 193.828148 312.055698 
L 197.516296 313.057165 
L 201.204444 316.065297 
L 204.892593 313.712039 
L 208.580741 312.821068 
L 212.268889 317.382923 
L 215.957037 313.426725 
L 219.645185 319.198346 
L 223.333333 322.81669 
L 227.021481 318.287922 
L 230.70963 319.56379 
L 234.397778 319.874793 
L 238.085926 319.945067 
L 241.774074 317.267746 
L 245.462222 319.635046 
L 249.15037 320.975021 
L 252.838519 320.538008 
L 256.526667 323.186026 
L 260.214815 323.231093 
L 263.902963 322.845317 
L 267.591111 323.247289 
L 271.279259 323.209894 
L 274.967407 321.806538 
L 278.655556 323.9977 
L 282.343704 323.949942 
L 286.031852 321.130278 
L 289.72 324.805062 
L 293.408148 324.221636 
L 297.096296 323.996959 
L 300.784444 322.976596 
L 304.472593 324.338125 
L 308.160741 326.439823 
L 311.848889 325.364755 
L 315.537037 325.878484 
L 319.225185 326.023183 
L 322.913333 326.216454 
L 326.601481 325.558102 
L 330.28963 326.332235 
L 333.977778 326.246291 
L 337.665926 327.469434 
L 341.354074 328.064928 
L 345.042222 325.806616 
L 348.73037 328.223279 
L 352.418519 327.980401 
L 356.106667 326.24968 
L 359.794815 327.362243 
L 363.482963 326.826122 
L 367.171111 327.214638 
L 370.859259 328.25306 
L 374.547407 325.767295 
L 378.235556 326.521443 
L 381.923704 326.532294 
L 385.611852 327.963388 
L 389.3 328.344206 
L 392.988148 328.719711 
L 396.676296 328.535033 
L 400.364444 327.96968 
L 404.052593 327.148802 
L 407.740741 328.415643 
L 411.428889 328.802622 
L 415.117037 328.422588 
L 418.805185 329.114079 
L 422.493333 329.279343 
L 426.181481 329.283855 
L 429.86963 329.515801 
L 433.557778 329.178774 
L 437.245926 328.390856 
L 440.934074 327.303973 
L 444.622222 327.758549 
L 448.31037 329.836921 
L 451.998519 329.878204 
L 455.686667 329.495924 
L 459.374815 330.645206 
L 463.062963 328.976035 
L 466.751111 329.938175 
L 470.439259 329.219628 
L 474.127407 328.868479 
" clip-path="url(#p5c1e7f9583)" style="fill: none; stroke: #008000; stroke-width: 1.5; stroke-linecap: square"/>
   </g>
   <g id="line2d_23">
    <path d="M 113.982435 -1 
L 116.377037 65.726132 
L 120.065185 118.265623 
L 123.753333 150.441578 
L 127.441481 172.278805 
L 131.12963 188.111863 
L 134.817778 200.130641 
L 138.505926 209.565839 
L 142.194074 217.165627 
L 145.882222 223.41197 
L 149.57037 228.630687 
L 153.258519 233.050794 
L 156.946667 236.837181 
L 160.634815 240.112751 
L 164.322963 242.970974 
L 168.011111 245.483545 
L 171.699259 247.707215 
L 175.387407 249.68707 
L 179.075556 251.459558 
L 182.763704 253.054113 
L 186.451852 254.495285 
L 190.14 255.803064 
L 193.828148 256.994905 
L 197.516296 258.084341 
L 201.204444 259.084739 
L 204.892593 260.005115 
L 208.580741 260.854516 
L 212.268889 261.641153 
L 215.957037 262.371208 
L 219.645185 263.050952 
L 223.333333 263.684751 
L 227.021481 264.277118 
L 230.70963 264.831769 
L 234.397778 265.352459 
L 238.085926 265.842544 
L 241.774074 266.304436 
L 245.462222 266.739666 
L 249.15037 267.15182 
L 252.838519 267.541728 
L 256.526667 267.911038 
L 260.214815 268.262389 
L 263.902963 268.595697 
L 267.591111 268.91351 
L 271.279259 269.216477 
L 274.967407 269.505685 
L 278.655556 269.781916 
L 282.343704 270.045656 
L 286.031852 270.298843 
L 289.72 270.5415 
L 293.408148 270.773387 
L 297.096296 270.996747 
L 300.784444 271.210974 
L 304.472593 271.418047 
L 308.160741 271.616066 
L 311.848889 271.807696 
L 315.537037 271.991674 
L 319.225185 272.169517 
L 322.913333 272.34169 
L 326.601481 272.507533 
L 330.28963 272.667283 
L 333.977778 272.823202 
L 337.665926 272.973293 
L 341.354074 273.118622 
L 345.042222 273.259127 
L 348.73037 273.395786 
L 352.418519 273.527291 
L 356.106667 273.655641 
L 359.794815 273.780552 
L 363.482963 273.901669 
L 367.171111 274.01975 
L 370.859259 274.133133 
L 374.547407 274.244906 
L 378.235556 274.353321 
L 381.923704 274.457755 
L 385.611852 274.560043 
L 389.3 274.660789 
L 392.988148 274.758004 
L 396.676296 274.85219 
L 400.364444 274.945161 
L 404.052593 275.034772 
L 407.740741 275.122813 
L 411.428889 275.208387 
L 415.117037 275.29192 
L 418.805185 275.373828 
L 422.493333 275.453114 
L 426.181481 275.531566 
L 429.86963 275.608148 
L 433.557778 275.681759 
L 437.245926 275.755645 
L 440.934074 275.827229 
L 444.622222 275.89681 
L 448.31037 275.964683 
L 451.998519 276.031141 
L 455.686667 276.096473 
L 459.374815 276.160966 
L 463.062963 276.223332 
L 466.751111 276.285394 
L 470.439259 276.345829 
L 474.127407 276.40487 
" clip-path="url(#p5c1e7f9583)" style="fill: none; stroke-dasharray: 5.55,2.4; stroke-dashoffset: 0; stroke: #008000; stroke-width: 1.5"/>
   </g>
   <g id="line2d_24">
    <path d="M 109.000741 200.933103 
L 112.688889 237.33939 
L 116.377037 260.760371 
L 120.065185 274.309064 
L 123.753333 278.109216 
L 127.441481 288.310943 
L 131.12963 287.061213 
L 134.817778 295.852362 
L 138.505926 304.438032 
L 142.194074 301.233724 
L 145.882222 303.158909 
L 149.57037 306.056996 
L 153.258519 307.59354 
L 156.946667 309.126419 
L 160.634815 311.132519 
L 164.322963 312.044979 
L 168.011111 313.45273 
L 171.699259 311.590419 
L 175.387407 315.967442 
L 179.075556 312.635328 
L 182.763704 316.35169 
L 186.451852 318.4314 
L 190.14 315.158999 
L 193.828148 319.197526 
L 197.516296 317.607669 
L 201.204444 319.97447 
L 204.892593 320.523075 
L 208.580741 318.698902 
L 212.268889 320.033819 
L 215.957037 321.199627 
L 219.645185 321.107809 
L 223.333333 322.035286 
L 227.021481 323.218659 
L 230.70963 323.338394 
L 234.397778 323.50833 
L 238.085926 324.07876 
L 241.774074 324.201419 
L 245.462222 324.713236 
L 249.15037 322.998927 
L 252.838519 322.368175 
L 256.526667 323.244266 
L 260.214815 324.704437 
L 263.902963 325.956315 
L 267.591111 325.851012 
L 271.279259 325.871213 
L 274.967407 325.135668 
L 278.655556 326.582883 
L 282.343704 327.000442 
L 286.031852 326.105267 
L 289.72 326.879581 
L 293.408148 326.951826 
L 297.096296 327.591649 
L 300.784444 326.966701 
L 304.472593 328.124037 
L 308.160741 328.047457 
L 311.848889 327.86606 
L 315.537037 329.710423 
L 319.225185 327.811939 
L 322.913333 330.079962 
L 326.601481 328.669788 
L 330.28963 327.455571 
L 333.977778 328.462556 
L 337.665926 329.641105 
L 341.354074 329.78857 
L 345.042222 329.885849 
L 348.73037 329.114649 
L 352.418519 329.497642 
L 356.106667 329.826859 
L 359.794815 329.652718 
L 363.482963 330.794453 
L 367.171111 329.647633 
L 370.859259 330.563019 
L 374.547407 329.589519 
L 378.235556 330.248005 
L 381.923704 329.820661 
L 385.611852 330.703754 
L 389.3 330.323556 
L 392.988148 330.383325 
L 396.676296 330.250521 
L 400.364444 330.516777 
L 404.052593 330.907284 
L 407.740741 329.68734 
L 411.428889 331.554695 
L 415.117037 330.781115 
L 418.805185 331.455059 
L 422.493333 330.793686 
L 426.181481 331.316983 
L 429.86963 330.63482 
L 433.557778 332.359781 
L 437.245926 330.495866 
L 440.934074 332.502459 
L 444.622222 331.578833 
L 448.31037 331.863214 
L 451.998519 331.532021 
L 455.686667 331.913419 
L 459.374815 331.777343 
L 463.062963 331.13891 
L 466.751111 331.542787 
L 470.439259 332.557853 
L 474.127407 332.280097 
" clip-path="url(#p5c1e7f9583)" style="fill: none; stroke: #ffa500; stroke-width: 1.5; stroke-linecap: square"/>
   </g>
   <g id="line2d_25">
    <path d="M 111.395014 -1 
L 112.688889 68.716708 
L 116.377037 137.44736 
L 120.065185 173.067999 
L 123.753333 195.146085 
L 127.441481 210.28817 
L 131.12963 221.368427 
L 134.817778 229.847838 
L 138.505926 236.552387 
L 142.194074 241.987206 
L 145.882222 246.479509 
L 149.57037 250.251754 
L 153.258519 253.461212 
L 156.946667 256.221617 
L 160.634815 258.618235 
L 164.322963 260.716261 
L 168.011111 262.565879 
L 171.699259 264.207048 
L 175.387407 265.671642 
L 179.075556 266.985549 
L 182.763704 268.169731 
L 186.451852 269.241773 
L 190.14 270.216008 
L 193.828148 271.105071 
L 197.516296 271.918669 
L 201.204444 272.666636 
L 204.892593 273.35539 
L 208.580741 273.991551 
L 212.268889 274.581182 
L 215.957037 275.128771 
L 219.645185 275.638978 
L 223.333333 276.114949 
L 227.021481 276.560023 
L 230.70963 276.976929 
L 234.397778 277.368479 
L 238.085926 277.737193 
L 241.774074 278.084832 
L 245.462222 278.412447 
L 249.15037 278.722849 
L 252.838519 279.016549 
L 256.526667 279.294765 
L 260.214815 279.559577 
L 263.902963 279.810772 
L 267.591111 280.050383 
L 271.279259 280.278844 
L 274.967407 280.496975 
L 278.655556 280.705344 
L 282.343704 280.904278 
L 286.031852 281.095342 
L 289.72 281.278484 
L 293.408148 281.453439 
L 297.096296 281.622046 
L 300.784444 281.783738 
L 304.472593 281.940144 
L 308.160741 282.089606 
L 311.848889 282.234342 
L 315.537037 282.373241 
L 319.225185 282.507554 
L 322.913333 282.637642 
L 326.601481 282.762914 
L 330.28963 282.88354 
L 333.977778 283.001417 
L 337.665926 283.11482 
L 341.354074 283.224633 
L 345.042222 283.33078 
L 348.73037 283.434072 
L 352.418519 283.533377 
L 356.106667 283.630376 
L 359.794815 283.724813 
L 363.482963 283.816367 
L 367.171111 283.90567 
L 370.859259 283.99129 
L 374.547407 284.075845 
L 378.235556 284.157834 
L 381.923704 284.236711 
L 385.611852 284.314029 
L 389.3 284.390296 
L 392.988148 284.463802 
L 396.676296 284.534964 
L 400.364444 284.605324 
L 404.052593 284.673041 
L 407.740741 284.739634 
L 411.428889 284.80433 
L 415.117037 284.867484 
L 418.805185 284.929445 
L 422.493333 284.989353 
L 426.181481 285.048732 
L 429.86963 285.106688 
L 433.557778 285.162274 
L 437.245926 285.21826 
L 440.934074 285.272436 
L 444.622222 285.325054 
L 448.31037 285.37636 
L 451.998519 285.4266 
L 455.686667 285.476017 
L 459.374815 285.524852 
L 463.062963 285.571997 
L 466.751111 285.619011 
L 470.439259 285.664757 
L 474.127407 285.709429 
" clip-path="url(#p5c1e7f9583)" style="fill: none; stroke-dasharray: 5.55,2.4; stroke-dashoffset: 0; stroke: #ffa500; stroke-width: 1.5"/>
   </g>
   <g id="patch_3">
    <path d="M 90.56 341.08 
L 90.56 20.52 
" style="fill: none; stroke: #000000; stroke-width: 0.8; stroke-linejoin: miter; stroke-linecap: square"/>
   </g>
   <g id="patch_4">
    <path d="M 488.88 341.08 
L 488.88 20.52 
" style="fill: none; stroke: #000000; stroke-width: 0.8; stroke-linejoin: miter; stroke-linecap: square"/>
   </g>
   <g id="patch_5">
    <path d="M 90.56 341.08 
L 488.88 341.08 
" style="fill: none; stroke: #000000; stroke-width: 0.8; stroke-linejoin: miter; stroke-linecap: square"/>
   </g>
   <g id="patch_6">
    <path d="M 90.56 20.52 
L 488.88 20.52 
" style="fill: none; stroke: #000000; stroke-width: 0.8; stroke-linejoin: miter; stroke-linecap: square"/>
   </g>
   <g id="legend_1">
    <g id="patch_7">
     <path d="M 321.48375 72.81875 
L 479.08 72.81875 
Q 481.88 72.81875 481.88 70.01875 
L 481.88 30.32 
Q 481.88 27.52 479.08 27.52 
L 321.48375 27.52 
Q 318.68375 27.52 318.68375 30.32 
L 318.68375 70.01875 
Q 318.68375 72.81875 321.48375 72.81875 
z
" style="fill: #ffffff; opacity: 0.8; stroke: #cccccc; stroke-linejoin: miter"/>
    </g>
    <g id="line2d_26">
     <path d="M 324.28375 38.857813 
L 338.28375 38.857813 
L 352.28375 38.857813 
" style="fill: none; stroke: #000000; stroke-width: 1.5; stroke-linecap: square"/>
    </g>
    <g id="text_18">
     <!-- Simulation -->
     <g transform="translate(363.48375 43.757812) scale(0.14 -0.14)">
      <defs>
       <path id="DejaVuSans-53" d="M 3425 4513 
L 3425 3897 
Q 3066 4069 2747 4153 
Q 2428 4238 2131 4238 
Q 1616 4238 1336 4038 
Q 1056 3838 1056 3469 
Q 1056 3159 1242 3001 
Q 1428 2844 1947 2747 
L 2328 2669 
Q 3034 2534 3370 2195 
Q 3706 1856 3706 1288 
Q 3706 609 3251 259 
Q 2797 -91 1919 -91 
Q 1588 -91 1214 -16 
Q 841 59 441 206 
L 441 856 
Q 825 641 1194 531 
Q 1563 422 1919 422 
Q 2459 422 2753 634 
Q 3047 847 3047 1241 
Q 3047 1584 2836 1778 
Q 2625 1972 2144 2069 
L 1759 2144 
Q 1053 2284 737 2584 
Q 422 2884 422 3419 
Q 422 4038 858 4394 
Q 1294 4750 2059 4750 
Q 2388 4750 2728 4690 
Q 3069 4631 3425 4513 
z
" transform="scale(0.015625)"/>
       <path id="DejaVuSans-69" d="M 603 3500 
L 1178 3500 
L 1178 0 
L 603 0 
L 603 3500 
z
M 603 4863 
L 1178 4863 
L 1178 4134 
L 603 4134 
L 603 4863 
z
" transform="scale(0.015625)"/>
       <path id="DejaVuSans-6d" d="M 3328 2828 
Q 3544 3216 3844 3400 
Q 4144 3584 4550 3584 
Q 5097 3584 5394 3201 
Q 5691 2819 5691 2113 
L 5691 0 
L 5113 0 
L 5113 2094 
Q 5113 2597 4934 2840 
Q 4756 3084 4391 3084 
Q 3944 3084 3684 2787 
Q 3425 2491 3425 1978 
L 3425 0 
L 2847 0 
L 2847 2094 
Q 2847 2600 2669 2842 
Q 2491 3084 2119 3084 
Q 1678 3084 1418 2786 
Q 1159 2488 1159 1978 
L 1159 0 
L 581 0 
L 581 3500 
L 1159 3500 
L 1159 2956 
Q 1356 3278 1631 3431 
Q 1906 3584 2284 3584 
Q 2666 3584 2933 3390 
Q 3200 3197 3328 2828 
z
" transform="scale(0.015625)"/>
       <path id="DejaVuSans-75" d="M 544 1381 
L 544 3500 
L 1119 3500 
L 1119 1403 
Q 1119 906 1312 657 
Q 1506 409 1894 409 
Q 2359 409 2629 706 
Q 2900 1003 2900 1516 
L 2900 3500 
L 3475 3500 
L 3475 0 
L 2900 0 
L 2900 538 
Q 2691 219 2414 64 
Q 2138 -91 1772 -91 
Q 1169 -91 856 284 
Q 544 659 544 1381 
z
M 1991 3584 
L 1991 3584 
z
" transform="scale(0.015625)"/>
       <path id="DejaVuSans-6c" d="M 603 4863 
L 1178 4863 
L 1178 0 
L 603 0 
L 603 4863 
z
" transform="scale(0.015625)"/>
       <path id="DejaVuSans-61" d="M 2194 1759 
Q 1497 1759 1228 1600 
Q 959 1441 959 1056 
Q 959 750 1161 570 
Q 1363 391 1709 391 
Q 2188 391 2477 730 
Q 2766 1069 2766 1631 
L 2766 1759 
L 2194 1759 
z
M 3341 1997 
L 3341 0 
L 2766 0 
L 2766 531 
Q 2569 213 2275 61 
Q 1981 -91 1556 -91 
Q 1019 -91 701 211 
Q 384 513 384 1019 
Q 384 1609 779 1909 
Q 1175 2209 1959 2209 
L 2766 2209 
L 2766 2266 
Q 2766 2663 2505 2880 
Q 2244 3097 1772 3097 
Q 1472 3097 1187 3025 
Q 903 2953 641 2809 
L 641 3341 
Q 956 3463 1253 3523 
Q 1550 3584 1831 3584 
Q 2591 3584 2966 3190 
Q 3341 2797 3341 1997 
z
" transform="scale(0.015625)"/>
       <path id="DejaVuSans-74" d="M 1172 4494 
L 1172 3500 
L 2356 3500 
L 2356 3053 
L 1172 3053 
L 1172 1153 
Q 1172 725 1289 603 
Q 1406 481 1766 481 
L 2356 481 
L 2356 0 
L 1766 0 
Q 1100 0 847 248 
Q 594 497 594 1153 
L 594 3053 
L 172 3053 
L 172 3500 
L 594 3500 
L 594 4494 
L 1172 4494 
z
" transform="scale(0.015625)"/>
       <path id="DejaVuSans-6f" d="M 1959 3097 
Q 1497 3097 1228 2736 
Q 959 2375 959 1747 
Q 959 1119 1226 758 
Q 1494 397 1959 397 
Q 2419 397 2687 759 
Q 2956 1122 2956 1747 
Q 2956 2369 2687 2733 
Q 2419 3097 1959 3097 
z
M 1959 3584 
Q 2709 3584 3137 3096 
Q 3566 2609 3566 1747 
Q 3566 888 3137 398 
Q 2709 -91 1959 -91 
Q 1206 -91 779 398 
Q 353 888 353 1747 
Q 353 2609 779 3096 
Q 1206 3584 1959 3584 
z
" transform="scale(0.015625)"/>
      </defs>
      <use xlink:href="#DejaVuSans-53"/>
      <use xlink:href="#DejaVuSans-69" x="63.476562"/>
      <use xlink:href="#DejaVuSans-6d" x="91.259766"/>
      <use xlink:href="#DejaVuSans-75" x="188.671875"/>
      <use xlink:href="#DejaVuSans-6c" x="252.050781"/>
      <use xlink:href="#DejaVuSans-61" x="279.833984"/>
      <use xlink:href="#DejaVuSans-74" x="341.113281"/>
      <use xlink:href="#DejaVuSans-69" x="380.322266"/>
      <use xlink:href="#DejaVuSans-6f" x="408.105469"/>
      <use xlink:href="#DejaVuSans-6e" x="469.287109"/>
     </g>
    </g>
    <g id="line2d_27">
     <path d="M 324.28375 59.407187 
L 338.28375 59.407187 
L 352.28375 59.407187 
" style="fill: none; stroke-dasharray: 5.55,2.4; stroke-dashoffset: 0; stroke: #000000; stroke-width: 1.5"/>
    </g>
    <g id="text_19">
     <!-- Analytical result -->
     <g transform="translate(363.48375 64.307187) scale(0.14 -0.14)">
      <defs>
       <path id="DejaVuSans-41" d="M 2188 4044 
L 1331 1722 
L 3047 1722 
L 2188 4044 
z
M 1831 4666 
L 2547 4666 
L 4325 0 
L 3669 0 
L 3244 1197 
L 1141 1197 
L 716 0 
L 50 0 
L 1831 4666 
z
" transform="scale(0.015625)"/>
       <path id="DejaVuSans-79" d="M 2059 -325 
Q 1816 -950 1584 -1140 
Q 1353 -1331 966 -1331 
L 506 -1331 
L 506 -850 
L 844 -850 
Q 1081 -850 1212 -737 
Q 1344 -625 1503 -206 
L 1606 56 
L 191 3500 
L 800 3500 
L 1894 763 
L 2988 3500 
L 3597 3500 
L 2059 -325 
z
" transform="scale(0.015625)"/>
       <path id="DejaVuSans-63" d="M 3122 3366 
L 3122 2828 
Q 2878 2963 2633 3030 
Q 2388 3097 2138 3097 
Q 1578 3097 1268 2742 
Q 959 2388 959 1747 
Q 959 1106 1268 751 
Q 1578 397 2138 397 
Q 2388 397 2633 464 
Q 2878 531 3122 666 
L 3122 134 
Q 2881 22 2623 -34 
Q 2366 -91 2075 -91 
Q 1284 -91 818 406 
Q 353 903 353 1747 
Q 353 2603 823 3093 
Q 1294 3584 2113 3584 
Q 2378 3584 2631 3529 
Q 2884 3475 3122 3366 
z
" transform="scale(0.015625)"/>
       <path id="DejaVuSans-72" d="M 2631 2963 
Q 2534 3019 2420 3045 
Q 2306 3072 2169 3072 
Q 1681 3072 1420 2755 
Q 1159 2438 1159 1844 
L 1159 0 
L 581 0 
L 581 3500 
L 1159 3500 
L 1159 2956 
Q 1341 3275 1631 3429 
Q 1922 3584 2338 3584 
Q 2397 3584 2469 3576 
Q 2541 3569 2628 3553 
L 2631 2963 
z
" transform="scale(0.015625)"/>
       <path id="DejaVuSans-65" d="M 3597 1894 
L 3597 1613 
L 953 1613 
Q 991 1019 1311 708 
Q 1631 397 2203 397 
Q 2534 397 2845 478 
Q 3156 559 3463 722 
L 3463 178 
Q 3153 47 2828 -22 
Q 2503 -91 2169 -91 
Q 1331 -91 842 396 
Q 353 884 353 1716 
Q 353 2575 817 3079 
Q 1281 3584 2069 3584 
Q 2775 3584 3186 3129 
Q 3597 2675 3597 1894 
z
M 3022 2063 
Q 3016 2534 2758 2815 
Q 2500 3097 2075 3097 
Q 1594 3097 1305 2825 
Q 1016 2553 972 2059 
L 3022 2063 
z
" transform="scale(0.015625)"/>
      </defs>
      <use xlink:href="#DejaVuSans-41"/>
      <use xlink:href="#DejaVuSans-6e" x="68.408203"/>
      <use xlink:href="#DejaVuSans-61" x="131.787109"/>
      <use xlink:href="#DejaVuSans-6c" x="193.066406"/>
      <use xlink:href="#DejaVuSans-79" x="220.849609"/>
      <use xlink:href="#DejaVuSans-74" x="280.029297"/>
      <use xlink:href="#DejaVuSans-69" x="319.238281"/>
      <use xlink:href="#DejaVuSans-63" x="347.021484"/>
      <use xlink:href="#DejaVuSans-61" x="402.001953"/>
      <use xlink:href="#DejaVuSans-6c" x="463.28125"/>
      <use xlink:href="#DejaVuSans-20" x="491.064453"/>
      <use xlink:href="#DejaVuSans-72" x="522.851562"/>
      <use xlink:href="#DejaVuSans-65" x="561.714844"/>
      <use xlink:href="#DejaVuSans-73" x="623.238281"/>
      <use xlink:href="#DejaVuSans-75" x="675.337891"/>
      <use xlink:href="#DejaVuSans-6c" x="738.716797"/>
      <use xlink:href="#DejaVuSans-74" x="766.5"/>
     </g>
    </g>
   </g>
  </g>
 </g>
 <defs>
  <clipPath id="p5c1e7f9583">
   <rect x="90.56" y="20.52" width="398.32" height="320.56"/>
  </clipPath>
 </defs>
</svg>
