<?xml version="1.0" encoding="utf-8" standalone="no"?>
<!DOCTYPE svg PUBLIC "-//W3C//DTD SVG 1.1//EN"
  "http://www.w3.org/Graphics/SVG/1.1/DTD/svg11.dtd">
<svg xmlns:xlink="http://www.w3.org/1999/xlink" width="504pt" height="396pt" viewBox="0 0 504 396" xmlns="http://www.w3.org/2000/svg" version="1.1">
 <metadata>
  <rdf:RDF xmlns:dc="http://purl.org/dc/elements/1.1/" xmlns:cc="http://creativecommons.org/ns#" xmlns:rdf="http://www.w3.org/1999/02/22-rdf-syntax-ns#">
   <cc:Work>
    <dc:type rdf:resource="http://purl.org/dc/dcmitype/StillImage"/>
    <dc:date>2024-05-15T17:16:02.254838</dc:date>
    <dc:format>image/svg+xml</dc:format>
    <dc:creator>
     <cc:Agent>
      <dc:title>Matplotlib v3.8.2, https://matplotlib.org/</dc:title>
     </cc:Agent>
    </dc:creator>
   </cc:Work>
  </rdf:RDF>
 </metadata>
 <defs>
  <style type="text/css">*{stroke-linejoin: round; stroke-linecap: butt}</style>
 </defs>
 <g id="figure_1">
  <g id="patch_1">
   <path d="M 0 396 
L 504 396 
L 504 0 
L 0 0 
z
" style="fill: #ffffff"/>
  </g>
  <g id="axes_1">
   <g id="patch_2">
    <path d="M 62.12 341.08 
L 488.88 341.08 
L 488.88 20.52 
L 62.12 20.52 
z
" style="fill: #ffffff"/>
   </g>
   <g id="matplotlib.axis_1">
    <g id="xtick_1">
     <g id="line2d_1">
      <defs>
       <path id="mcf6fa774b5" d="M 0 0 
L 0 3.5 
" style="stroke: #000000; stroke-width: 0.8"/>
      </defs>
      <g>
       <use xlink:href="#mcf6fa774b5" x="77.925926" y="341.08" style="stroke: #000000; stroke-width: 0.8"/>
      </g>
     </g>
     <g id="text_1">
      <!-- 0 -->
      <g transform="translate(73.472176 358.717813) scale(0.14 -0.14)">
       <defs>
        <path id="DejaVuSans-30" d="M 2034 4250 
Q 1547 4250 1301 3770 
Q 1056 3291 1056 2328 
Q 1056 1369 1301 889 
Q 1547 409 2034 409 
Q 2525 409 2770 889 
Q 3016 1369 3016 2328 
Q 3016 3291 2770 3770 
Q 2525 4250 2034 4250 
z
M 2034 4750 
Q 2819 4750 3233 4129 
Q 3647 3509 3647 2328 
Q 3647 1150 3233 529 
Q 2819 -91 2034 -91 
Q 1250 -91 836 529 
Q 422 1150 422 2328 
Q 422 3509 836 4129 
Q 1250 4750 2034 4750 
z
" transform="scale(0.015625)"/>
       </defs>
       <use xlink:href="#DejaVuSans-30"/>
      </g>
     </g>
    </g>
    <g id="xtick_2">
     <g id="line2d_2">
      <g>
       <use xlink:href="#mcf6fa774b5" x="156.955556" y="341.08" style="stroke: #000000; stroke-width: 0.8"/>
      </g>
     </g>
     <g id="text_2">
      <!-- 1 -->
      <g transform="translate(152.501806 358.717813) scale(0.14 -0.14)">
       <defs>
        <path id="DejaVuSans-31" d="M 794 531 
L 1825 531 
L 1825 4091 
L 703 3866 
L 703 4441 
L 1819 4666 
L 2450 4666 
L 2450 531 
L 3481 531 
L 3481 0 
L 794 0 
L 794 531 
z
" transform="scale(0.015625)"/>
       </defs>
       <use xlink:href="#DejaVuSans-31"/>
      </g>
     </g>
    </g>
    <g id="xtick_3">
     <g id="line2d_3">
      <g>
       <use xlink:href="#mcf6fa774b5" x="235.985185" y="341.08" style="stroke: #000000; stroke-width: 0.8"/>
      </g>
     </g>
     <g id="text_3">
      <!-- 2 -->
      <g transform="translate(231.531435 358.717813) scale(0.14 -0.14)">
       <defs>
        <path id="DejaVuSans-32" d="M 1228 531 
L 3431 531 
L 3431 0 
L 469 0 
L 469 531 
Q 828 903 1448 1529 
Q 2069 2156 2228 2338 
Q 2531 2678 2651 2914 
Q 2772 3150 2772 3378 
Q 2772 3750 2511 3984 
Q 2250 4219 1831 4219 
Q 1534 4219 1204 4116 
Q 875 4013 500 3803 
L 500 4441 
Q 881 4594 1212 4672 
Q 1544 4750 1819 4750 
Q 2544 4750 2975 4387 
Q 3406 4025 3406 3419 
Q 3406 3131 3298 2873 
Q 3191 2616 2906 2266 
Q 2828 2175 2409 1742 
Q 1991 1309 1228 531 
z
" transform="scale(0.015625)"/>
       </defs>
       <use xlink:href="#DejaVuSans-32"/>
      </g>
     </g>
    </g>
    <g id="xtick_4">
     <g id="line2d_4">
      <g>
       <use xlink:href="#mcf6fa774b5" x="315.014815" y="341.08" style="stroke: #000000; stroke-width: 0.8"/>
      </g>
     </g>
     <g id="text_4">
      <!-- 3 -->
      <g transform="translate(310.561065 358.717813) scale(0.14 -0.14)">
       <defs>
        <path id="DejaVuSans-33" d="M 2597 2516 
Q 3050 2419 3304 2112 
Q 3559 1806 3559 1356 
Q 3559 666 3084 287 
Q 2609 -91 1734 -91 
Q 1441 -91 1130 -33 
Q 819 25 488 141 
L 488 750 
Q 750 597 1062 519 
Q 1375 441 1716 441 
Q 2309 441 2620 675 
Q 2931 909 2931 1356 
Q 2931 1769 2642 2001 
Q 2353 2234 1838 2234 
L 1294 2234 
L 1294 2753 
L 1863 2753 
Q 2328 2753 2575 2939 
Q 2822 3125 2822 3475 
Q 2822 3834 2567 4026 
Q 2313 4219 1838 4219 
Q 1578 4219 1281 4162 
Q 984 4106 628 3988 
L 628 4550 
Q 988 4650 1302 4700 
Q 1616 4750 1894 4750 
Q 2613 4750 3031 4423 
Q 3450 4097 3450 3541 
Q 3450 3153 3228 2886 
Q 3006 2619 2597 2516 
z
" transform="scale(0.015625)"/>
       </defs>
       <use xlink:href="#DejaVuSans-33"/>
      </g>
     </g>
    </g>
    <g id="xtick_5">
     <g id="line2d_5">
      <g>
       <use xlink:href="#mcf6fa774b5" x="394.044444" y="341.08" style="stroke: #000000; stroke-width: 0.8"/>
      </g>
     </g>
     <g id="text_5">
      <!-- 4 -->
      <g transform="translate(389.590694 358.717813) scale(0.14 -0.14)">
       <defs>
        <path id="DejaVuSans-34" d="M 2419 4116 
L 825 1625 
L 2419 1625 
L 2419 4116 
z
M 2253 4666 
L 3047 4666 
L 3047 1625 
L 3713 1625 
L 3713 1100 
L 3047 1100 
L 3047 0 
L 2419 0 
L 2419 1100 
L 313 1100 
L 313 1709 
L 2253 4666 
z
" transform="scale(0.015625)"/>
       </defs>
       <use xlink:href="#DejaVuSans-34"/>
      </g>
     </g>
    </g>
    <g id="xtick_6">
     <g id="line2d_6">
      <g>
       <use xlink:href="#mcf6fa774b5" x="473.074074" y="341.08" style="stroke: #000000; stroke-width: 0.8"/>
      </g>
     </g>
     <g id="text_6">
      <!-- 5 -->
      <g transform="translate(468.620324 358.717813) scale(0.14 -0.14)">
       <defs>
        <path id="DejaVuSans-35" d="M 691 4666 
L 3169 4666 
L 3169 4134 
L 1269 4134 
L 1269 2991 
Q 1406 3038 1543 3061 
Q 1681 3084 1819 3084 
Q 2600 3084 3056 2656 
Q 3513 2228 3513 1497 
Q 3513 744 3044 326 
Q 2575 -91 1722 -91 
Q 1428 -91 1123 -41 
Q 819 9 494 109 
L 494 744 
Q 775 591 1075 516 
Q 1375 441 1709 441 
Q 2250 441 2565 725 
Q 2881 1009 2881 1497 
Q 2881 1984 2565 2268 
Q 2250 2553 1709 2553 
Q 1456 2553 1204 2497 
Q 953 2441 691 2322 
L 691 4666 
z
" transform="scale(0.015625)"/>
       </defs>
       <use xlink:href="#DejaVuSans-35"/>
      </g>
     </g>
    </g>
    <g id="text_7">
     <!-- $\Delta t$ [ns] -->
     <g transform="translate(252.19 376.267188) scale(0.14 -0.14)">
      <defs>
       <path id="DejaVuSans-394" d="M 2188 4044 
L 906 525 
L 3472 525 
L 2188 4044 
z
M 50 0 
L 1831 4666 
L 2547 4666 
L 4325 0 
L 50 0 
z
" transform="scale(0.015625)"/>
       <path id="DejaVuSans-Oblique-74" d="M 2706 3500 
L 2619 3053 
L 1472 3053 
L 1100 1153 
Q 1081 1047 1072 975 
Q 1063 903 1063 863 
Q 1063 663 1183 572 
Q 1303 481 1569 481 
L 2150 481 
L 2053 0 
L 1503 0 
Q 991 0 739 200 
Q 488 400 488 806 
Q 488 878 497 964 
Q 506 1050 525 1153 
L 897 3053 
L 409 3053 
L 500 3500 
L 978 3500 
L 1172 4494 
L 1747 4494 
L 1556 3500 
L 2706 3500 
z
" transform="scale(0.015625)"/>
       <path id="DejaVuSans-20" transform="scale(0.015625)"/>
       <path id="DejaVuSans-5b" d="M 550 4863 
L 1875 4863 
L 1875 4416 
L 1125 4416 
L 1125 -397 
L 1875 -397 
L 1875 -844 
L 550 -844 
L 550 4863 
z
" transform="scale(0.015625)"/>
       <path id="DejaVuSans-6e" d="M 3513 2113 
L 3513 0 
L 2938 0 
L 2938 2094 
Q 2938 2591 2744 2837 
Q 2550 3084 2163 3084 
Q 1697 3084 1428 2787 
Q 1159 2491 1159 1978 
L 1159 0 
L 581 0 
L 581 3500 
L 1159 3500 
L 1159 2956 
Q 1366 3272 1645 3428 
Q 1925 3584 2291 3584 
Q 2894 3584 3203 3211 
Q 3513 2838 3513 2113 
z
" transform="scale(0.015625)"/>
       <path id="DejaVuSans-73" d="M 2834 3397 
L 2834 2853 
Q 2591 2978 2328 3040 
Q 2066 3103 1784 3103 
Q 1356 3103 1142 2972 
Q 928 2841 928 2578 
Q 928 2378 1081 2264 
Q 1234 2150 1697 2047 
L 1894 2003 
Q 2506 1872 2764 1633 
Q 3022 1394 3022 966 
Q 3022 478 2636 193 
Q 2250 -91 1575 -91 
Q 1294 -91 989 -36 
Q 684 19 347 128 
L 347 722 
Q 666 556 975 473 
Q 1284 391 1588 391 
Q 1994 391 2212 530 
Q 2431 669 2431 922 
Q 2431 1156 2273 1281 
Q 2116 1406 1581 1522 
L 1381 1569 
Q 847 1681 609 1914 
Q 372 2147 372 2553 
Q 372 3047 722 3315 
Q 1072 3584 1716 3584 
Q 2034 3584 2315 3537 
Q 2597 3491 2834 3397 
z
" transform="scale(0.015625)"/>
       <path id="DejaVuSans-5d" d="M 1947 4863 
L 1947 -844 
L 622 -844 
L 622 -397 
L 1369 -397 
L 1369 4416 
L 622 4416 
L 622 4863 
L 1947 4863 
z
" transform="scale(0.015625)"/>
      </defs>
      <use xlink:href="#DejaVuSans-394" transform="translate(0 0.015625)"/>
      <use xlink:href="#DejaVuSans-Oblique-74" transform="translate(68.408203 0.015625)"/>
      <use xlink:href="#DejaVuSans-20" transform="translate(107.617188 0.015625)"/>
      <use xlink:href="#DejaVuSans-5b" transform="translate(139.404297 0.015625)"/>
      <use xlink:href="#DejaVuSans-6e" transform="translate(178.417969 0.015625)"/>
      <use xlink:href="#DejaVuSans-73" transform="translate(241.796875 0.015625)"/>
      <use xlink:href="#DejaVuSans-5d" transform="translate(293.896484 0.015625)"/>
     </g>
    </g>
   </g>
   <g id="matplotlib.axis_2">
    <g id="ytick_1">
     <g id="line2d_7">
      <defs>
       <path id="m633f3b2970" d="M 0 0 
L -3.5 0 
" style="stroke: #000000; stroke-width: 0.8"/>
      </defs>
      <g>
       <use xlink:href="#m633f3b2970" x="62.12" y="341.08" style="stroke: #000000; stroke-width: 0.8"/>
      </g>
     </g>
     <g id="text_8">
      <!-- 0.0 -->
      <g transform="translate(32.855625 346.398906) scale(0.14 -0.14)">
       <defs>
        <path id="DejaVuSans-2e" d="M 684 794 
L 1344 794 
L 1344 0 
L 684 0 
L 684 794 
z
" transform="scale(0.015625)"/>
       </defs>
       <use xlink:href="#DejaVuSans-30"/>
       <use xlink:href="#DejaVuSans-2e" x="63.623047"/>
       <use xlink:href="#DejaVuSans-30" x="95.410156"/>
      </g>
     </g>
    </g>
    <g id="ytick_2">
     <g id="line2d_8">
      <g>
       <use xlink:href="#m633f3b2970" x="62.12" y="276.968" style="stroke: #000000; stroke-width: 0.8"/>
      </g>
     </g>
     <g id="text_9">
      <!-- 0.1 -->
      <g transform="translate(32.855625 282.286906) scale(0.14 -0.14)">
       <use xlink:href="#DejaVuSans-30"/>
       <use xlink:href="#DejaVuSans-2e" x="63.623047"/>
       <use xlink:href="#DejaVuSans-31" x="95.410156"/>
      </g>
     </g>
    </g>
    <g id="ytick_3">
     <g id="line2d_9">
      <g>
       <use xlink:href="#m633f3b2970" x="62.12" y="212.856" style="stroke: #000000; stroke-width: 0.8"/>
      </g>
     </g>
     <g id="text_10">
      <!-- 0.2 -->
      <g transform="translate(32.855625 218.174906) scale(0.14 -0.14)">
       <use xlink:href="#DejaVuSans-30"/>
       <use xlink:href="#DejaVuSans-2e" x="63.623047"/>
       <use xlink:href="#DejaVuSans-32" x="95.410156"/>
      </g>
     </g>
    </g>
    <g id="ytick_4">
     <g id="line2d_10">
      <g>
       <use xlink:href="#m633f3b2970" x="62.12" y="148.744" style="stroke: #000000; stroke-width: 0.8"/>
      </g>
     </g>
     <g id="text_11">
      <!-- 0.3 -->
      <g transform="translate(32.855625 154.062906) scale(0.14 -0.14)">
       <use xlink:href="#DejaVuSans-30"/>
       <use xlink:href="#DejaVuSans-2e" x="63.623047"/>
       <use xlink:href="#DejaVuSans-33" x="95.410156"/>
      </g>
     </g>
    </g>
    <g id="ytick_5">
     <g id="line2d_11">
      <g>
       <use xlink:href="#m633f3b2970" x="62.12" y="84.632" style="stroke: #000000; stroke-width: 0.8"/>
      </g>
     </g>
     <g id="text_12">
      <!-- 0.4 -->
      <g transform="translate(32.855625 89.950906) scale(0.14 -0.14)">
       <use xlink:href="#DejaVuSans-30"/>
       <use xlink:href="#DejaVuSans-2e" x="63.623047"/>
       <use xlink:href="#DejaVuSans-34" x="95.410156"/>
      </g>
     </g>
    </g>
    <g id="ytick_6">
     <g id="line2d_12">
      <g>
       <use xlink:href="#m633f3b2970" x="62.12" y="20.52" style="stroke: #000000; stroke-width: 0.8"/>
      </g>
     </g>
     <g id="text_13">
      <!-- 0.5 -->
      <g transform="translate(32.855625 25.838906) scale(0.14 -0.14)">
       <use xlink:href="#DejaVuSans-30"/>
       <use xlink:href="#DejaVuSans-2e" x="63.623047"/>
       <use xlink:href="#DejaVuSans-35" x="95.410156"/>
      </g>
     </g>
    </g>
    <g id="text_14">
     <!-- $\sigma_n$ -->
     <g transform="translate(25.944062 188.57) rotate(-90) scale(0.14 -0.14)">
      <defs>
       <path id="DejaVuSans-Oblique-3c3" d="M 2219 3044 
Q 1744 3044 1422 2700 
Q 1081 2341 969 1747 
Q 844 1119 1044 756 
Q 1241 397 1706 397 
Q 2166 397 2503 759 
Q 2844 1122 2966 1747 
Q 3075 2319 2881 2700 
Q 2700 3044 2219 3044 
z
M 2309 3503 
L 4219 3500 
L 4106 2925 
L 3463 2925 
Q 3706 2438 3575 1747 
Q 3406 888 2884 400 
Q 2359 -91 1609 -91 
Q 856 -91 525 400 
Q 194 888 363 1747 
Q 528 2609 1050 3097 
Q 1484 3503 2309 3503 
z
" transform="scale(0.015625)"/>
       <path id="DejaVuSans-Oblique-6e" d="M 3566 2113 
L 3156 0 
L 2578 0 
L 2988 2091 
Q 3016 2238 3031 2350 
Q 3047 2463 3047 2528 
Q 3047 2791 2881 2937 
Q 2716 3084 2419 3084 
Q 1956 3084 1622 2776 
Q 1288 2469 1184 1941 
L 800 0 
L 225 0 
L 903 3500 
L 1478 3500 
L 1363 2950 
Q 1603 3253 1940 3418 
Q 2278 3584 2650 3584 
Q 3113 3584 3367 3334 
Q 3622 3084 3622 2631 
Q 3622 2519 3608 2391 
Q 3594 2263 3566 2113 
z
" transform="scale(0.015625)"/>
      </defs>
      <use xlink:href="#DejaVuSans-Oblique-3c3" transform="translate(0 0.265625)"/>
      <use xlink:href="#DejaVuSans-Oblique-6e" transform="translate(63.378906 -16.140625) scale(0.7)"/>
     </g>
    </g>
   </g>
   <g id="line2d_13">
    <path clip-path="url(#ped2e0f86cb)" style="fill: none; stroke: #000000; stroke-width: 1.5; stroke-linecap: square"/>
   </g>
   <g id="line2d_14">
    <path clip-path="url(#ped2e0f86cb)" style="fill: none; stroke-dasharray: 5.55,2.4; stroke-dashoffset: 0; stroke: #000000; stroke-width: 1.5"/>
   </g>
   <g id="line2d_15">
    <path d="M 81.877407 336.487018 
L 85.828889 336.976013 
L 89.78037 336.611628 
L 93.731852 336.034771 
L 97.683333 336.338004 
L 101.634815 336.225107 
L 105.586296 335.853876 
L 109.537778 335.286856 
L 113.489259 335.427555 
L 117.440741 335.623056 
L 121.392222 335.678138 
L 125.343704 334.896892 
L 129.295185 335.371997 
L 133.246667 335.107434 
L 137.198148 335.425322 
L 141.14963 335.427191 
L 145.101111 335.441201 
L 149.052593 334.439076 
L 153.004074 334.592581 
L 156.955556 334.613334 
L 160.907037 334.914024 
L 164.858519 334.597428 
L 168.81 335.184554 
L 172.761481 334.586455 
L 176.712963 334.765317 
L 180.664444 335.495656 
L 184.615926 334.790724 
L 188.567407 334.75808 
L 192.518889 334.344927 
L 196.47037 334.436541 
L 200.421852 334.013375 
L 204.373333 335.00037 
L 208.324815 334.335515 
L 212.276296 334.362784 
L 216.227778 334.865535 
L 220.179259 333.704822 
L 224.130741 334.953735 
L 228.082222 334.428517 
L 232.033704 334.876436 
L 235.985185 334.083158 
L 239.936667 335.151166 
L 243.888148 334.444024 
L 247.83963 334.428161 
L 251.791111 334.162274 
L 255.742593 333.97707 
L 259.694074 334.498723 
L 263.645556 334.256902 
L 267.597037 333.577298 
L 271.548519 334.846027 
L 275.5 334.030856 
L 279.451481 334.646385 
L 283.402963 334.562139 
L 287.354444 334.325764 
L 291.305926 333.820505 
L 295.257407 334.967245 
L 299.208889 334.066275 
L 303.16037 334.504898 
L 307.111852 333.681764 
L 311.063333 334.677838 
L 315.014815 334.359928 
L 318.966296 333.948507 
L 322.917778 334.344312 
L 326.869259 334.159413 
L 330.820741 334.143345 
L 334.772222 334.449938 
L 338.723704 334.027917 
L 342.675185 333.682456 
L 346.626667 334.372882 
L 350.578148 334.855195 
L 354.52963 334.455695 
L 358.481111 334.259542 
L 362.432593 333.247816 
L 366.384074 333.599414 
L 370.335556 334.233032 
L 374.287037 333.426553 
L 378.238519 333.890577 
L 382.19 333.956043 
L 386.141481 334.339782 
L 390.092963 333.745839 
L 394.044444 333.335273 
L 397.995926 333.70285 
L 401.947407 333.430916 
L 405.898889 333.416595 
L 409.85037 333.279594 
L 413.801852 333.791802 
L 417.753333 333.404167 
L 421.704815 332.706038 
L 425.656296 333.041023 
L 429.607778 334.149551 
L 433.559259 334.37662 
L 437.510741 333.669497 
L 441.462222 332.995157 
L 445.413704 333.025502 
L 449.365185 334.091464 
L 453.316667 333.444868 
L 457.268148 333.057753 
L 461.21963 332.516962 
L 465.171111 333.489116 
L 469.122593 333.514422 
L 473.074074 333.044645 
" clip-path="url(#ped2e0f86cb)" style="fill: none; stroke: #ff0000; stroke-width: 1.5; stroke-linecap: square"/>
   </g>
   <g id="line2d_16">
    <path d="M 81.877407 217.406515 
L 85.828889 277.883288 
L 89.78037 297.809819 
L 93.731852 307.59873 
L 97.683333 313.333857 
L 101.634815 317.044077 
L 105.586296 319.599498 
L 109.537778 321.435491 
L 113.489259 322.794056 
L 117.440741 323.820488 
L 121.392222 324.607155 
L 125.343704 325.215584 
L 129.295185 325.688334 
L 133.246667 326.055582 
L 137.198148 326.339422 
L 141.14963 326.556356 
L 145.101111 326.718837 
L 149.052593 326.836533 
L 153.004074 326.916993 
L 156.955556 326.966215 
L 160.907037 326.98896 
L 164.858519 326.989133 
L 168.81 326.969864 
L 172.761481 326.933851 
L 176.712963 326.883141 
L 180.664444 326.819767 
L 184.615926 326.745036 
L 188.567407 326.660276 
L 192.518889 326.566698 
L 196.47037 326.465177 
L 200.421852 326.35663 
L 204.373333 326.241646 
L 208.324815 326.120864 
L 212.276296 325.994795 
L 216.227778 325.863979 
L 220.179259 325.728907 
L 224.130741 325.589896 
L 228.082222 325.447098 
L 232.033704 325.301109 
L 235.985185 325.151967 
L 239.936667 324.99989 
L 243.888148 324.845331 
L 247.83963 324.688155 
L 251.791111 324.528823 
L 255.742593 324.367386 
L 259.694074 324.203998 
L 263.645556 324.038752 
L 267.597037 323.871678 
L 271.548519 323.703164 
L 275.5 323.533145 
L 279.451481 323.361487 
L 283.402963 323.188684 
L 287.354444 323.014523 
L 291.305926 322.839456 
L 295.257407 322.662933 
L 299.208889 322.4856 
L 303.16037 322.307072 
L 307.111852 322.127709 
L 311.063333 321.947598 
L 315.014815 321.766515 
L 318.966296 321.58448 
L 322.917778 321.4021 
L 326.869259 321.218768 
L 330.820741 321.034755 
L 334.772222 320.850009 
L 338.723704 320.664787 
L 342.675185 320.478665 
L 346.626667 320.292218 
L 350.578148 320.105337 
L 354.52963 319.917884 
L 358.481111 319.730075 
L 362.432593 319.541352 
L 366.384074 319.352679 
L 370.335556 319.163477 
L 374.287037 318.973511 
L 378.238519 318.783363 
L 382.19 318.593225 
L 386.141481 318.402407 
L 390.092963 318.211052 
L 394.044444 318.01977 
L 397.995926 317.827799 
L 401.947407 317.635745 
L 405.898889 317.443278 
L 409.85037 317.250531 
L 413.801852 317.057641 
L 417.753333 316.864227 
L 421.704815 316.670934 
L 425.656296 316.477367 
L 429.607778 316.283096 
L 433.559259 316.089334 
L 437.510741 315.895093 
L 441.462222 315.700471 
L 445.413704 315.505566 
L 449.365185 315.31048 
L 453.316667 315.115317 
L 457.268148 314.920184 
L 461.21963 314.724553 
L 465.171111 314.52915 
L 469.122593 314.33343 
L 473.074074 314.137474 
" clip-path="url(#ped2e0f86cb)" style="fill: none; stroke-dasharray: 5.55,2.4; stroke-dashoffset: 0; stroke: #ff0000; stroke-width: 1.5"/>
   </g>
   <g id="line2d_17">
    <path d="M 81.877407 304.925083 
L 85.828889 312.673719 
L 89.78037 316.428017 
L 93.731852 319.269265 
L 97.683333 320.414656 
L 101.634815 323.773601 
L 105.586296 323.121901 
L 109.537778 325.714967 
L 113.489259 325.286433 
L 117.440741 325.884785 
L 121.392222 325.875318 
L 125.343704 327.295788 
L 129.295185 326.772626 
L 133.246667 326.524367 
L 137.198148 325.623734 
L 141.14963 327.04878 
L 145.101111 326.861677 
L 149.052593 329.375555 
L 153.004074 328.827237 
L 156.955556 328.214797 
L 160.907037 327.767132 
L 164.858519 327.10601 
L 168.81 327.368446 
L 172.761481 328.679406 
L 176.712963 326.52285 
L 180.664444 327.518302 
L 184.615926 326.791362 
L 188.567407 328.168223 
L 192.518889 327.533658 
L 196.47037 328.460689 
L 200.421852 327.679682 
L 204.373333 328.337443 
L 208.324815 328.030828 
L 212.276296 327.450469 
L 216.227778 327.360166 
L 220.179259 329.475767 
L 224.130741 326.931589 
L 228.082222 327.202256 
L 232.033704 327.33313 
L 235.985185 327.264092 
L 239.936667 327.187114 
L 243.888148 326.408851 
L 247.83963 327.309258 
L 251.791111 326.99042 
L 255.742593 327.39599 
L 259.694074 327.384575 
L 263.645556 327.842302 
L 267.597037 328.767606 
L 271.548519 326.765121 
L 275.5 325.328258 
L 279.451481 327.27045 
L 283.402963 327.216407 
L 287.354444 327.778012 
L 291.305926 326.581615 
L 295.257407 325.646004 
L 299.208889 327.437127 
L 303.16037 327.861412 
L 307.111852 326.362029 
L 311.063333 325.814425 
L 315.014815 328.922738 
L 318.966296 328.049788 
L 322.917778 326.178587 
L 326.869259 326.134904 
L 330.820741 327.724393 
L 334.772222 327.036293 
L 338.723704 325.151534 
L 342.675185 326.027239 
L 346.626667 325.845727 
L 350.578148 328.150525 
L 354.52963 326.722356 
L 358.481111 326.172177 
L 362.432593 325.854268 
L 366.384074 324.782754 
L 370.335556 326.247778 
L 374.287037 325.564282 
L 378.238519 325.708664 
L 382.19 326.577282 
L 386.141481 328.161057 
L 390.092963 325.237887 
L 394.044444 326.521222 
L 397.995926 326.000756 
L 401.947407 325.933532 
L 405.898889 327.870285 
L 409.85037 327.024005 
L 413.801852 326.854827 
L 417.753333 326.761907 
L 421.704815 324.424188 
L 425.656296 325.919511 
L 429.607778 326.862581 
L 433.559259 325.706663 
L 437.510741 325.490093 
L 441.462222 325.270243 
L 445.413704 325.326455 
L 449.365185 325.592201 
L 453.316667 326.045818 
L 457.268148 324.75666 
L 461.21963 324.024526 
L 465.171111 324.595712 
L 469.122593 325.049521 
L 473.074074 325.607861 
" clip-path="url(#ped2e0f86cb)" style="fill: none; stroke: #0000ff; stroke-width: 1.5; stroke-linecap: square"/>
   </g>
   <g id="line2d_18">
    <path d="M 81.877407 151.365708 
L 85.828889 237.300295 
L 89.78037 265.828686 
L 93.731852 279.968264 
L 97.683333 288.328492 
L 101.634815 293.783066 
L 105.586296 297.566182 
L 109.537778 300.296693 
L 113.489259 302.319624 
L 117.440741 303.84303 
L 121.392222 304.999868 
L 125.343704 305.879334 
L 129.295185 306.543703 
L 133.246667 307.037483 
L 137.198148 307.393683 
L 141.14963 307.637299 
L 145.101111 307.787389 
L 149.052593 307.859022 
L 153.004074 307.864134 
L 156.955556 307.812373 
L 160.907037 307.711499 
L 164.858519 307.56802 
L 168.81 307.387198 
L 172.761481 307.173733 
L 176.712963 306.931126 
L 180.664444 306.663131 
L 184.615926 306.371982 
L 188.567407 306.060138 
L 192.518889 305.729922 
L 196.47037 305.382952 
L 200.421852 305.021047 
L 204.373333 304.6453 
L 208.324815 304.256987 
L 212.276296 303.857117 
L 216.227778 303.446821 
L 220.179259 303.027133 
L 224.130741 302.598696 
L 228.082222 302.161758 
L 232.033704 301.717699 
L 235.985185 301.266518 
L 239.936667 300.808678 
L 243.888148 300.345247 
L 247.83963 299.875824 
L 251.791111 299.401518 
L 255.742593 298.922403 
L 259.694074 298.438833 
L 263.645556 297.951007 
L 267.597037 297.458963 
L 271.548519 296.963657 
L 275.5 296.464896 
L 279.451481 295.962317 
L 283.402963 295.457156 
L 287.354444 294.948848 
L 291.305926 294.43853 
L 295.257407 293.924776 
L 299.208889 293.409227 
L 303.16037 292.89088 
L 307.111852 292.370646 
L 311.063333 291.848735 
L 315.014815 291.324558 
L 318.966296 290.798155 
L 322.917778 290.27108 
L 326.869259 289.741761 
L 330.820741 289.210885 
L 334.772222 288.678305 
L 338.723704 288.144683 
L 342.675185 287.608909 
L 346.626667 287.072467 
L 350.578148 286.535067 
L 354.52963 285.996346 
L 358.481111 285.456854 
L 362.432593 284.915135 
L 366.384074 284.373696 
L 370.335556 283.831016 
L 374.287037 283.28648 
L 378.238519 282.741602 
L 382.19 282.196879 
L 386.141481 281.6505 
L 390.092963 281.102837 
L 394.044444 280.55548 
L 397.995926 280.006427 
L 401.947407 279.457268 
L 405.898889 278.907127 
L 409.85037 278.356352 
L 413.801852 277.805299 
L 417.753333 277.252963 
L 421.704815 276.701038 
L 425.656296 276.148483 
L 429.607778 275.594152 
L 433.559259 275.041253 
L 437.510741 274.487173 
L 441.462222 273.932162 
L 445.413704 273.376479 
L 449.365185 272.820391 
L 453.316667 272.264172 
L 457.268148 271.708104 
L 461.21963 271.150779 
L 465.171111 270.594129 
L 469.122593 270.0367 
L 473.074074 269.478708 
" clip-path="url(#ped2e0f86cb)" style="fill: none; stroke-dasharray: 5.55,2.4; stroke-dashoffset: 0; stroke: #0000ff; stroke-width: 1.5"/>
   </g>
   <g id="line2d_19">
    <path d="M 81.877407 276.576777 
L 85.828889 290.695198 
L 89.78037 307.967013 
L 93.731852 309.381875 
L 97.683333 314.189931 
L 101.634815 315.090533 
L 105.586296 318.212744 
L 109.537778 318.656702 
L 113.489259 318.679814 
L 117.440741 318.593864 
L 121.392222 319.317333 
L 125.343704 319.107096 
L 129.295185 319.418955 
L 133.246667 320.814714 
L 137.198148 318.421882 
L 141.14963 321.96747 
L 145.101111 323.394375 
L 149.052593 321.87262 
L 153.004074 324.521161 
L 156.955556 322.726123 
L 160.907037 323.523839 
L 164.858519 322.651126 
L 168.81 323.200156 
L 172.761481 320.902011 
L 176.712963 321.251334 
L 180.664444 322.994456 
L 184.615926 320.816559 
L 188.567407 319.839814 
L 192.518889 322.754705 
L 196.47037 319.257395 
L 200.421852 323.489909 
L 204.373333 326.106607 
L 208.324815 321.999907 
L 212.276296 322.672617 
L 216.227778 322.631544 
L 220.179259 322.414524 
L 224.130741 319.64401 
L 228.082222 321.41506 
L 232.033704 322.309531 
L 235.985185 321.59354 
L 239.936667 323.769514 
L 243.888148 323.462306 
L 247.83963 322.863455 
L 251.791111 322.92098 
L 255.742593 322.630444 
L 259.694074 320.759358 
L 263.645556 322.853525 
L 267.597037 322.546583 
L 271.548519 319.076358 
L 275.5 322.934507 
L 279.451481 321.889739 
L 283.402963 321.391845 
L 287.354444 319.853005 
L 291.305926 321.234357 
L 295.257407 323.451418 
L 299.208889 321.888142 
L 303.16037 322.245457 
L 307.111852 322.172138 
L 311.063333 322.137712 
L 315.014815 321.03081 
L 318.966296 321.835737 
L 322.917778 321.4325 
L 326.869259 322.819992 
L 330.820741 323.283155 
L 334.772222 320.11194 
L 338.723704 323.185946 
L 342.675185 322.597563 
L 346.626667 319.858629 
L 350.578148 321.294361 
L 354.52963 320.247252 
L 358.481111 320.561753 
L 362.432593 321.909578 
L 366.384074 317.821847 
L 370.335556 318.745577 
L 374.287037 318.55518 
L 378.238519 320.523602 
L 382.19 320.953402 
L 386.141481 321.281213 
L 390.092963 320.842723 
L 394.044444 319.470908 
L 397.995926 318.07156 
L 401.947407 319.852311 
L 405.898889 320.31816 
L 409.85037 319.465212 
L 413.801852 320.457218 
L 417.753333 320.567165 
L 421.704815 320.359048 
L 425.656296 320.44011 
L 429.607778 319.707389 
L 433.559259 318.058906 
L 437.510741 315.813531 
L 441.462222 316.301966 
L 445.413704 320.000346 
L 449.365185 319.923863 
L 453.316667 319.06764 
L 457.268148 321.056797 
L 461.21963 317.64419 
L 465.171111 319.295755 
L 469.122593 317.761172 
L 473.074074 316.743913 
" clip-path="url(#ped2e0f86cb)" style="fill: none; stroke: #008000; stroke-width: 1.5; stroke-linecap: square"/>
   </g>
   <g id="line2d_20">
    <path d="M 81.877407 91.30896 
L 85.828889 197.458709 
L 89.78037 233.044954 
L 93.731852 250.833713 
L 97.683333 261.417297 
L 101.634815 268.345868 
L 105.586296 273.151702 
L 109.537778 276.607356 
L 113.489259 279.14609 
L 117.440741 281.030852 
L 121.392222 282.430733 
L 125.343704 283.459963 
L 129.295185 284.198898 
L 133.246667 284.705298 
L 137.198148 285.022356 
L 141.14963 285.183052 
L 145.101111 285.212659 
L 149.052593 285.131356 
L 153.004074 284.955238 
L 156.955556 284.697423 
L 160.907037 284.368508 
L 164.858519 283.977488 
L 168.81 283.531639 
L 172.761481 283.037598 
L 176.712963 282.500209 
L 180.664444 281.924954 
L 184.615926 281.314863 
L 188.567407 280.673493 
L 192.518889 280.004271 
L 196.47037 279.309501 
L 200.421852 278.59191 
L 204.373333 277.853027 
L 208.324815 277.094751 
L 212.276296 276.318564 
L 216.227778 275.526191 
L 220.179259 274.719226 
L 224.130741 273.89861 
L 228.082222 273.064612 
L 232.033704 272.219499 
L 235.985185 271.363145 
L 239.936667 270.496247 
L 243.888148 269.620573 
L 247.83963 268.73533 
L 251.791111 267.842383 
L 255.742593 266.941792 
L 259.694074 266.034112 
L 263.645556 265.119632 
L 267.597037 264.198366 
L 271.548519 263.271949 
L 275.5 262.339997 
L 279.451481 261.401828 
L 283.402963 260.459585 
L 287.354444 259.512237 
L 291.305926 258.561763 
L 295.257407 257.605614 
L 299.208889 256.646663 
L 303.16037 255.683113 
L 307.111852 254.716553 
L 311.063333 253.747337 
L 315.014815 252.7744 
L 318.966296 251.797793 
L 322.917778 250.820262 
L 326.869259 249.838998 
L 330.820741 248.855205 
L 334.772222 247.868612 
L 338.723704 246.880381 
L 342.675185 245.888525 
L 346.626667 244.895675 
L 350.578148 243.901306 
L 354.52963 242.904761 
L 358.481111 241.907012 
L 362.432593 240.905452 
L 366.384074 239.904546 
L 370.335556 238.901575 
L 374.287037 237.895431 
L 378.238519 236.888813 
L 382.19 235.882599 
L 386.141481 234.873552 
L 390.092963 233.862328 
L 394.044444 232.851765 
L 397.995926 231.838279 
L 401.947407 230.824707 
L 405.898889 229.809481 
L 409.85037 228.793216 
L 413.801852 227.776546 
L 417.753333 226.757669 
L 421.704815 225.739613 
L 425.656296 224.720512 
L 429.607778 223.69831 
L 433.559259 222.678751 
L 437.510741 221.657149 
L 441.462222 220.63395 
L 445.413704 219.609616 
L 449.365185 218.584622 
L 453.316667 217.559457 
L 457.268148 216.534624 
L 461.21963 215.507598 
L 465.171111 214.481841 
L 469.122593 213.454742 
L 473.074074 212.426686 
" clip-path="url(#ped2e0f86cb)" style="fill: none; stroke-dasharray: 5.55,2.4; stroke-dashoffset: 0; stroke: #008000; stroke-width: 1.5"/>
   </g>
   <g id="line2d_21">
    <path d="M 81.877407 247.825408 
L 85.828889 269.996509 
L 89.78037 284.634234 
L 93.731852 292.300646 
L 97.683333 293.91806 
L 101.634815 300.273761 
L 105.586296 297.911788 
L 109.537778 304.002564 
L 113.489259 310.075437 
L 117.440741 306.502518 
L 121.392222 307.288687 
L 125.343704 308.863939 
L 129.295185 309.536587 
L 133.246667 310.210981 
L 137.198148 311.305373 
L 141.14963 311.435588 
L 145.101111 312.271152 
L 149.052593 309.564206 
L 153.004074 313.531604 
L 156.955556 309.239999 
L 160.907037 312.542858 
L 164.858519 314.402209 
L 168.81 309.840816 
L 172.761481 314.028804 
L 176.712963 311.496729 
L 180.664444 313.973283 
L 184.615926 313.960748 
L 188.567407 311.056072 
L 192.518889 312.04035 
L 196.47037 313.32905 
L 200.421852 312.478004 
L 204.373333 313.457208 
L 208.324815 314.420734 
L 212.276296 314.117431 
L 216.227778 313.813117 
L 220.179259 314.263882 
L 224.130741 314.072667 
L 228.082222 314.397319 
L 232.033704 311.206396 
L 235.985185 309.580621 
L 239.936667 310.288045 
L 243.888148 312.592547 
L 247.83963 314.171549 
L 251.791111 313.55167 
L 255.742593 313.103772 
L 259.694074 311.421696 
L 263.645556 313.28487 
L 267.597037 313.930184 
L 271.548519 311.735795 
L 275.5 312.852373 
L 279.451481 312.507145 
L 283.402963 313.515043 
L 287.354444 311.766993 
L 291.305926 313.786801 
L 295.257407 313.279021 
L 299.208889 312.529462 
L 303.16037 316.076644 
L 307.111852 311.304975 
L 311.063333 316.167147 
L 315.014815 312.635883 
L 318.966296 309.476888 
L 322.917778 311.305859 
L 326.869259 313.88167 
L 330.820741 313.901879 
L 334.772222 313.692703 
L 338.723704 311.356975 
L 342.675185 311.975641 
L 346.626667 312.459894 
L 350.578148 311.667618 
L 354.52963 314.334506 
L 358.481111 310.974367 
L 362.432593 313.069036 
L 366.384074 310.138455 
L 370.335556 311.635136 
L 374.287037 310.166987 
L 378.238519 312.134689 
L 382.19 310.676722 
L 386.141481 310.663102 
L 390.092963 309.880496 
L 394.044444 310.324238 
L 397.995926 311.220078 
L 401.947407 307.178468 
L 405.898889 312.407184 
L 409.85037 309.812469 
L 413.801852 311.471802 
L 417.753333 309.254299 
L 421.704815 310.470541 
L 425.656296 307.889347 
L 429.607778 313.199421 
L 433.559259 306.92004 
L 437.510741 313.102899 
L 441.462222 309.803472 
L 445.413704 310.608247 
L 449.365185 309.079336 
L 453.316667 310.045974 
L 457.268148 309.371192 
L 461.21963 306.954962 
L 465.171111 307.809147 
L 469.122593 311.123347 
L 473.074074 309.924617 
" clip-path="url(#ped2e0f86cb)" style="fill: none; stroke: #ffa500; stroke-width: 1.5; stroke-linecap: square"/>
   </g>
   <g id="line2d_22">
    <path d="M 81.877407 33.226566 
L 85.828889 157.063056 
L 89.78037 198.956963 
L 93.731852 220.027592 
L 97.683333 232.601205 
L 101.634815 240.830718 
L 105.586296 246.518125 
L 109.537778 250.576709 
L 113.489259 253.521224 
L 117.440741 255.665643 
L 121.392222 257.212789 
L 125.343704 258.300339 
L 129.295185 259.025643 
L 133.246667 259.458906 
L 137.198148 259.652923 
L 141.14963 259.648222 
L 145.101111 259.475934 
L 149.052593 259.161087 
L 153.004074 258.723724 
L 156.955556 258.180267 
L 160.907037 257.544009 
L 164.858519 256.82633 
L 168.81 256.036424 
L 172.761481 255.182816 
L 176.712963 254.271608 
L 180.664444 253.310018 
L 184.615926 252.301782 
L 188.567407 251.251532 
L 192.518889 250.163807 
L 196.47037 249.041559 
L 200.421852 247.888436 
L 204.373333 246.706363 
L 208.324815 245.497861 
L 212.276296 244.264866 
L 216.227778 243.00972 
L 220.179259 241.734597 
L 224.130741 240.440716 
L 228.082222 239.128319 
L 232.033704 237.800654 
L 235.985185 236.457402 
L 239.936667 235.09949 
L 243.888148 233.729469 
L 247.83963 232.346054 
L 251.791111 230.951962 
L 255.742593 229.547209 
L 259.694074 228.132559 
L 263.645556 226.708385 
L 267.597037 225.274652 
L 271.548519 223.833769 
L 275.5 222.385115 
L 279.451481 220.927615 
L 283.402963 219.464463 
L 287.354444 217.994068 
L 291.305926 216.519385 
L 295.257407 215.036534 
L 299.208889 213.549828 
L 303.16037 212.056525 
L 307.111852 210.559005 
L 311.063333 209.05778 
L 315.014815 207.551221 
L 318.966296 206.039387 
L 322.917778 204.526413 
L 326.869259 203.008035 
L 330.820741 201.486061 
L 334.772222 199.960065 
L 338.723704 198.431796 
L 342.675185 196.898232 
L 346.626667 195.363346 
L 350.578148 193.826334 
L 354.52963 192.286193 
L 358.481111 190.744384 
L 362.432593 189.196949 
L 366.384074 187.650649 
L 370.335556 186.101354 
L 374.287037 184.547376 
L 378.238519 182.992803 
L 382.19 181.438961 
L 386.141481 179.880935 
L 390.092963 178.319711 
L 394.044444 176.759596 
L 397.995926 175.195143 
L 401.947407 173.630653 
L 405.898889 172.063742 
L 409.85037 170.49534 
L 413.801852 168.926408 
L 417.753333 167.354202 
L 421.704815 165.783323 
L 425.656296 164.21093 
L 429.607778 162.633894 
L 433.559259 161.060945 
L 437.510741 159.484957 
L 441.462222 157.906606 
L 445.413704 156.326589 
L 449.365185 154.745628 
L 453.316667 153.164464 
L 457.268148 151.583862 
L 461.21963 149.999975 
L 465.171111 148.418074 
L 469.122593 146.834178 
L 473.074074 145.248876 
" clip-path="url(#ped2e0f86cb)" style="fill: none; stroke-dasharray: 5.55,2.4; stroke-dashoffset: 0; stroke: #ffa500; stroke-width: 1.5"/>
   </g>
   <g id="patch_3">
    <path d="M 62.12 341.08 
L 62.12 20.52 
" style="fill: none; stroke: #000000; stroke-width: 0.8; stroke-linejoin: miter; stroke-linecap: square"/>
   </g>
   <g id="patch_4">
    <path d="M 488.88 341.08 
L 488.88 20.52 
" style="fill: none; stroke: #000000; stroke-width: 0.8; stroke-linejoin: miter; stroke-linecap: square"/>
   </g>
   <g id="patch_5">
    <path d="M 62.12 341.08 
L 488.88 341.08 
" style="fill: none; stroke: #000000; stroke-width: 0.8; stroke-linejoin: miter; stroke-linecap: square"/>
   </g>
   <g id="patch_6">
    <path d="M 62.12 20.52 
L 488.88 20.52 
" style="fill: none; stroke: #000000; stroke-width: 0.8; stroke-linejoin: miter; stroke-linecap: square"/>
   </g>
   <g id="legend_1">
    <g id="patch_7">
     <path d="M 321.48375 72.81875 
L 479.08 72.81875 
Q 481.88 72.81875 481.88 70.01875 
L 481.88 30.32 
Q 481.88 27.52 479.08 27.52 
L 321.48375 27.52 
Q 318.68375 27.52 318.68375 30.32 
L 318.68375 70.01875 
Q 318.68375 72.81875 321.48375 72.81875 
z
" style="fill: #ffffff; opacity: 0.8; stroke: #cccccc; stroke-linejoin: miter"/>
    </g>
    <g id="line2d_23">
     <path d="M 324.28375 38.857813 
L 338.28375 38.857813 
L 352.28375 38.857813 
" style="fill: none; stroke: #000000; stroke-width: 1.5; stroke-linecap: square"/>
    </g>
    <g id="text_15">
     <!-- Simulation -->
     <g transform="translate(363.48375 43.757812) scale(0.14 -0.14)">
      <defs>
       <path id="DejaVuSans-53" d="M 3425 4513 
L 3425 3897 
Q 3066 4069 2747 4153 
Q 2428 4238 2131 4238 
Q 1616 4238 1336 4038 
Q 1056 3838 1056 3469 
Q 1056 3159 1242 3001 
Q 1428 2844 1947 2747 
L 2328 2669 
Q 3034 2534 3370 2195 
Q 3706 1856 3706 1288 
Q 3706 609 3251 259 
Q 2797 -91 1919 -91 
Q 1588 -91 1214 -16 
Q 841 59 441 206 
L 441 856 
Q 825 641 1194 531 
Q 1563 422 1919 422 
Q 2459 422 2753 634 
Q 3047 847 3047 1241 
Q 3047 1584 2836 1778 
Q 2625 1972 2144 2069 
L 1759 2144 
Q 1053 2284 737 2584 
Q 422 2884 422 3419 
Q 422 4038 858 4394 
Q 1294 4750 2059 4750 
Q 2388 4750 2728 4690 
Q 3069 4631 3425 4513 
z
" transform="scale(0.015625)"/>
       <path id="DejaVuSans-69" d="M 603 3500 
L 1178 3500 
L 1178 0 
L 603 0 
L 603 3500 
z
M 603 4863 
L 1178 4863 
L 1178 4134 
L 603 4134 
L 603 4863 
z
" transform="scale(0.015625)"/>
       <path id="DejaVuSans-6d" d="M 3328 2828 
Q 3544 3216 3844 3400 
Q 4144 3584 4550 3584 
Q 5097 3584 5394 3201 
Q 5691 2819 5691 2113 
L 5691 0 
L 5113 0 
L 5113 2094 
Q 5113 2597 4934 2840 
Q 4756 3084 4391 3084 
Q 3944 3084 3684 2787 
Q 3425 2491 3425 1978 
L 3425 0 
L 2847 0 
L 2847 2094 
Q 2847 2600 2669 2842 
Q 2491 3084 2119 3084 
Q 1678 3084 1418 2786 
Q 1159 2488 1159 1978 
L 1159 0 
L 581 0 
L 581 3500 
L 1159 3500 
L 1159 2956 
Q 1356 3278 1631 3431 
Q 1906 3584 2284 3584 
Q 2666 3584 2933 3390 
Q 3200 3197 3328 2828 
z
" transform="scale(0.015625)"/>
       <path id="DejaVuSans-75" d="M 544 1381 
L 544 3500 
L 1119 3500 
L 1119 1403 
Q 1119 906 1312 657 
Q 1506 409 1894 409 
Q 2359 409 2629 706 
Q 2900 1003 2900 1516 
L 2900 3500 
L 3475 3500 
L 3475 0 
L 2900 0 
L 2900 538 
Q 2691 219 2414 64 
Q 2138 -91 1772 -91 
Q 1169 -91 856 284 
Q 544 659 544 1381 
z
M 1991 3584 
L 1991 3584 
z
" transform="scale(0.015625)"/>
       <path id="DejaVuSans-6c" d="M 603 4863 
L 1178 4863 
L 1178 0 
L 603 0 
L 603 4863 
z
" transform="scale(0.015625)"/>
       <path id="DejaVuSans-61" d="M 2194 1759 
Q 1497 1759 1228 1600 
Q 959 1441 959 1056 
Q 959 750 1161 570 
Q 1363 391 1709 391 
Q 2188 391 2477 730 
Q 2766 1069 2766 1631 
L 2766 1759 
L 2194 1759 
z
M 3341 1997 
L 3341 0 
L 2766 0 
L 2766 531 
Q 2569 213 2275 61 
Q 1981 -91 1556 -91 
Q 1019 -91 701 211 
Q 384 513 384 1019 
Q 384 1609 779 1909 
Q 1175 2209 1959 2209 
L 2766 2209 
L 2766 2266 
Q 2766 2663 2505 2880 
Q 2244 3097 1772 3097 
Q 1472 3097 1187 3025 
Q 903 2953 641 2809 
L 641 3341 
Q 956 3463 1253 3523 
Q 1550 3584 1831 3584 
Q 2591 3584 2966 3190 
Q 3341 2797 3341 1997 
z
" transform="scale(0.015625)"/>
       <path id="DejaVuSans-74" d="M 1172 4494 
L 1172 3500 
L 2356 3500 
L 2356 3053 
L 1172 3053 
L 1172 1153 
Q 1172 725 1289 603 
Q 1406 481 1766 481 
L 2356 481 
L 2356 0 
L 1766 0 
Q 1100 0 847 248 
Q 594 497 594 1153 
L 594 3053 
L 172 3053 
L 172 3500 
L 594 3500 
L 594 4494 
L 1172 4494 
z
" transform="scale(0.015625)"/>
       <path id="DejaVuSans-6f" d="M 1959 3097 
Q 1497 3097 1228 2736 
Q 959 2375 959 1747 
Q 959 1119 1226 758 
Q 1494 397 1959 397 
Q 2419 397 2687 759 
Q 2956 1122 2956 1747 
Q 2956 2369 2687 2733 
Q 2419 3097 1959 3097 
z
M 1959 3584 
Q 2709 3584 3137 3096 
Q 3566 2609 3566 1747 
Q 3566 888 3137 398 
Q 2709 -91 1959 -91 
Q 1206 -91 779 398 
Q 353 888 353 1747 
Q 353 2609 779 3096 
Q 1206 3584 1959 3584 
z
" transform="scale(0.015625)"/>
      </defs>
      <use xlink:href="#DejaVuSans-53"/>
      <use xlink:href="#DejaVuSans-69" x="63.476562"/>
      <use xlink:href="#DejaVuSans-6d" x="91.259766"/>
      <use xlink:href="#DejaVuSans-75" x="188.671875"/>
      <use xlink:href="#DejaVuSans-6c" x="252.050781"/>
      <use xlink:href="#DejaVuSans-61" x="279.833984"/>
      <use xlink:href="#DejaVuSans-74" x="341.113281"/>
      <use xlink:href="#DejaVuSans-69" x="380.322266"/>
      <use xlink:href="#DejaVuSans-6f" x="408.105469"/>
      <use xlink:href="#DejaVuSans-6e" x="469.287109"/>
     </g>
    </g>
    <g id="line2d_24">
     <path d="M 324.28375 59.407187 
L 338.28375 59.407187 
L 352.28375 59.407187 
" style="fill: none; stroke-dasharray: 5.55,2.4; stroke-dashoffset: 0; stroke: #000000; stroke-width: 1.5"/>
    </g>
    <g id="text_16">
     <!-- Analytical result -->
     <g transform="translate(363.48375 64.307187) scale(0.14 -0.14)">
      <defs>
       <path id="DejaVuSans-41" d="M 2188 4044 
L 1331 1722 
L 3047 1722 
L 2188 4044 
z
M 1831 4666 
L 2547 4666 
L 4325 0 
L 3669 0 
L 3244 1197 
L 1141 1197 
L 716 0 
L 50 0 
L 1831 4666 
z
" transform="scale(0.015625)"/>
       <path id="DejaVuSans-79" d="M 2059 -325 
Q 1816 -950 1584 -1140 
Q 1353 -1331 966 -1331 
L 506 -1331 
L 506 -850 
L 844 -850 
Q 1081 -850 1212 -737 
Q 1344 -625 1503 -206 
L 1606 56 
L 191 3500 
L 800 3500 
L 1894 763 
L 2988 3500 
L 3597 3500 
L 2059 -325 
z
" transform="scale(0.015625)"/>
       <path id="DejaVuSans-63" d="M 3122 3366 
L 3122 2828 
Q 2878 2963 2633 3030 
Q 2388 3097 2138 3097 
Q 1578 3097 1268 2742 
Q 959 2388 959 1747 
Q 959 1106 1268 751 
Q 1578 397 2138 397 
Q 2388 397 2633 464 
Q 2878 531 3122 666 
L 3122 134 
Q 2881 22 2623 -34 
Q 2366 -91 2075 -91 
Q 1284 -91 818 406 
Q 353 903 353 1747 
Q 353 2603 823 3093 
Q 1294 3584 2113 3584 
Q 2378 3584 2631 3529 
Q 2884 3475 3122 3366 
z
" transform="scale(0.015625)"/>
       <path id="DejaVuSans-72" d="M 2631 2963 
Q 2534 3019 2420 3045 
Q 2306 3072 2169 3072 
Q 1681 3072 1420 2755 
Q 1159 2438 1159 1844 
L 1159 0 
L 581 0 
L 581 3500 
L 1159 3500 
L 1159 2956 
Q 1341 3275 1631 3429 
Q 1922 3584 2338 3584 
Q 2397 3584 2469 3576 
Q 2541 3569 2628 3553 
L 2631 2963 
z
" transform="scale(0.015625)"/>
       <path id="DejaVuSans-65" d="M 3597 1894 
L 3597 1613 
L 953 1613 
Q 991 1019 1311 708 
Q 1631 397 2203 397 
Q 2534 397 2845 478 
Q 3156 559 3463 722 
L 3463 178 
Q 3153 47 2828 -22 
Q 2503 -91 2169 -91 
Q 1331 -91 842 396 
Q 353 884 353 1716 
Q 353 2575 817 3079 
Q 1281 3584 2069 3584 
Q 2775 3584 3186 3129 
Q 3597 2675 3597 1894 
z
M 3022 2063 
Q 3016 2534 2758 2815 
Q 2500 3097 2075 3097 
Q 1594 3097 1305 2825 
Q 1016 2553 972 2059 
L 3022 2063 
z
" transform="scale(0.015625)"/>
      </defs>
      <use xlink:href="#DejaVuSans-41"/>
      <use xlink:href="#DejaVuSans-6e" x="68.408203"/>
      <use xlink:href="#DejaVuSans-61" x="131.787109"/>
      <use xlink:href="#DejaVuSans-6c" x="193.066406"/>
      <use xlink:href="#DejaVuSans-79" x="220.849609"/>
      <use xlink:href="#DejaVuSans-74" x="280.029297"/>
      <use xlink:href="#DejaVuSans-69" x="319.238281"/>
      <use xlink:href="#DejaVuSans-63" x="347.021484"/>
      <use xlink:href="#DejaVuSans-61" x="402.001953"/>
      <use xlink:href="#DejaVuSans-6c" x="463.28125"/>
      <use xlink:href="#DejaVuSans-20" x="491.064453"/>
      <use xlink:href="#DejaVuSans-72" x="522.851562"/>
      <use xlink:href="#DejaVuSans-65" x="561.714844"/>
      <use xlink:href="#DejaVuSans-73" x="623.238281"/>
      <use xlink:href="#DejaVuSans-75" x="675.337891"/>
      <use xlink:href="#DejaVuSans-6c" x="738.716797"/>
      <use xlink:href="#DejaVuSans-74" x="766.5"/>
     </g>
    </g>
   </g>
  </g>
 </g>
 <defs>
  <clipPath id="ped2e0f86cb">
   <rect x="62.12" y="20.52" width="426.76" height="320.56"/>
  </clipPath>
 </defs>
</svg>
