<?xml version="1.0" encoding="utf-8" standalone="no"?>
<!DOCTYPE svg PUBLIC "-//W3C//DTD SVG 1.1//EN"
  "http://www.w3.org/Graphics/SVG/1.1/DTD/svg11.dtd">
<svg xmlns:xlink="http://www.w3.org/1999/xlink" width="720pt" height="144pt" viewBox="0 0 720 144" xmlns="http://www.w3.org/2000/svg" version="1.1">
 <metadata>
  <rdf:RDF xmlns:dc="http://purl.org/dc/elements/1.1/" xmlns:cc="http://creativecommons.org/ns#" xmlns:rdf="http://www.w3.org/1999/02/22-rdf-syntax-ns#">
   <cc:Work>
    <dc:type rdf:resource="http://purl.org/dc/dcmitype/StillImage"/>
    <dc:date>2024-05-13T12:45:49.190666</dc:date>
    <dc:format>image/svg+xml</dc:format>
    <dc:creator>
     <cc:Agent>
      <dc:title>Matplotlib v3.8.2, https://matplotlib.org/</dc:title>
     </cc:Agent>
    </dc:creator>
   </cc:Work>
  </rdf:RDF>
 </metadata>
 <defs>
  <style type="text/css">*{stroke-linejoin: round; stroke-linecap: butt}</style>
 </defs>
 <g id="figure_1">
  <g id="patch_1">
   <path d="M 0 144 
L 720 144 
L 720 0 
L 0 0 
z
" style="fill: #ffffff"/>
  </g>
  <g id="axes_1">
   <g id="patch_2">
    <path d="M 90 128.16 
L 648 128.16 
L 648 17.28 
L 90 17.28 
z
" style="fill: #ffffff"/>
   </g>
   <g id="matplotlib.axis_1">
    <g id="xtick_1">
     <g id="line2d_1">
      <defs>
       <path id="m135ca98f91" d="M 0 0 
L 0 3.5 
" style="stroke: #000000; stroke-width: 0.8"/>
      </defs>
      <g>
       <use xlink:href="#m135ca98f91" x="192.60902" y="128.16" style="stroke: #000000; stroke-width: 0.8"/>
      </g>
     </g>
     <g id="text_1">
      <!-- 5 -->
      <g transform="translate(190.06402 141.23875) scale(0.08 -0.08)">
       <defs>
        <path id="DejaVuSans-35" d="M 691 4666 
L 3169 4666 
L 3169 4134 
L 1269 4134 
L 1269 2991 
Q 1406 3038 1543 3061 
Q 1681 3084 1819 3084 
Q 2600 3084 3056 2656 
Q 3513 2228 3513 1497 
Q 3513 744 3044 326 
Q 2575 -91 1722 -91 
Q 1428 -91 1123 -41 
Q 819 9 494 109 
L 494 744 
Q 775 591 1075 516 
Q 1375 441 1709 441 
Q 2250 441 2565 725 
Q 2881 1009 2881 1497 
Q 2881 1984 2565 2268 
Q 2250 2553 1709 2553 
Q 1456 2553 1204 2497 
Q 953 2441 691 2322 
L 691 4666 
z
" transform="scale(0.015625)"/>
       </defs>
       <use xlink:href="#DejaVuSans-35"/>
      </g>
     </g>
    </g>
    <g id="xtick_2">
     <g id="line2d_2">
      <g>
       <use xlink:href="#m135ca98f91" x="309.863375" y="128.16" style="stroke: #000000; stroke-width: 0.8"/>
      </g>
     </g>
     <g id="text_2">
      <!-- 10 -->
      <g transform="translate(304.773375 141.23875) scale(0.08 -0.08)">
       <defs>
        <path id="DejaVuSans-31" d="M 794 531 
L 1825 531 
L 1825 4091 
L 703 3866 
L 703 4441 
L 1819 4666 
L 2450 4666 
L 2450 531 
L 3481 531 
L 3481 0 
L 794 0 
L 794 531 
z
" transform="scale(0.015625)"/>
        <path id="DejaVuSans-30" d="M 2034 4250 
Q 1547 4250 1301 3770 
Q 1056 3291 1056 2328 
Q 1056 1369 1301 889 
Q 1547 409 2034 409 
Q 2525 409 2770 889 
Q 3016 1369 3016 2328 
Q 3016 3291 2770 3770 
Q 2525 4250 2034 4250 
z
M 2034 4750 
Q 2819 4750 3233 4129 
Q 3647 3509 3647 2328 
Q 3647 1150 3233 529 
Q 2819 -91 2034 -91 
Q 1250 -91 836 529 
Q 422 1150 422 2328 
Q 422 3509 836 4129 
Q 1250 4750 2034 4750 
z
" transform="scale(0.015625)"/>
       </defs>
       <use xlink:href="#DejaVuSans-31"/>
       <use xlink:href="#DejaVuSans-30" x="63.623047"/>
      </g>
     </g>
    </g>
    <g id="xtick_3">
     <g id="line2d_3">
      <g>
       <use xlink:href="#m135ca98f91" x="427.117731" y="128.16" style="stroke: #000000; stroke-width: 0.8"/>
      </g>
     </g>
     <g id="text_3">
      <!-- 15 -->
      <g transform="translate(422.027731 141.23875) scale(0.08 -0.08)">
       <use xlink:href="#DejaVuSans-31"/>
       <use xlink:href="#DejaVuSans-35" x="63.623047"/>
      </g>
     </g>
    </g>
    <g id="xtick_4">
     <g id="line2d_4">
      <g>
       <use xlink:href="#m135ca98f91" x="544.372086" y="128.16" style="stroke: #000000; stroke-width: 0.8"/>
      </g>
     </g>
     <g id="text_4">
      <!-- 20 -->
      <g transform="translate(539.282086 141.23875) scale(0.08 -0.08)">
       <defs>
        <path id="DejaVuSans-32" d="M 1228 531 
L 3431 531 
L 3431 0 
L 469 0 
L 469 531 
Q 828 903 1448 1529 
Q 2069 2156 2228 2338 
Q 2531 2678 2651 2914 
Q 2772 3150 2772 3378 
Q 2772 3750 2511 3984 
Q 2250 4219 1831 4219 
Q 1534 4219 1204 4116 
Q 875 4013 500 3803 
L 500 4441 
Q 881 4594 1212 4672 
Q 1544 4750 1819 4750 
Q 2544 4750 2975 4387 
Q 3406 4025 3406 3419 
Q 3406 3131 3298 2873 
Q 3191 2616 2906 2266 
Q 2828 2175 2409 1742 
Q 1991 1309 1228 531 
z
" transform="scale(0.015625)"/>
       </defs>
       <use xlink:href="#DejaVuSans-32"/>
       <use xlink:href="#DejaVuSans-30" x="63.623047"/>
      </g>
     </g>
    </g>
   </g>
   <g id="matplotlib.axis_2">
    <g id="ytick_1">
     <g id="line2d_5">
      <defs>
       <path id="mcfbddff034" d="M 0 0 
L -3.5 0 
" style="stroke: #000000; stroke-width: 0.8"/>
      </defs>
      <g>
       <use xlink:href="#mcfbddff034" x="90" y="113.04" style="stroke: #000000; stroke-width: 0.8"/>
      </g>
     </g>
     <g id="text_5">
      <!-- −0.04 -->
      <g transform="translate(58.48375 116.079375) scale(0.08 -0.08)">
       <defs>
        <path id="DejaVuSans-2212" d="M 678 2272 
L 4684 2272 
L 4684 1741 
L 678 1741 
L 678 2272 
z
" transform="scale(0.015625)"/>
        <path id="DejaVuSans-2e" d="M 684 794 
L 1344 794 
L 1344 0 
L 684 0 
L 684 794 
z
" transform="scale(0.015625)"/>
        <path id="DejaVuSans-34" d="M 2419 4116 
L 825 1625 
L 2419 1625 
L 2419 4116 
z
M 2253 4666 
L 3047 4666 
L 3047 1625 
L 3713 1625 
L 3713 1100 
L 3047 1100 
L 3047 0 
L 2419 0 
L 2419 1100 
L 313 1100 
L 313 1709 
L 2253 4666 
z
" transform="scale(0.015625)"/>
       </defs>
       <use xlink:href="#DejaVuSans-2212"/>
       <use xlink:href="#DejaVuSans-30" x="83.789062"/>
       <use xlink:href="#DejaVuSans-2e" x="147.412109"/>
       <use xlink:href="#DejaVuSans-30" x="179.199219"/>
       <use xlink:href="#DejaVuSans-34" x="242.822266"/>
      </g>
     </g>
    </g>
    <g id="ytick_2">
     <g id="line2d_6">
      <g>
       <use xlink:href="#mcfbddff034" x="90" y="92.88" style="stroke: #000000; stroke-width: 0.8"/>
      </g>
     </g>
     <g id="text_6">
      <!-- −0.02 -->
      <g transform="translate(58.48375 95.919375) scale(0.08 -0.08)">
       <use xlink:href="#DejaVuSans-2212"/>
       <use xlink:href="#DejaVuSans-30" x="83.789062"/>
       <use xlink:href="#DejaVuSans-2e" x="147.412109"/>
       <use xlink:href="#DejaVuSans-30" x="179.199219"/>
       <use xlink:href="#DejaVuSans-32" x="242.822266"/>
      </g>
     </g>
    </g>
    <g id="ytick_3">
     <g id="line2d_7">
      <g>
       <use xlink:href="#mcfbddff034" x="90" y="72.72" style="stroke: #000000; stroke-width: 0.8"/>
      </g>
     </g>
     <g id="text_7">
      <!-- 0.00 -->
      <g transform="translate(65.1875 75.759375) scale(0.08 -0.08)">
       <use xlink:href="#DejaVuSans-30"/>
       <use xlink:href="#DejaVuSans-2e" x="63.623047"/>
       <use xlink:href="#DejaVuSans-30" x="95.410156"/>
       <use xlink:href="#DejaVuSans-30" x="159.033203"/>
      </g>
     </g>
    </g>
    <g id="ytick_4">
     <g id="line2d_8">
      <g>
       <use xlink:href="#mcfbddff034" x="90" y="52.56" style="stroke: #000000; stroke-width: 0.8"/>
      </g>
     </g>
     <g id="text_8">
      <!-- 0.02 -->
      <g transform="translate(65.1875 55.599375) scale(0.08 -0.08)">
       <use xlink:href="#DejaVuSans-30"/>
       <use xlink:href="#DejaVuSans-2e" x="63.623047"/>
       <use xlink:href="#DejaVuSans-30" x="95.410156"/>
       <use xlink:href="#DejaVuSans-32" x="159.033203"/>
      </g>
     </g>
    </g>
    <g id="ytick_5">
     <g id="line2d_9">
      <g>
       <use xlink:href="#mcfbddff034" x="90" y="32.4" style="stroke: #000000; stroke-width: 0.8"/>
      </g>
     </g>
     <g id="text_9">
      <!-- 0.04 -->
      <g transform="translate(65.1875 35.439375) scale(0.08 -0.08)">
       <use xlink:href="#DejaVuSans-30"/>
       <use xlink:href="#DejaVuSans-2e" x="63.623047"/>
       <use xlink:href="#DejaVuSans-30" x="95.410156"/>
       <use xlink:href="#DejaVuSans-34" x="159.033203"/>
      </g>
     </g>
    </g>
   </g>
   <g id="line2d_10">
    <defs>
     <path id="ma928a153d0" d="M 0 3.25 
C 0.86191 3.25 1.688635 2.907559 2.298097 2.298097 
C 2.907559 1.688635 3.25 0.86191 3.25 0 
C 3.25 -0.86191 2.907559 -1.688635 2.298097 -2.298097 
C 1.688635 -2.907559 0.86191 -3.25 0 -3.25 
C -0.86191 -3.25 -1.688635 -2.907559 -2.298097 -2.298097 
C -2.907559 -1.688635 -3.25 -0.86191 -3.25 0 
C -3.25 0.86191 -2.907559 1.688635 -2.298097 2.298097 
C -1.688635 2.907559 -0.86191 3.25 0 3.25 
z
" style="stroke: #1f77b4"/>
    </defs>
    <g clip-path="url(#pcf907ba34e)">
     <use xlink:href="#ma928a153d0" x="115.363636" y="72.72" style="fill: #1f77b4; stroke: #1f77b4"/>
     <use xlink:href="#ma928a153d0" x="124.65459" y="72.72" style="fill: #1f77b4; stroke: #1f77b4"/>
     <use xlink:href="#ma928a153d0" x="166.869627" y="72.72" style="fill: #1f77b4; stroke: #1f77b4"/>
     <use xlink:href="#ma928a153d0" x="181.580601" y="72.72" style="fill: #1f77b4; stroke: #1f77b4"/>
     <use xlink:href="#ma928a153d0" x="195.609272" y="72.72" style="fill: #1f77b4; stroke: #1f77b4"/>
     <use xlink:href="#ma928a153d0" x="198.463951" y="72.72" style="fill: #1f77b4; stroke: #1f77b4"/>
     <use xlink:href="#ma928a153d0" x="242.331186" y="72.72" style="fill: #1f77b4; stroke: #1f77b4"/>
     <use xlink:href="#ma928a153d0" x="242.404467" y="72.72" style="fill: #1f77b4; stroke: #1f77b4"/>
     <use xlink:href="#ma928a153d0" x="245.824383" y="72.72" style="fill: #1f77b4; stroke: #1f77b4"/>
     <use xlink:href="#ma928a153d0" x="252.514455" y="72.72" style="fill: #1f77b4; stroke: #1f77b4"/>
     <use xlink:href="#ma928a153d0" x="270.23542" y="72.72" style="fill: #1f77b4; stroke: #1f77b4"/>
     <use xlink:href="#ma928a153d0" x="272.817995" y="72.72" style="fill: #1f77b4; stroke: #1f77b4"/>
     <use xlink:href="#ma928a153d0" x="296.124936" y="72.72" style="fill: #1f77b4; stroke: #1f77b4"/>
     <use xlink:href="#ma928a153d0" x="344.180383" y="72.72" style="fill: #1f77b4; stroke: #1f77b4"/>
     <use xlink:href="#ma928a153d0" x="346.278509" y="72.72" style="fill: #1f77b4; stroke: #1f77b4"/>
     <use xlink:href="#ma928a153d0" x="356.944525" y="72.72" style="fill: #1f77b4; stroke: #1f77b4"/>
     <use xlink:href="#ma928a153d0" x="357.050367" y="72.72" style="fill: #1f77b4; stroke: #1f77b4"/>
     <use xlink:href="#ma928a153d0" x="362.780484" y="72.72" style="fill: #1f77b4; stroke: #1f77b4"/>
     <use xlink:href="#ma928a153d0" x="363.310061" y="72.72" style="fill: #1f77b4; stroke: #1f77b4"/>
     <use xlink:href="#ma928a153d0" x="400.11054" y="72.72" style="fill: #1f77b4; stroke: #1f77b4"/>
     <use xlink:href="#ma928a153d0" x="406.828759" y="72.72" style="fill: #1f77b4; stroke: #1f77b4"/>
     <use xlink:href="#ma928a153d0" x="441.717614" y="72.72" style="fill: #1f77b4; stroke: #1f77b4"/>
     <use xlink:href="#ma928a153d0" x="459.812425" y="72.72" style="fill: #1f77b4; stroke: #1f77b4"/>
     <use xlink:href="#ma928a153d0" x="483.404901" y="72.72" style="fill: #1f77b4; stroke: #1f77b4"/>
     <use xlink:href="#ma928a153d0" x="485.6345" y="72.72" style="fill: #1f77b4; stroke: #1f77b4"/>
     <use xlink:href="#ma928a153d0" x="486.547981" y="72.72" style="fill: #1f77b4; stroke: #1f77b4"/>
     <use xlink:href="#ma928a153d0" x="497.313681" y="72.72" style="fill: #1f77b4; stroke: #1f77b4"/>
     <use xlink:href="#ma928a153d0" x="499.469865" y="72.72" style="fill: #1f77b4; stroke: #1f77b4"/>
     <use xlink:href="#ma928a153d0" x="514.970087" y="72.72" style="fill: #1f77b4; stroke: #1f77b4"/>
     <use xlink:href="#ma928a153d0" x="521.125925" y="72.72" style="fill: #1f77b4; stroke: #1f77b4"/>
     <use xlink:href="#ma928a153d0" x="529.92684" y="72.72" style="fill: #1f77b4; stroke: #1f77b4"/>
     <use xlink:href="#ma928a153d0" x="562.450087" y="72.72" style="fill: #1f77b4; stroke: #1f77b4"/>
     <use xlink:href="#ma928a153d0" x="571.097702" y="72.72" style="fill: #1f77b4; stroke: #1f77b4"/>
     <use xlink:href="#ma928a153d0" x="572.440334" y="72.72" style="fill: #1f77b4; stroke: #1f77b4"/>
     <use xlink:href="#ma928a153d0" x="574.459931" y="72.72" style="fill: #1f77b4; stroke: #1f77b4"/>
     <use xlink:href="#ma928a153d0" x="583.69844" y="72.72" style="fill: #1f77b4; stroke: #1f77b4"/>
     <use xlink:href="#ma928a153d0" x="592.412628" y="72.72" style="fill: #1f77b4; stroke: #1f77b4"/>
     <use xlink:href="#ma928a153d0" x="604.314355" y="72.72" style="fill: #1f77b4; stroke: #1f77b4"/>
     <use xlink:href="#ma928a153d0" x="610.333269" y="72.72" style="fill: #1f77b4; stroke: #1f77b4"/>
     <use xlink:href="#ma928a153d0" x="622.636364" y="72.72" style="fill: #1f77b4; stroke: #1f77b4"/>
    </g>
   </g>
   <g id="patch_3">
    <path d="M 90 128.16 
L 90 17.28 
" style="fill: none; stroke: #000000; stroke-width: 0.8; stroke-linejoin: miter; stroke-linecap: square"/>
   </g>
   <g id="patch_4">
    <path d="M 648 128.16 
L 648 17.28 
" style="fill: none; stroke: #000000; stroke-width: 0.8; stroke-linejoin: miter; stroke-linecap: square"/>
   </g>
   <g id="patch_5">
    <path d="M 90 128.16 
L 648 128.16 
" style="fill: none; stroke: #000000; stroke-width: 0.8; stroke-linejoin: miter; stroke-linecap: square"/>
   </g>
   <g id="patch_6">
    <path d="M 90 17.28 
L 648 17.28 
" style="fill: none; stroke: #000000; stroke-width: 0.8; stroke-linejoin: miter; stroke-linecap: square"/>
   </g>
  </g>
 </g>
 <defs>
  <clipPath id="pcf907ba34e">
   <rect x="90" y="17.28" width="558" height="110.88"/>
  </clipPath>
 </defs>
</svg>
