<?xml version="1.0" encoding="UTF-8" standalone="no"?>
<svg
   width="720pt"
   height="144pt"
   viewBox="0 0 720 144"
   version="1.1"
   id="svg8492"
   sodipodi:docname="poisson_sequence_colored.svg"
   inkscape:label="events"
   inkscape:version="1.1.1 (3bf5ae0d25, 2021-09-20)"
   xmlns:inkscape="http://www.inkscape.org/namespaces/inkscape"
   xmlns:sodipodi="http://sodipodi.sourceforge.net/DTD/sodipodi-0.dtd"
   xmlns="http://www.w3.org/2000/svg"
   xmlns:svg="http://www.w3.org/2000/svg"
   xmlns:rdf="http://www.w3.org/1999/02/22-rdf-syntax-ns#"
   xmlns:cc="http://creativecommons.org/ns#"
   xmlns:dc="http://purl.org/dc/elements/1.1/">
  <sodipodi:namedview
     id="namedview8494"
     pagecolor="#ffffff"
     bordercolor="#999999"
     borderopacity="1"
     inkscape:pageshadow="0"
     inkscape:pageopacity="0"
     inkscape:pagecheckerboard="0"
     inkscape:document-units="pt"
     showgrid="false"
     inkscape:zoom="1.6189799"
     inkscape:cx="456.15143"
     inkscape:cy="51.26685"
     inkscape:window-width="1920"
     inkscape:window-height="1009"
     inkscape:window-x="1912"
     inkscape:window-y="-8"
     inkscape:window-maximized="1"
     inkscape:current-layer="g8920" />
  <metadata
     id="metadata8213">
    <rdf:RDF>
      <cc:Work>
        <dc:type
           rdf:resource="http://purl.org/dc/dcmitype/StillImage" />
        <dc:date>2024-05-13T12:45:49.190666</dc:date>
        <dc:format>image/svg+xml</dc:format>
        <dc:creator>
          <cc:Agent>
            <dc:title>Matplotlib v3.8.2, https://matplotlib.org/</dc:title>
          </cc:Agent>
        </dc:creator>
      </cc:Work>
    </rdf:RDF>
  </metadata>
  <defs
     id="defs8217">
    <style
       type="text/css"
       id="style8215">*{stroke-linejoin: round; stroke-linecap: butt}</style>
  </defs>
  <g
     clip-path="url(#pcf907ba34e)"
     id="g8470"
     style="fill:#280b0b;stroke-width:0;stroke-miterlimit:4;stroke-dasharray:none"
     inkscape:label="events">
    <g
       id="g8916"
       inkscape:label="non-photons"
       style="opacity:0.75;fill:#0000ff">
      <path
         id="use8390"
         d="m 115.36363,75.970001 c 0.86191,0 1.68864,-0.342441 2.2981,-0.951903 0.60946,-0.609462 0.9519,-1.436187 0.9519,-2.298097 0,-0.86191 -0.34244,-1.688635 -0.9519,-2.298097 -0.60946,-0.609462 -1.43619,-0.951903 -2.2981,-0.951903 -0.86191,0 -1.68863,0.342441 -2.29809,0.951903 -0.60947,0.609462 -0.95191,1.436187 -0.95191,2.298097 0,0.86191 0.34244,1.688635 0.95191,2.298097 0.60946,0.609462 1.43618,0.951903 2.29809,0.951903 z"
         style="fill:#0000ff;stroke:#1f77b4;stroke-width:0;stroke-miterlimit:4;stroke-dasharray:none" />
      <path
         id="use8394"
         d="m 166.86963,75.970001 c 0.86191,0 1.68863,-0.342441 2.2981,-0.951903 0.60946,-0.609462 0.9519,-1.436187 0.9519,-2.298097 0,-0.86191 -0.34244,-1.688635 -0.9519,-2.298097 -0.60947,-0.609462 -1.43619,-0.951903 -2.2981,-0.951903 -0.86191,0 -1.68864,0.342441 -2.2981,0.951903 -0.60946,0.609462 -0.9519,1.436187 -0.9519,2.298097 0,0.86191 0.34244,1.688635 0.9519,2.298097 0.60946,0.609462 1.43619,0.951903 2.2981,0.951903 z"
         style="fill:#0000ff;stroke:#1f77b4;stroke-width:0;stroke-miterlimit:4;stroke-dasharray:none" />
      <path
         id="use8398"
         d="m 195.60927,75.970001 c 0.86191,0 1.68863,-0.342441 2.2981,-0.951903 0.60946,-0.609462 0.9519,-1.436187 0.9519,-2.298097 0,-0.86191 -0.34244,-1.688635 -0.9519,-2.298097 -0.60947,-0.609462 -1.43619,-0.951903 -2.2981,-0.951903 -0.86191,0 -1.68864,0.342441 -2.2981,0.951903 -0.60946,0.609462 -0.9519,1.436187 -0.9519,2.298097 0,0.86191 0.34244,1.688635 0.9519,2.298097 0.60946,0.609462 1.43619,0.951903 2.2981,0.951903 z"
         style="fill:#0000ff;stroke:#1f77b4;stroke-width:0;stroke-miterlimit:4;stroke-dasharray:none" />
      <path
         id="use8402"
         d="m 239.33119,75.970001 c 0.86191,0 1.68864,-0.342441 2.2981,-0.951903 0.60946,-0.609462 0.9519,-1.436187 0.9519,-2.298097 0,-0.86191 -0.34244,-1.688635 -0.9519,-2.298097 -0.60946,-0.609462 -1.43619,-0.951903 -2.2981,-0.951903 -0.86191,0 -1.68863,0.342441 -2.29809,0.951903 -0.60947,0.609462 -0.95191,1.436187 -0.95191,2.298097 0,0.86191 0.34244,1.688635 0.95191,2.298097 0.60946,0.609462 1.43618,0.951903 2.29809,0.951903 z"
         style="fill:#0000ff;stroke:#1f77b4;stroke-width:0;stroke-miterlimit:4;stroke-dasharray:none" />
      <path
         id="use8406"
         d="m 247.32439,75.970001 c 0.86191,0 1.68863,-0.342441 2.29809,-0.951903 0.60947,-0.609462 0.95191,-1.436187 0.95191,-2.298097 0,-0.86191 -0.34244,-1.688635 -0.95191,-2.298097 -0.60946,-0.609462 -1.43618,-0.951903 -2.29809,-0.951903 -0.86191,0 -1.68864,0.342441 -2.2981,0.951903 -0.60946,0.609462 -0.9519,1.436187 -0.9519,2.298097 0,0.86191 0.34244,1.688635 0.9519,2.298097 0.60946,0.609462 1.43619,0.951903 2.2981,0.951903 z"
         style="fill:#0000ff;stroke:#1f77b4;stroke-width:0;stroke-miterlimit:4;stroke-dasharray:none" />
      <path
         id="use8410"
         d="m 270.23541,75.970001 c 0.86191,0 1.68864,-0.342441 2.2981,-0.951903 0.60946,-0.609462 0.9519,-1.436187 0.9519,-2.298097 0,-0.86191 -0.34244,-1.688635 -0.9519,-2.298097 -0.60946,-0.609462 -1.43619,-0.951903 -2.2981,-0.951903 -0.86191,0 -1.68863,0.342441 -2.29809,0.951903 -0.60947,0.609462 -0.95191,1.436187 -0.95191,2.298097 0,0.86191 0.34244,1.688635 0.95191,2.298097 0.60946,0.609462 1.43618,0.951903 2.29809,0.951903 z"
         style="fill:#0000ff;stroke:#1f77b4;stroke-width:0;stroke-miterlimit:4;stroke-dasharray:none" />
      <path
         id="use8414"
         d="m 296.12494,75.970001 c 0.86191,0 1.68863,-0.342441 2.2981,-0.951903 0.60946,-0.609462 0.9519,-1.436187 0.9519,-2.298097 0,-0.86191 -0.34244,-1.688635 -0.9519,-2.298097 -0.60947,-0.609462 -1.43619,-0.951903 -2.2981,-0.951903 -0.86191,0 -1.68864,0.342441 -2.2981,0.951903 -0.60946,0.609462 -0.9519,1.436187 -0.9519,2.298097 0,0.86191 0.34244,1.688635 0.9519,2.298097 0.60946,0.609462 1.43619,0.951903 2.2981,0.951903 z"
         style="fill:#0000ff;stroke:#1f77b4;stroke-width:0;stroke-miterlimit:4;stroke-dasharray:none" />
      <path
         id="use8418"
         d="m 346.2785,75.970001 c 0.86191,0 1.68864,-0.342441 2.2981,-0.951903 0.60946,-0.609462 0.9519,-1.436187 0.9519,-2.298097 0,-0.86191 -0.34244,-1.688635 -0.9519,-2.298097 -0.60946,-0.609462 -1.43619,-0.951903 -2.2981,-0.951903 -0.86191,0 -1.68863,0.342441 -2.29809,0.951903 -0.60947,0.609462 -0.95191,1.436187 -0.95191,2.298097 0,0.86191 0.34244,1.688635 0.95191,2.298097 0.60946,0.609462 1.43618,0.951903 2.29809,0.951903 z"
         style="fill:#0000ff;stroke:#1f77b4;stroke-width:0;stroke-miterlimit:4;stroke-dasharray:none" />
      <path
         id="use8422"
         d="m 357.05035,75.970001 c 0.86191,0 1.68864,-0.342441 2.2981,-0.951903 0.60946,-0.609462 0.9519,-1.436187 0.9519,-2.298097 0,-0.86191 -0.34244,-1.688635 -0.9519,-2.298097 -0.60946,-0.609462 -1.43619,-0.951903 -2.2981,-0.951903 -0.86191,0 -1.68863,0.342441 -2.29809,0.951903 -0.60946,0.609462 -0.95191,1.436187 -0.95191,2.298097 0,0.86191 0.34245,1.688635 0.95191,2.298097 0.60946,0.609462 1.43618,0.951903 2.29809,0.951903 z"
         style="fill:#0000ff;stroke:#1f77b4;stroke-width:0;stroke-miterlimit:4;stroke-dasharray:none" />
      <path
         id="use8426"
         d="m 366.31006,75.970001 c 0.86191,0 1.68863,-0.342441 2.2981,-0.951903 0.60946,-0.609462 0.9519,-1.436187 0.9519,-2.298097 0,-0.86191 -0.34244,-1.688635 -0.9519,-2.298097 -0.60947,-0.609462 -1.43619,-0.951903 -2.2981,-0.951903 -0.86191,0 -1.68864,0.342441 -2.2981,0.951903 -0.60946,0.609462 -0.9519,1.436187 -0.9519,2.298097 0,0.86191 0.34244,1.688635 0.9519,2.298097 0.60946,0.609462 1.43619,0.951903 2.2981,0.951903 z"
         style="fill:#0000ff;stroke:#1f77b4;stroke-width:0;stroke-miterlimit:4;stroke-dasharray:none" />
      <path
         id="use8430"
         d="m 406.82877,75.970001 c 0.86191,0 1.68863,-0.342441 2.29809,-0.951903 0.60946,-0.609462 0.95191,-1.436187 0.95191,-2.298097 0,-0.86191 -0.34245,-1.688635 -0.95191,-2.298097 -0.60946,-0.609462 -1.43618,-0.951903 -2.29809,-0.951903 -0.86191,0 -1.68864,0.342441 -2.2981,0.951903 -0.60946,0.609462 -0.9519,1.436187 -0.9519,2.298097 0,0.86191 0.34244,1.688635 0.9519,2.298097 0.60946,0.609462 1.43619,0.951903 2.2981,0.951903 z"
         style="fill:#0000ff;stroke:#1f77b4;stroke-width:0;stroke-miterlimit:4;stroke-dasharray:none" />
      <path
         id="use8434"
         d="m 459.81244,75.970001 c 0.86191,0 1.68863,-0.342441 2.2981,-0.951903 0.60946,-0.609462 0.9519,-1.436187 0.9519,-2.298097 0,-0.86191 -0.34244,-1.688635 -0.9519,-2.298097 -0.60947,-0.609462 -1.43619,-0.951903 -2.2981,-0.951903 -0.86191,0 -1.68864,0.342441 -2.2981,0.951903 -0.60946,0.609462 -0.9519,1.436187 -0.9519,2.298097 0,0.86191 0.34244,1.688635 0.9519,2.298097 0.60946,0.609462 1.43619,0.951903 2.2981,0.951903 z"
         style="fill:#0000ff;stroke:#1f77b4;stroke-width:0;stroke-miterlimit:4;stroke-dasharray:none" />
      <path
         id="use8438"
         d="m 485.63449,75.970001 c 0.86191,0 1.68864,-0.342441 2.2981,-0.951903 0.60946,-0.609462 0.9519,-1.436187 0.9519,-2.298097 0,-0.86191 -0.34244,-1.688635 -0.9519,-2.298097 -0.60946,-0.609462 -1.43619,-0.951903 -2.2981,-0.951903 -0.86191,0 -1.68863,0.342441 -2.2981,0.951903 -0.60946,0.609462 -0.9519,1.436187 -0.9519,2.298097 0,0.86191 0.34244,1.688635 0.9519,2.298097 0.60947,0.609462 1.43619,0.951903 2.2981,0.951903 z"
         style="fill:#0000ff;stroke:#1f77b4;stroke-width:0;stroke-miterlimit:4;stroke-dasharray:none" />
      <path
         id="use8442"
         d="m 497.31369,75.970001 c 0.86191,0 1.68864,-0.342441 2.2981,-0.951903 0.60946,-0.609462 0.9519,-1.436187 0.9519,-2.298097 0,-0.86191 -0.34244,-1.688635 -0.9519,-2.298097 -0.60946,-0.609462 -1.43619,-0.951903 -2.2981,-0.951903 -0.86191,0 -1.68863,0.342441 -2.2981,0.951903 -0.60946,0.609462 -0.9519,1.436187 -0.9519,2.298097 0,0.86191 0.34244,1.688635 0.9519,2.298097 0.60947,0.609462 1.43619,0.951903 2.2981,0.951903 z"
         style="fill:#0000ff;stroke:#1f77b4;stroke-width:0;stroke-miterlimit:4;stroke-dasharray:none" />
      <path
         id="use8446"
         d="m 514.97009,75.970001 c 0.86191,0 1.68864,-0.342441 2.2981,-0.951903 0.60946,-0.609462 0.9519,-1.436187 0.9519,-2.298097 0,-0.86191 -0.34244,-1.688635 -0.9519,-2.298097 -0.60946,-0.609462 -1.43619,-0.951903 -2.2981,-0.951903 -0.86191,0 -1.68863,0.342441 -2.29809,0.951903 -0.60947,0.609462 -0.95191,1.436187 -0.95191,2.298097 0,0.86191 0.34244,1.688635 0.95191,2.298097 0.60946,0.609462 1.43618,0.951903 2.29809,0.951903 z"
         style="fill:#0000ff;stroke:#1f77b4;stroke-width:0;stroke-miterlimit:4;stroke-dasharray:none" />
      <path
         id="use8450"
         d="m 529.92682,75.970001 c 0.86191,0 1.68863,-0.342441 2.2981,-0.951903 0.60946,-0.609462 0.9519,-1.436187 0.9519,-2.298097 0,-0.86191 -0.34244,-1.688635 -0.9519,-2.298097 -0.60947,-0.609462 -1.43619,-0.951903 -2.2981,-0.951903 -0.86191,0 -1.68864,0.342441 -2.2981,0.951903 -0.60946,0.609462 -0.9519,1.436187 -0.9519,2.298097 0,0.86191 0.34244,1.688635 0.9519,2.298097 0.60946,0.609462 1.43619,0.951903 2.2981,0.951903 z"
         style="fill:#0000ff;stroke:#1f77b4;stroke-width:0;stroke-miterlimit:4;stroke-dasharray:none" />
      <path
         id="use8454"
         d="m 569.59772,75.970001 c 0.86191,0 1.68863,-0.342441 2.29809,-0.951903 0.60947,-0.609462 0.95191,-1.436187 0.95191,-2.298097 0,-0.86191 -0.34244,-1.688635 -0.95191,-2.298097 -0.60946,-0.609462 -1.43618,-0.951903 -2.29809,-0.951903 -0.86191,0 -1.68864,0.342441 -2.2981,0.951903 -0.60946,0.609462 -0.9519,1.436187 -0.9519,2.298097 0,0.86191 0.34244,1.688635 0.9519,2.298097 0.60946,0.609462 1.43619,0.951903 2.2981,0.951903 z"
         style="fill:#0000ff;stroke:#1f77b4;stroke-width:0;stroke-miterlimit:4;stroke-dasharray:none" />
      <path
         id="use8458"
         d="m 574.45996,75.970001 c 0.86191,0 1.68864,-0.342441 2.2981,-0.951903 0.60946,-0.609462 0.9519,-1.436187 0.9519,-2.298097 0,-0.86191 -0.34244,-1.688635 -0.9519,-2.298097 -0.60946,-0.609462 -1.43619,-0.951903 -2.2981,-0.951903 -0.86191,0 -1.68863,0.342441 -2.2981,0.951903 -0.60946,0.609462 -0.9519,1.436187 -0.9519,2.298097 0,0.86191 0.34244,1.688635 0.9519,2.298097 0.60947,0.609462 1.43619,0.951903 2.2981,0.951903 z"
         style="fill:#0000ff;stroke:#1f77b4;stroke-width:0;stroke-miterlimit:4;stroke-dasharray:none" />
      <path
         id="use8462"
         d="m 592.4126,75.970001 c 0.86191,0 1.68863,-0.342441 2.29809,-0.951903 0.60947,-0.609462 0.95191,-1.436187 0.95191,-2.298097 0,-0.86191 -0.34244,-1.688635 -0.95191,-2.298097 -0.60946,-0.609462 -1.43618,-0.951903 -2.29809,-0.951903 -0.86191,0 -1.68864,0.342441 -2.2981,0.951903 -0.60946,0.609462 -0.9519,1.436187 -0.9519,2.298097 0,0.86191 0.34244,1.688635 0.9519,2.298097 0.60946,0.609462 1.43619,0.951903 2.2981,0.951903 z"
         style="fill:#0000ff;stroke:#1f77b4;stroke-width:0;stroke-miterlimit:4;stroke-dasharray:none" />
      <path
         id="use8466"
         d="m 610.33325,75.970001 c 0.86191,0 1.68864,-0.342441 2.2981,-0.951903 0.60946,-0.609462 0.9519,-1.436187 0.9519,-2.298097 0,-0.86191 -0.34244,-1.688635 -0.9519,-2.298097 -0.60946,-0.609462 -1.43619,-0.951903 -2.2981,-0.951903 -0.86191,0 -1.68863,0.342441 -2.2981,0.951903 -0.60946,0.609462 -0.9519,1.436187 -0.9519,2.298097 0,0.86191 0.34244,1.688635 0.9519,2.298097 0.60947,0.609462 1.43619,0.951903 2.2981,0.951903 z"
         style="fill:#0000ff;stroke:#1f77b4;stroke-width:0;stroke-miterlimit:4;stroke-dasharray:none" />
    </g>
    <g
       id="g8920"
       inkscape:label="photons"
       transform="translate(-0.07327)"
       style="opacity:0.75;fill:#ff0000">
      <path
         id="use8456"
         d="m 572.44031,75.970001 c 0.86191,0 1.68863,-0.342441 2.29809,-0.951903 0.60947,-0.609462 0.95191,-1.436187 0.95191,-2.298097 0,-0.86191 -0.34244,-1.688635 -0.95191,-2.298097 -0.60946,-0.609462 -1.43618,-0.951903 -2.29809,-0.951903 -0.86191,0 -1.68864,0.342441 -2.2981,0.951903 -0.60946,0.609462 -0.9519,1.436187 -0.9519,2.298097 0,0.86191 0.34244,1.688635 0.9519,2.298097 0.60946,0.609462 1.43619,0.951903 2.2981,0.951903 z"
         style="fill:#ff0000;stroke:#1f77b4;stroke-width:0;stroke-miterlimit:4;stroke-dasharray:none" />
      <path
         id="use8452"
         d="m 536.95007,75.970001 c 0.86191,0 1.68864,-0.342441 2.2981,-0.951903 0.60946,-0.609462 0.9519,-1.436187 0.9519,-2.298097 0,-0.86191 -0.34244,-1.688635 -0.9519,-2.298097 -0.60946,-0.609462 -1.43619,-0.951903 -2.2981,-0.951903 -0.86191,0 -1.68863,0.342441 -2.29809,0.951903 -0.60947,0.609462 -0.95191,1.436187 -0.95191,2.298097 0,0.86191 0.34244,1.688635 0.95191,2.298097 0.60946,0.609462 1.43618,0.951903 2.29809,0.951903 z"
         style="fill:#ff0000;stroke:#1f77b4;stroke-width:0;stroke-miterlimit:4;stroke-dasharray:none" />
      <path
         id="use8448"
         d="m 521.12592,75.970001 c 0.86191,0 1.68863,-0.342441 2.29809,-0.951903 0.60946,-0.609462 0.95191,-1.436187 0.95191,-2.298097 0,-0.86191 -0.34245,-1.688635 -0.95191,-2.298097 -0.60946,-0.609462 -1.43618,-0.951903 -2.29809,-0.951903 -0.86191,0 -1.68864,0.342441 -2.2981,0.951903 -0.60946,0.609462 -0.9519,1.436187 -0.9519,2.298097 0,0.86191 0.34244,1.688635 0.9519,2.298097 0.60946,0.609462 1.43619,0.951903 2.2981,0.951903 z"
         style="fill:#ff0000;stroke:#1f77b4;stroke-width:0;stroke-miterlimit:4;stroke-dasharray:none" />
      <path
         id="use8444"
         d="m 499.46988,75.970001 c 0.86191,0 1.68863,-0.342441 2.2981,-0.951903 0.60946,-0.609462 0.9519,-1.436187 0.9519,-2.298097 0,-0.86191 -0.34244,-1.688635 -0.9519,-2.298097 -0.60947,-0.609462 -1.43619,-0.951903 -2.2981,-0.951903 -0.86191,0 -1.68864,0.342441 -2.2981,0.951903 -0.60946,0.609462 -0.9519,1.436187 -0.9519,2.298097 0,0.86191 0.34244,1.688635 0.9519,2.298097 0.60946,0.609462 1.43619,0.951903 2.2981,0.951903 z"
         style="fill:#ff0000;stroke:#1f77b4;stroke-width:0;stroke-miterlimit:4;stroke-dasharray:none" />
      <path
         id="use8440"
         d="m 488.04797,75.970001 c 0.86191,0 1.68864,-0.342441 2.2981,-0.951903 0.60946,-0.609462 0.9519,-1.436187 0.9519,-2.298097 0,-0.86191 -0.34244,-1.688635 -0.9519,-2.298097 -0.60946,-0.609462 -1.43619,-0.951903 -2.2981,-0.951903 -0.86191,0 -1.68863,0.342441 -2.29809,0.951903 -0.60947,0.609462 -0.95191,1.436187 -0.95191,2.298097 0,0.86191 0.34244,1.688635 0.95191,2.298097 0.60946,0.609462 1.43618,0.951903 2.29809,0.951903 z"
         style="fill:#ff0000;stroke:#1f77b4;stroke-width:0;stroke-miterlimit:4;stroke-dasharray:none" />
      <path
         id="use8436"
         d="m 480.40491,75.970001 c 0.86191,0 1.68863,-0.342441 2.29809,-0.951903 0.60947,-0.609462 0.95191,-1.436187 0.95191,-2.298097 0,-0.86191 -0.34244,-1.688635 -0.95191,-2.298097 -0.60946,-0.609462 -1.43618,-0.951903 -2.29809,-0.951903 -0.86191,0 -1.68864,0.342441 -2.2981,0.951903 -0.60946,0.609462 -0.9519,1.436187 -0.9519,2.298097 0,0.86191 0.34244,1.688635 0.9519,2.298097 0.60946,0.609462 1.43619,0.951903 2.2981,0.951903 z"
         style="fill:#ff0000;stroke:#1f77b4;stroke-width:0;stroke-miterlimit:4;stroke-dasharray:none" />
      <path
         id="use8432"
         d="m 441.71762,75.970001 c 0.86191,0 1.68864,-0.342441 2.2981,-0.951903 0.60946,-0.609462 0.9519,-1.436187 0.9519,-2.298097 0,-0.86191 -0.34244,-1.688635 -0.9519,-2.298097 -0.60946,-0.609462 -1.43619,-0.951903 -2.2981,-0.951903 -0.86191,0 -1.68863,0.342441 -2.2981,0.951903 -0.60946,0.609462 -0.9519,1.436187 -0.9519,2.298097 0,0.86191 0.34244,1.688635 0.9519,2.298097 0.60947,0.609462 1.43619,0.951903 2.2981,0.951903 z"
         style="fill:#ff0000;stroke:#1f77b4;stroke-width:0;stroke-miterlimit:4;stroke-dasharray:none" />
      <path
         id="use8428"
         d="m 400.11053,75.970001 c 0.86191,0 1.68864,-0.342441 2.2981,-0.951903 0.60946,-0.609462 0.9519,-1.436187 0.9519,-2.298097 0,-0.86191 -0.34244,-1.688635 -0.9519,-2.298097 -0.60946,-0.609462 -1.43619,-0.951903 -2.2981,-0.951903 -0.86191,0 -1.68863,0.342441 -2.29809,0.951903 -0.60946,0.609462 -0.95191,1.436187 -0.95191,2.298097 0,0.86191 0.34245,1.688635 0.95191,2.298097 0.60946,0.609462 1.43618,0.951903 2.29809,0.951903 z"
         style="fill:#ff0000;stroke:#1f77b4;stroke-width:0;stroke-miterlimit:4;stroke-dasharray:none" />
      <path
         id="use8424"
         d="m 361.28049,75.970001 c 0.86191,0 1.68863,-0.342441 2.29809,-0.951903 0.60947,-0.609462 0.95191,-1.436187 0.95191,-2.298097 0,-0.86191 -0.34244,-1.688635 -0.95191,-2.298097 -0.60946,-0.609462 -1.43618,-0.951903 -2.29809,-0.951903 -0.86191,0 -1.68864,0.342441 -2.2981,0.951903 -0.60946,0.609462 -0.9519,1.436187 -0.9519,2.298097 0,0.86191 0.34244,1.688635 0.9519,2.298097 0.60946,0.609462 1.43619,0.951903 2.2981,0.951903 z"
         style="fill:#ff0000;stroke:#1f77b4;stroke-width:0;stroke-miterlimit:4;stroke-dasharray:none" />
      <path
         id="use8420"
         d="m 354.14427,75.970001 c 0.86191,0 1.68863,-0.342441 2.2981,-0.951903 0.60946,-0.609462 0.9519,-1.436187 0.9519,-2.298097 0,-0.86191 -0.34244,-1.688635 -0.9519,-2.298097 -0.60947,-0.609462 -1.43619,-0.951903 -2.2981,-0.951903 -0.86191,0 -1.68864,0.342441 -2.2981,0.951903 -0.60946,0.609462 -0.9519,1.436187 -0.9519,2.298097 0,0.86191 0.34244,1.688635 0.9519,2.298097 0.60946,0.609462 1.43619,0.951903 2.2981,0.951903 z"
         style="fill:#ff0000;stroke:#1f77b4;stroke-width:0;stroke-miterlimit:4;stroke-dasharray:none" />
      <path
         id="use8416"
         d="m 342.68039,75.970001 c 0.86191,0 1.68863,-0.342441 2.2981,-0.951903 0.60946,-0.609462 0.9519,-1.436187 0.9519,-2.298097 0,-0.86191 -0.34244,-1.688635 -0.9519,-2.298097 -0.60947,-0.609462 -1.43619,-0.951903 -2.2981,-0.951903 -0.86191,0 -1.68864,0.342441 -2.2981,0.951903 -0.60946,0.609462 -0.9519,1.436187 -0.9519,2.298097 0,0.86191 0.34244,1.688635 0.9519,2.298097 0.60946,0.609462 1.43619,0.951903 2.2981,0.951903 z"
         style="fill:#ff0000;stroke:#1f77b4;stroke-width:0;stroke-miterlimit:4;stroke-dasharray:none" />
      <path
         id="use8412"
         d="m 272.81799,75.970001 c 0.86191,0 1.68864,-0.342441 2.2981,-0.951903 0.60946,-0.609462 0.9519,-1.436187 0.9519,-2.298097 0,-0.86191 -0.34244,-1.688635 -0.9519,-2.298097 -0.60946,-0.609462 -1.43619,-0.951903 -2.2981,-0.951903 -0.86191,0 -1.68863,0.342441 -2.29809,0.951903 -0.60947,0.609462 -0.95191,1.436187 -0.95191,2.298097 0,0.86191 0.34244,1.688635 0.95191,2.298097 0.60946,0.609462 1.43618,0.951903 2.29809,0.951903 z"
         style="fill:#ff0000;stroke:#1f77b4;stroke-width:0;stroke-miterlimit:4;stroke-dasharray:none" />
      <path
         id="use8408"
         d="m 254.01445,75.970001 c 0.86191,0 1.68864,-0.342441 2.2981,-0.951903 0.60946,-0.609462 0.9519,-1.436187 0.9519,-2.298097 0,-0.86191 -0.34244,-1.688635 -0.9519,-2.298097 -0.60946,-0.609462 -1.43619,-0.951903 -2.2981,-0.951903 -0.86191,0 -1.68863,0.342441 -2.2981,0.951903 -0.60946,0.609462 -0.9519,1.436187 -0.9519,2.298097 0,0.86191 0.34244,1.688635 0.9519,2.298097 0.60947,0.609462 1.43619,0.951903 2.2981,0.951903 z"
         style="fill:#ff0000;stroke:#1f77b4;stroke-width:0;stroke-miterlimit:4;stroke-dasharray:none" />
      <path
         id="use8404"
         d="m 243.50427,75.970001 c 0.86191,0 1.68864,-0.342441 2.2981,-0.951903 0.60946,-0.609462 0.9519,-1.436187 0.9519,-2.298097 0,-0.86191 -0.34244,-1.688635 -0.9519,-2.298097 -0.60946,-0.609462 -1.43619,-0.951903 -2.2981,-0.951903 -0.86191,0 -1.68863,0.342441 -2.29809,0.951903 -0.60946,0.609462 -0.95191,1.436187 -0.95191,2.298097 0,0.86191 0.34245,1.688635 0.95191,2.298097 0.60946,0.609462 1.43618,0.951903 2.29809,0.951903 z"
         style="fill:#ff0000;stroke:#1f77b4;stroke-width:0;stroke-miterlimit:4;stroke-dasharray:none" />
      <path
         id="use8400"
         d="m 198.46394,75.970001 c 0.86191,0 1.68864,-0.342441 2.2981,-0.951903 0.60946,-0.609462 0.9519,-1.436187 0.9519,-2.298097 0,-0.86191 -0.34244,-1.688635 -0.9519,-2.298097 -0.60946,-0.609462 -1.43619,-0.951903 -2.2981,-0.951903 -0.86191,0 -1.68863,0.342441 -2.29809,0.951903 -0.60947,0.609462 -0.95191,1.436187 -0.95191,2.298097 0,0.86191 0.34244,1.688635 0.95191,2.298097 0.60946,0.609462 1.43618,0.951903 2.29809,0.951903 z"
         style="fill:#ff0000;stroke:#1f77b4;stroke-width:0;stroke-miterlimit:4;stroke-dasharray:none" />
      <path
         id="use8396"
         d="m 181.5806,75.970001 c 0.86191,0 1.68863,-0.342441 2.29809,-0.951903 0.60947,-0.609462 0.95191,-1.436187 0.95191,-2.298097 0,-0.86191 -0.34244,-1.688635 -0.95191,-2.298097 -0.60946,-0.609462 -1.43618,-0.951903 -2.29809,-0.951903 -0.86191,0 -1.68864,0.342441 -2.2981,0.951903 -0.60946,0.609462 -0.9519,1.436187 -0.9519,2.298097 0,0.86191 0.34244,1.688635 0.9519,2.298097 0.60946,0.609462 1.43619,0.951903 2.2981,0.951903 z"
         style="fill:#ff0000;stroke:#1f77b4;stroke-width:0;stroke-miterlimit:4;stroke-dasharray:none" />
      <path
         id="use8392"
         d="m 124.65459,75.970001 c 0.86191,0 1.68863,-0.342441 2.29809,-0.951903 0.60947,-0.609462 0.95191,-1.436187 0.95191,-2.298097 0,-0.86191 -0.34244,-1.688635 -0.95191,-2.298097 -0.60946,-0.609462 -1.43618,-0.951903 -2.29809,-0.951903 -0.86191,0 -1.68864,0.342441 -2.2981,0.951903 -0.60946,0.609462 -0.9519,1.436187 -0.9519,2.298097 0,0.86191 0.34244,1.688635 0.9519,2.298097 0.60946,0.609462 1.43619,0.951903 2.2981,0.951903 z"
         style="fill:#ff0000;stroke:#1f77b4;stroke-width:0;stroke-miterlimit:4;stroke-dasharray:none" />
      <path
         id="use8460"
         d="m 583.69843,75.970001 c 0.86191,0 1.68863,-0.342441 2.29809,-0.951903 0.60946,-0.609462 0.95191,-1.436187 0.95191,-2.298097 0,-0.86191 -0.34245,-1.688635 -0.95191,-2.298097 -0.60946,-0.609462 -1.43618,-0.951903 -2.29809,-0.951903 -0.86191,0 -1.68864,0.342441 -2.2981,0.951903 -0.60946,0.609462 -0.9519,1.436187 -0.9519,2.298097 0,0.86191 0.34244,1.688635 0.9519,2.298097 0.60946,0.609462 1.43619,0.951903 2.2981,0.951903 z"
         style="fill:#ff0000;stroke:#1f77b4;stroke-width:0;stroke-miterlimit:4;stroke-dasharray:none" />
      <path
         id="use8464"
         d="m 604.31433,75.970001 c 0.86191,0 1.68864,-0.342441 2.2981,-0.951903 0.60946,-0.609462 0.9519,-1.436187 0.9519,-2.298097 0,-0.86191 -0.34244,-1.688635 -0.9519,-2.298097 -0.60946,-0.609462 -1.43619,-0.951903 -2.2981,-0.951903 -0.86191,0 -1.68863,0.342441 -2.2981,0.951903 -0.60946,0.609462 -0.9519,1.436187 -0.9519,2.298097 0,0.86191 0.34244,1.688635 0.9519,2.298097 0.60947,0.609462 1.43619,0.951903 2.2981,0.951903 z"
         style="fill:#ff0000;stroke:#1f77b4;stroke-width:0;stroke-miterlimit:4;stroke-dasharray:none" />
      <path
         id="use8468"
         d="m 622.63635,75.970001 c 0.86191,0 1.68864,-0.342441 2.2981,-0.951903 0.60946,-0.609462 0.9519,-1.436187 0.9519,-2.298097 0,-0.86191 -0.34244,-1.688635 -0.9519,-2.298097 -0.60946,-0.609462 -1.43619,-0.951903 -2.2981,-0.951903 -0.86191,0 -1.68863,0.342441 -2.29809,0.951903 -0.60947,0.609462 -0.95191,1.436187 -0.95191,2.298097 0,0.86191 0.34244,1.688635 0.95191,2.298097 0.60946,0.609462 1.43618,0.951903 2.29809,0.951903 z"
         style="fill:#ff0000;stroke:#1f77b4;stroke-width:0;stroke-miterlimit:4;stroke-dasharray:none" />
    </g>
  </g>
  <defs
     id="defs8490">
    <clipPath
       id="pcf907ba34e">
      <rect
         x="90"
         y="17.28"
         width="558"
         height="110.88"
         id="rect8487" />
    </clipPath>
  </defs>
</svg>
