<?xml version="1.0" encoding="utf-8" standalone="no"?>
<!DOCTYPE svg PUBLIC "-//W3C//DTD SVG 1.1//EN"
  "http://www.w3.org/Graphics/SVG/1.1/DTD/svg11.dtd">
<svg xmlns:xlink="http://www.w3.org/1999/xlink" width="460.8pt" height="345.6pt" viewBox="0 0 460.8 345.6" xmlns="http://www.w3.org/2000/svg" version="1.1">
 <metadata>
  <rdf:RDF xmlns:dc="http://purl.org/dc/elements/1.1/" xmlns:cc="http://creativecommons.org/ns#" xmlns:rdf="http://www.w3.org/1999/02/22-rdf-syntax-ns#">
   <cc:Work>
    <dc:type rdf:resource="http://purl.org/dc/dcmitype/StillImage"/>
    <dc:date>2024-02-14T10:36:13.846879</dc:date>
    <dc:format>image/svg+xml</dc:format>
    <dc:creator>
     <cc:Agent>
      <dc:title>Matplotlib v3.5.3, https://matplotlib.org/</dc:title>
     </cc:Agent>
    </dc:creator>
   </cc:Work>
  </rdf:RDF>
 </metadata>
 <defs>
  <style type="text/css">*{stroke-linejoin: round; stroke-linecap: butt}</style>
 </defs>
 <g id="figure_1">
  <g id="patch_1">
   <path d="M 0 345.6 
L 460.8 345.6 
L 460.8 0 
L 0 0 
z
" style="fill: #ffffff"/>
  </g>
  <g id="axes_1">
   <g id="patch_2">
    <path d="M 57.6 307.584 
L 414.72 307.584 
L 414.72 41.472 
L 57.6 41.472 
z
" style="fill: #ffffff"/>
   </g>
   <g id="matplotlib.axis_1">
    <g id="xtick_1">
     <g id="line2d_1">
      <defs>
       <path id="m8de93c626b" d="M 0 0 
L 0 3.5 
" style="stroke: #000000; stroke-width: 0.8"/>
      </defs>
      <g>
       <use xlink:href="#m8de93c626b" x="73.832727" y="307.584" style="stroke: #000000; stroke-width: 0.8"/>
      </g>
     </g>
     <g id="text_1">
      <!-- 0.00 -->
      <g transform="translate(62.699915 322.182437)scale(0.1 -0.1)">
       <defs>
        <path id="DejaVuSans-30" d="M 2034 4250 
Q 1547 4250 1301 3770 
Q 1056 3291 1056 2328 
Q 1056 1369 1301 889 
Q 1547 409 2034 409 
Q 2525 409 2770 889 
Q 3016 1369 3016 2328 
Q 3016 3291 2770 3770 
Q 2525 4250 2034 4250 
z
M 2034 4750 
Q 2819 4750 3233 4129 
Q 3647 3509 3647 2328 
Q 3647 1150 3233 529 
Q 2819 -91 2034 -91 
Q 1250 -91 836 529 
Q 422 1150 422 2328 
Q 422 3509 836 4129 
Q 1250 4750 2034 4750 
z
" transform="scale(0.015625)"/>
        <path id="DejaVuSans-2e" d="M 684 794 
L 1344 794 
L 1344 0 
L 684 0 
L 684 794 
z
" transform="scale(0.015625)"/>
       </defs>
       <use xlink:href="#DejaVuSans-30"/>
       <use xlink:href="#DejaVuSans-2e" x="63.623047"/>
       <use xlink:href="#DejaVuSans-30" x="95.410156"/>
       <use xlink:href="#DejaVuSans-30" x="159.033203"/>
      </g>
     </g>
    </g>
    <g id="xtick_2">
     <g id="line2d_2">
      <g>
       <use xlink:href="#m8de93c626b" x="114.414545" y="307.584" style="stroke: #000000; stroke-width: 0.8"/>
      </g>
     </g>
     <g id="text_2">
      <!-- 0.25 -->
      <g transform="translate(103.281733 322.182437)scale(0.1 -0.1)">
       <defs>
        <path id="DejaVuSans-32" d="M 1228 531 
L 3431 531 
L 3431 0 
L 469 0 
L 469 531 
Q 828 903 1448 1529 
Q 2069 2156 2228 2338 
Q 2531 2678 2651 2914 
Q 2772 3150 2772 3378 
Q 2772 3750 2511 3984 
Q 2250 4219 1831 4219 
Q 1534 4219 1204 4116 
Q 875 4013 500 3803 
L 500 4441 
Q 881 4594 1212 4672 
Q 1544 4750 1819 4750 
Q 2544 4750 2975 4387 
Q 3406 4025 3406 3419 
Q 3406 3131 3298 2873 
Q 3191 2616 2906 2266 
Q 2828 2175 2409 1742 
Q 1991 1309 1228 531 
z
" transform="scale(0.015625)"/>
        <path id="DejaVuSans-35" d="M 691 4666 
L 3169 4666 
L 3169 4134 
L 1269 4134 
L 1269 2991 
Q 1406 3038 1543 3061 
Q 1681 3084 1819 3084 
Q 2600 3084 3056 2656 
Q 3513 2228 3513 1497 
Q 3513 744 3044 326 
Q 2575 -91 1722 -91 
Q 1428 -91 1123 -41 
Q 819 9 494 109 
L 494 744 
Q 775 591 1075 516 
Q 1375 441 1709 441 
Q 2250 441 2565 725 
Q 2881 1009 2881 1497 
Q 2881 1984 2565 2268 
Q 2250 2553 1709 2553 
Q 1456 2553 1204 2497 
Q 953 2441 691 2322 
L 691 4666 
z
" transform="scale(0.015625)"/>
       </defs>
       <use xlink:href="#DejaVuSans-30"/>
       <use xlink:href="#DejaVuSans-2e" x="63.623047"/>
       <use xlink:href="#DejaVuSans-32" x="95.410156"/>
       <use xlink:href="#DejaVuSans-35" x="159.033203"/>
      </g>
     </g>
    </g>
    <g id="xtick_3">
     <g id="line2d_3">
      <g>
       <use xlink:href="#m8de93c626b" x="154.996364" y="307.584" style="stroke: #000000; stroke-width: 0.8"/>
      </g>
     </g>
     <g id="text_3">
      <!-- 0.50 -->
      <g transform="translate(143.863551 322.182437)scale(0.1 -0.1)">
       <use xlink:href="#DejaVuSans-30"/>
       <use xlink:href="#DejaVuSans-2e" x="63.623047"/>
       <use xlink:href="#DejaVuSans-35" x="95.410156"/>
       <use xlink:href="#DejaVuSans-30" x="159.033203"/>
      </g>
     </g>
    </g>
    <g id="xtick_4">
     <g id="line2d_4">
      <g>
       <use xlink:href="#m8de93c626b" x="195.578182" y="307.584" style="stroke: #000000; stroke-width: 0.8"/>
      </g>
     </g>
     <g id="text_4">
      <!-- 0.75 -->
      <g transform="translate(184.445369 322.182437)scale(0.1 -0.1)">
       <defs>
        <path id="DejaVuSans-37" d="M 525 4666 
L 3525 4666 
L 3525 4397 
L 1831 0 
L 1172 0 
L 2766 4134 
L 525 4134 
L 525 4666 
z
" transform="scale(0.015625)"/>
       </defs>
       <use xlink:href="#DejaVuSans-30"/>
       <use xlink:href="#DejaVuSans-2e" x="63.623047"/>
       <use xlink:href="#DejaVuSans-37" x="95.410156"/>
       <use xlink:href="#DejaVuSans-35" x="159.033203"/>
      </g>
     </g>
    </g>
    <g id="xtick_5">
     <g id="line2d_5">
      <g>
       <use xlink:href="#m8de93c626b" x="236.16" y="307.584" style="stroke: #000000; stroke-width: 0.8"/>
      </g>
     </g>
     <g id="text_5">
      <!-- 1.00 -->
      <g transform="translate(225.027187 322.182437)scale(0.1 -0.1)">
       <defs>
        <path id="DejaVuSans-31" d="M 794 531 
L 1825 531 
L 1825 4091 
L 703 3866 
L 703 4441 
L 1819 4666 
L 2450 4666 
L 2450 531 
L 3481 531 
L 3481 0 
L 794 0 
L 794 531 
z
" transform="scale(0.015625)"/>
       </defs>
       <use xlink:href="#DejaVuSans-31"/>
       <use xlink:href="#DejaVuSans-2e" x="63.623047"/>
       <use xlink:href="#DejaVuSans-30" x="95.410156"/>
       <use xlink:href="#DejaVuSans-30" x="159.033203"/>
      </g>
     </g>
    </g>
    <g id="xtick_6">
     <g id="line2d_6">
      <g>
       <use xlink:href="#m8de93c626b" x="276.741818" y="307.584" style="stroke: #000000; stroke-width: 0.8"/>
      </g>
     </g>
     <g id="text_6">
      <!-- 1.25 -->
      <g transform="translate(265.609006 322.182437)scale(0.1 -0.1)">
       <use xlink:href="#DejaVuSans-31"/>
       <use xlink:href="#DejaVuSans-2e" x="63.623047"/>
       <use xlink:href="#DejaVuSans-32" x="95.410156"/>
       <use xlink:href="#DejaVuSans-35" x="159.033203"/>
      </g>
     </g>
    </g>
    <g id="xtick_7">
     <g id="line2d_7">
      <g>
       <use xlink:href="#m8de93c626b" x="317.323636" y="307.584" style="stroke: #000000; stroke-width: 0.8"/>
      </g>
     </g>
     <g id="text_7">
      <!-- 1.50 -->
      <g transform="translate(306.190824 322.182437)scale(0.1 -0.1)">
       <use xlink:href="#DejaVuSans-31"/>
       <use xlink:href="#DejaVuSans-2e" x="63.623047"/>
       <use xlink:href="#DejaVuSans-35" x="95.410156"/>
       <use xlink:href="#DejaVuSans-30" x="159.033203"/>
      </g>
     </g>
    </g>
    <g id="xtick_8">
     <g id="line2d_8">
      <g>
       <use xlink:href="#m8de93c626b" x="357.905455" y="307.584" style="stroke: #000000; stroke-width: 0.8"/>
      </g>
     </g>
     <g id="text_8">
      <!-- 1.75 -->
      <g transform="translate(346.772642 322.182437)scale(0.1 -0.1)">
       <use xlink:href="#DejaVuSans-31"/>
       <use xlink:href="#DejaVuSans-2e" x="63.623047"/>
       <use xlink:href="#DejaVuSans-37" x="95.410156"/>
       <use xlink:href="#DejaVuSans-35" x="159.033203"/>
      </g>
     </g>
    </g>
    <g id="xtick_9">
     <g id="line2d_9">
      <g>
       <use xlink:href="#m8de93c626b" x="398.487273" y="307.584" style="stroke: #000000; stroke-width: 0.8"/>
      </g>
     </g>
     <g id="text_9">
      <!-- 2.00 -->
      <g transform="translate(387.35446 322.182437)scale(0.1 -0.1)">
       <use xlink:href="#DejaVuSans-32"/>
       <use xlink:href="#DejaVuSans-2e" x="63.623047"/>
       <use xlink:href="#DejaVuSans-30" x="95.410156"/>
       <use xlink:href="#DejaVuSans-30" x="159.033203"/>
      </g>
     </g>
    </g>
    <g id="text_10">
     <!-- Bin size [ns] -->
     <g transform="translate(205.624062 335.860562)scale(0.1 -0.1)">
      <defs>
       <path id="DejaVuSans-42" d="M 1259 2228 
L 1259 519 
L 2272 519 
Q 2781 519 3026 730 
Q 3272 941 3272 1375 
Q 3272 1813 3026 2020 
Q 2781 2228 2272 2228 
L 1259 2228 
z
M 1259 4147 
L 1259 2741 
L 2194 2741 
Q 2656 2741 2882 2914 
Q 3109 3088 3109 3444 
Q 3109 3797 2882 3972 
Q 2656 4147 2194 4147 
L 1259 4147 
z
M 628 4666 
L 2241 4666 
Q 2963 4666 3353 4366 
Q 3744 4066 3744 3513 
Q 3744 3084 3544 2831 
Q 3344 2578 2956 2516 
Q 3422 2416 3680 2098 
Q 3938 1781 3938 1306 
Q 3938 681 3513 340 
Q 3088 0 2303 0 
L 628 0 
L 628 4666 
z
" transform="scale(0.015625)"/>
       <path id="DejaVuSans-69" d="M 603 3500 
L 1178 3500 
L 1178 0 
L 603 0 
L 603 3500 
z
M 603 4863 
L 1178 4863 
L 1178 4134 
L 603 4134 
L 603 4863 
z
" transform="scale(0.015625)"/>
       <path id="DejaVuSans-6e" d="M 3513 2113 
L 3513 0 
L 2938 0 
L 2938 2094 
Q 2938 2591 2744 2837 
Q 2550 3084 2163 3084 
Q 1697 3084 1428 2787 
Q 1159 2491 1159 1978 
L 1159 0 
L 581 0 
L 581 3500 
L 1159 3500 
L 1159 2956 
Q 1366 3272 1645 3428 
Q 1925 3584 2291 3584 
Q 2894 3584 3203 3211 
Q 3513 2838 3513 2113 
z
" transform="scale(0.015625)"/>
       <path id="DejaVuSans-20" transform="scale(0.015625)"/>
       <path id="DejaVuSans-73" d="M 2834 3397 
L 2834 2853 
Q 2591 2978 2328 3040 
Q 2066 3103 1784 3103 
Q 1356 3103 1142 2972 
Q 928 2841 928 2578 
Q 928 2378 1081 2264 
Q 1234 2150 1697 2047 
L 1894 2003 
Q 2506 1872 2764 1633 
Q 3022 1394 3022 966 
Q 3022 478 2636 193 
Q 2250 -91 1575 -91 
Q 1294 -91 989 -36 
Q 684 19 347 128 
L 347 722 
Q 666 556 975 473 
Q 1284 391 1588 391 
Q 1994 391 2212 530 
Q 2431 669 2431 922 
Q 2431 1156 2273 1281 
Q 2116 1406 1581 1522 
L 1381 1569 
Q 847 1681 609 1914 
Q 372 2147 372 2553 
Q 372 3047 722 3315 
Q 1072 3584 1716 3584 
Q 2034 3584 2315 3537 
Q 2597 3491 2834 3397 
z
" transform="scale(0.015625)"/>
       <path id="DejaVuSans-7a" d="M 353 3500 
L 3084 3500 
L 3084 2975 
L 922 459 
L 3084 459 
L 3084 0 
L 275 0 
L 275 525 
L 2438 3041 
L 353 3041 
L 353 3500 
z
" transform="scale(0.015625)"/>
       <path id="DejaVuSans-65" d="M 3597 1894 
L 3597 1613 
L 953 1613 
Q 991 1019 1311 708 
Q 1631 397 2203 397 
Q 2534 397 2845 478 
Q 3156 559 3463 722 
L 3463 178 
Q 3153 47 2828 -22 
Q 2503 -91 2169 -91 
Q 1331 -91 842 396 
Q 353 884 353 1716 
Q 353 2575 817 3079 
Q 1281 3584 2069 3584 
Q 2775 3584 3186 3129 
Q 3597 2675 3597 1894 
z
M 3022 2063 
Q 3016 2534 2758 2815 
Q 2500 3097 2075 3097 
Q 1594 3097 1305 2825 
Q 1016 2553 972 2059 
L 3022 2063 
z
" transform="scale(0.015625)"/>
       <path id="DejaVuSans-5b" d="M 550 4863 
L 1875 4863 
L 1875 4416 
L 1125 4416 
L 1125 -397 
L 1875 -397 
L 1875 -844 
L 550 -844 
L 550 4863 
z
" transform="scale(0.015625)"/>
       <path id="DejaVuSans-5d" d="M 1947 4863 
L 1947 -844 
L 622 -844 
L 622 -397 
L 1369 -397 
L 1369 4416 
L 622 4416 
L 622 4863 
L 1947 4863 
z
" transform="scale(0.015625)"/>
      </defs>
      <use xlink:href="#DejaVuSans-42"/>
      <use xlink:href="#DejaVuSans-69" x="68.603516"/>
      <use xlink:href="#DejaVuSans-6e" x="96.386719"/>
      <use xlink:href="#DejaVuSans-20" x="159.765625"/>
      <use xlink:href="#DejaVuSans-73" x="191.552734"/>
      <use xlink:href="#DejaVuSans-69" x="243.652344"/>
      <use xlink:href="#DejaVuSans-7a" x="271.435547"/>
      <use xlink:href="#DejaVuSans-65" x="323.925781"/>
      <use xlink:href="#DejaVuSans-20" x="385.449219"/>
      <use xlink:href="#DejaVuSans-5b" x="417.236328"/>
      <use xlink:href="#DejaVuSans-6e" x="456.25"/>
      <use xlink:href="#DejaVuSans-73" x="519.628906"/>
      <use xlink:href="#DejaVuSans-5d" x="571.728516"/>
     </g>
    </g>
   </g>
   <g id="matplotlib.axis_2">
    <g id="ytick_1">
     <g id="line2d_10">
      <defs>
       <path id="m25abf1cf4e" d="M 0 0 
L -3.5 0 
" style="stroke: #000000; stroke-width: 0.8"/>
      </defs>
      <g>
       <use xlink:href="#m25abf1cf4e" x="57.6" y="307.584" style="stroke: #000000; stroke-width: 0.8"/>
      </g>
     </g>
     <g id="text_11">
      <!-- 0.0 -->
      <g transform="translate(34.696875 311.383219)scale(0.1 -0.1)">
       <use xlink:href="#DejaVuSans-30"/>
       <use xlink:href="#DejaVuSans-2e" x="63.623047"/>
       <use xlink:href="#DejaVuSans-30" x="95.410156"/>
      </g>
     </g>
    </g>
    <g id="ytick_2">
     <g id="line2d_11">
      <g>
       <use xlink:href="#m25abf1cf4e" x="57.6" y="254.3616" style="stroke: #000000; stroke-width: 0.8"/>
      </g>
     </g>
     <g id="text_12">
      <!-- 0.2 -->
      <g transform="translate(34.696875 258.160819)scale(0.1 -0.1)">
       <use xlink:href="#DejaVuSans-30"/>
       <use xlink:href="#DejaVuSans-2e" x="63.623047"/>
       <use xlink:href="#DejaVuSans-32" x="95.410156"/>
      </g>
     </g>
    </g>
    <g id="ytick_3">
     <g id="line2d_12">
      <g>
       <use xlink:href="#m25abf1cf4e" x="57.6" y="201.1392" style="stroke: #000000; stroke-width: 0.8"/>
      </g>
     </g>
     <g id="text_13">
      <!-- 0.4 -->
      <g transform="translate(34.696875 204.938419)scale(0.1 -0.1)">
       <defs>
        <path id="DejaVuSans-34" d="M 2419 4116 
L 825 1625 
L 2419 1625 
L 2419 4116 
z
M 2253 4666 
L 3047 4666 
L 3047 1625 
L 3713 1625 
L 3713 1100 
L 3047 1100 
L 3047 0 
L 2419 0 
L 2419 1100 
L 313 1100 
L 313 1709 
L 2253 4666 
z
" transform="scale(0.015625)"/>
       </defs>
       <use xlink:href="#DejaVuSans-30"/>
       <use xlink:href="#DejaVuSans-2e" x="63.623047"/>
       <use xlink:href="#DejaVuSans-34" x="95.410156"/>
      </g>
     </g>
    </g>
    <g id="ytick_4">
     <g id="line2d_13">
      <g>
       <use xlink:href="#m25abf1cf4e" x="57.6" y="147.9168" style="stroke: #000000; stroke-width: 0.8"/>
      </g>
     </g>
     <g id="text_14">
      <!-- 0.6 -->
      <g transform="translate(34.696875 151.716019)scale(0.1 -0.1)">
       <defs>
        <path id="DejaVuSans-36" d="M 2113 2584 
Q 1688 2584 1439 2293 
Q 1191 2003 1191 1497 
Q 1191 994 1439 701 
Q 1688 409 2113 409 
Q 2538 409 2786 701 
Q 3034 994 3034 1497 
Q 3034 2003 2786 2293 
Q 2538 2584 2113 2584 
z
M 3366 4563 
L 3366 3988 
Q 3128 4100 2886 4159 
Q 2644 4219 2406 4219 
Q 1781 4219 1451 3797 
Q 1122 3375 1075 2522 
Q 1259 2794 1537 2939 
Q 1816 3084 2150 3084 
Q 2853 3084 3261 2657 
Q 3669 2231 3669 1497 
Q 3669 778 3244 343 
Q 2819 -91 2113 -91 
Q 1303 -91 875 529 
Q 447 1150 447 2328 
Q 447 3434 972 4092 
Q 1497 4750 2381 4750 
Q 2619 4750 2861 4703 
Q 3103 4656 3366 4563 
z
" transform="scale(0.015625)"/>
       </defs>
       <use xlink:href="#DejaVuSans-30"/>
       <use xlink:href="#DejaVuSans-2e" x="63.623047"/>
       <use xlink:href="#DejaVuSans-36" x="95.410156"/>
      </g>
     </g>
    </g>
    <g id="ytick_5">
     <g id="line2d_14">
      <g>
       <use xlink:href="#m25abf1cf4e" x="57.6" y="94.6944" style="stroke: #000000; stroke-width: 0.8"/>
      </g>
     </g>
     <g id="text_15">
      <!-- 0.8 -->
      <g transform="translate(34.696875 98.493619)scale(0.1 -0.1)">
       <defs>
        <path id="DejaVuSans-38" d="M 2034 2216 
Q 1584 2216 1326 1975 
Q 1069 1734 1069 1313 
Q 1069 891 1326 650 
Q 1584 409 2034 409 
Q 2484 409 2743 651 
Q 3003 894 3003 1313 
Q 3003 1734 2745 1975 
Q 2488 2216 2034 2216 
z
M 1403 2484 
Q 997 2584 770 2862 
Q 544 3141 544 3541 
Q 544 4100 942 4425 
Q 1341 4750 2034 4750 
Q 2731 4750 3128 4425 
Q 3525 4100 3525 3541 
Q 3525 3141 3298 2862 
Q 3072 2584 2669 2484 
Q 3125 2378 3379 2068 
Q 3634 1759 3634 1313 
Q 3634 634 3220 271 
Q 2806 -91 2034 -91 
Q 1263 -91 848 271 
Q 434 634 434 1313 
Q 434 1759 690 2068 
Q 947 2378 1403 2484 
z
M 1172 3481 
Q 1172 3119 1398 2916 
Q 1625 2713 2034 2713 
Q 2441 2713 2670 2916 
Q 2900 3119 2900 3481 
Q 2900 3844 2670 4047 
Q 2441 4250 2034 4250 
Q 1625 4250 1398 4047 
Q 1172 3844 1172 3481 
z
" transform="scale(0.015625)"/>
       </defs>
       <use xlink:href="#DejaVuSans-30"/>
       <use xlink:href="#DejaVuSans-2e" x="63.623047"/>
       <use xlink:href="#DejaVuSans-38" x="95.410156"/>
      </g>
     </g>
    </g>
    <g id="ytick_6">
     <g id="line2d_15">
      <g>
       <use xlink:href="#m25abf1cf4e" x="57.6" y="41.472" style="stroke: #000000; stroke-width: 0.8"/>
      </g>
     </g>
     <g id="text_16">
      <!-- 1.0 -->
      <g transform="translate(34.696875 45.271219)scale(0.1 -0.1)">
       <use xlink:href="#DejaVuSans-31"/>
       <use xlink:href="#DejaVuSans-2e" x="63.623047"/>
       <use xlink:href="#DejaVuSans-30" x="95.410156"/>
      </g>
     </g>
    </g>
    <g id="text_17">
     <!-- $g^{(2)}(0)$ -->
     <g transform="translate(28.596875 190.128)rotate(-90)scale(0.1 -0.1)">
      <defs>
       <path id="DejaVuSans-Oblique-67" d="M 3816 3500 
L 3219 434 
Q 3047 -456 2561 -893 
Q 2075 -1331 1253 -1331 
Q 950 -1331 690 -1286 
Q 431 -1241 206 -1147 
L 313 -588 
Q 525 -725 762 -790 
Q 1000 -856 1269 -856 
Q 1816 -856 2167 -557 
Q 2519 -259 2631 300 
L 2681 563 
Q 2441 288 2122 144 
Q 1803 0 1434 0 
Q 903 0 598 351 
Q 294 703 294 1319 
Q 294 1803 478 2267 
Q 663 2731 997 3091 
Q 1219 3328 1514 3456 
Q 1809 3584 2131 3584 
Q 2484 3584 2746 3420 
Q 3009 3256 3138 2956 
L 3238 3500 
L 3816 3500 
z
M 2950 2216 
Q 2950 2641 2750 2872 
Q 2550 3103 2181 3103 
Q 1953 3103 1747 3012 
Q 1541 2922 1394 2759 
Q 1156 2491 1023 2127 
Q 891 1763 891 1375 
Q 891 944 1092 712 
Q 1294 481 1672 481 
Q 2219 481 2584 976 
Q 2950 1472 2950 2216 
z
" transform="scale(0.015625)"/>
       <path id="DejaVuSans-28" d="M 1984 4856 
Q 1566 4138 1362 3434 
Q 1159 2731 1159 2009 
Q 1159 1288 1364 580 
Q 1569 -128 1984 -844 
L 1484 -844 
Q 1016 -109 783 600 
Q 550 1309 550 2009 
Q 550 2706 781 3412 
Q 1013 4119 1484 4856 
L 1984 4856 
z
" transform="scale(0.015625)"/>
       <path id="DejaVuSans-29" d="M 513 4856 
L 1013 4856 
Q 1481 4119 1714 3412 
Q 1947 2706 1947 2009 
Q 1947 1309 1714 600 
Q 1481 -109 1013 -844 
L 513 -844 
Q 928 -128 1133 580 
Q 1338 1288 1338 2009 
Q 1338 2731 1133 3434 
Q 928 4138 513 4856 
z
" transform="scale(0.015625)"/>
      </defs>
      <use xlink:href="#DejaVuSans-Oblique-67" transform="translate(0 0.60625)"/>
      <use xlink:href="#DejaVuSans-28" transform="translate(68.126458 38.8875)scale(0.7)"/>
      <use xlink:href="#DejaVuSans-32" transform="translate(95.436029 38.8875)scale(0.7)"/>
      <use xlink:href="#DejaVuSans-29" transform="translate(139.972161 38.8875)scale(0.7)"/>
      <use xlink:href="#DejaVuSans-28" transform="translate(170.016107 0.60625)"/>
      <use xlink:href="#DejaVuSans-30" transform="translate(209.029779 0.60625)"/>
      <use xlink:href="#DejaVuSans-29" transform="translate(272.652826 0.60625)"/>
     </g>
    </g>
   </g>
   <g id="line2d_16">
    <path clip-path="url(#pe8f842bbd1)" style="fill: none; stroke-dasharray: 1.5,2.475; stroke-dashoffset: 0; stroke: #000000; stroke-width: 1.5"/>
   </g>
   <g id="line2d_17">
    <path clip-path="url(#pe8f842bbd1)" style="fill: none; stroke: #000000; stroke-width: 1.5; stroke-linecap: square"/>
   </g>
   <g id="line2d_18">
    <defs>
     <path id="m7c6d8dfb6e" d="M 0 1.5 
C 0.397805 1.5 0.77937 1.341951 1.06066 1.06066 
C 1.341951 0.77937 1.5 0.397805 1.5 0 
C 1.5 -0.397805 1.341951 -0.77937 1.06066 -1.06066 
C 0.77937 -1.341951 0.397805 -1.5 0 -1.5 
C -0.397805 -1.5 -0.77937 -1.341951 -1.06066 -1.06066 
C -1.341951 -0.77937 -1.5 -0.397805 -1.5 0 
C -1.5 0.397805 -1.341951 0.77937 -1.06066 1.06066 
C -0.77937 1.341951 -0.397805 1.5 0 1.5 
z
" style="stroke: #ff0000"/>
    </defs>
    <g clip-path="url(#pe8f842bbd1)">
     <use xlink:href="#m7c6d8dfb6e" x="73.832727" y="2968.704" style="fill: #ff0000; stroke: #ff0000"/>
    </g>
   </g>
   <g id="line2d_19">
    <path d="M 77.079273 296.947694 
L 80.325818 287.697959 
L 83.572364 278.347764 
L 86.818909 269.590749 
L 90.065455 261.529632 
L 93.312 253.685503 
L 96.558545 246.225272 
L 99.805091 239.023219 
L 103.051636 232.646721 
L 106.298182 226.329565 
L 109.544727 220.169344 
L 112.791273 214.719662 
L 116.037818 209.104486 
L 119.284364 204.457642 
L 122.530909 199.550129 
L 125.777455 194.385305 
L 129.024 190.584421 
L 132.270545 186.559434 
L 135.517091 182.694453 
L 138.763636 178.739742 
L 142.010182 175.264238 
L 145.256727 171.562782 
L 148.503273 168.390914 
L 151.749818 165.104673 
L 154.996364 162.068598 
L 158.242909 159.06591 
L 161.489455 156.620407 
L 164.736 153.800632 
L 167.982545 151.527978 
L 171.229091 148.857101 
L 174.475636 146.352858 
L 177.722182 144.069394 
L 180.968727 141.946456 
L 184.215273 140.036893 
L 187.461818 137.831613 
L 190.708364 136.121546 
L 193.954909 134.249837 
L 197.201455 132.430288 
L 200.448 130.515186 
L 203.694545 129.050772 
L 206.941091 127.304782 
L 210.187636 126.006493 
L 213.434182 124.166048 
L 216.680727 122.992545 
L 219.927273 121.263562 
L 223.173818 120.075108 
L 226.420364 118.715815 
L 229.666909 117.382332 
L 232.913455 116.390597 
L 236.16 114.867618 
L 239.406545 113.700163 
L 242.653091 112.627395 
L 245.899636 111.490766 
L 249.146182 110.696525 
L 252.392727 109.783525 
L 255.639273 108.601229 
L 258.885818 107.516178 
L 262.132364 106.769514 
L 265.378909 105.807945 
L 268.625455 104.808031 
L 271.872 103.840775 
L 275.118545 103.224463 
L 278.365091 102.335849 
L 281.611636 101.456904 
L 284.858182 100.669963 
L 288.104727 99.959262 
L 291.351273 99.160553 
L 294.597818 98.477166 
L 297.844364 97.672425 
L 301.090909 96.861915 
L 304.337455 96.206355 
L 307.584 95.77784 
L 310.830545 94.926006 
L 314.077091 94.371264 
L 317.323636 93.504491 
L 320.570182 93.252913 
L 323.816727 92.534639 
L 327.063273 91.997585 
L 330.309818 91.308196 
L 333.556364 90.869783 
L 336.802909 90.394341 
L 340.049455 89.595913 
L 343.296 89.30658 
L 346.542545 88.865218 
L 349.789091 88.351891 
L 353.035636 87.605621 
L 356.282182 87.171383 
L 359.528727 87.058716 
L 362.775273 86.378819 
L 366.021818 85.90761 
L 369.268364 85.392716 
L 372.514909 85.157553 
L 375.761455 84.728989 
L 379.008 84.067498 
L 382.254545 83.823753 
L 385.501091 83.427749 
L 388.747636 83.001329 
L 391.994182 82.645687 
L 395.240727 82.464556 
L 398.487273 81.707034 
" clip-path="url(#pe8f842bbd1)" style="fill: none; stroke: #ff0000; stroke-width: 1.5; stroke-linecap: square"/>
   </g>
   <g id="line2d_20">
    <path d="M 77.079273 297.168625 
L 80.325818 287.36114 
L 83.572364 278.122762 
L 86.818909 269.417427 
L 90.065455 261.211584 
L 93.312 253.474008 
L 96.558545 246.175627 
L 99.805091 239.289367 
L 103.051636 232.789997 
L 106.298182 226.654 
L 109.544727 220.859445 
L 112.791273 215.385874 
L 116.037818 210.214192 
L 119.284364 205.326571 
L 122.530909 200.706359 
L 125.777455 196.337996 
L 129.024 192.206935 
L 132.270545 188.29957 
L 135.517091 184.603173 
L 138.763636 181.105829 
L 142.010182 177.796381 
L 145.256727 174.664377 
L 148.503273 171.700019 
L 151.749818 168.894122 
L 154.996364 166.238071 
L 158.242909 163.723778 
L 161.489455 161.343654 
L 164.736 159.090567 
L 167.982545 156.957817 
L 171.229091 154.939106 
L 174.475636 153.028511 
L 177.722182 151.220457 
L 180.968727 149.509699 
L 184.215273 147.891297 
L 187.461818 146.360595 
L 190.708364 144.913207 
L 193.954909 143.544997 
L 197.201455 142.252063 
L 200.448 141.030722 
L 203.694545 139.877498 
L 206.941091 138.789107 
L 210.187636 137.762446 
L 213.434182 136.794581 
L 216.680727 135.882739 
L 219.927273 135.024294 
L 223.173818 134.216762 
L 226.420364 133.457791 
L 229.666909 132.745152 
L 232.913455 132.076734 
L 236.16 131.450532 
L 239.406545 130.86465 
L 242.653091 130.317284 
L 245.899636 129.806723 
L 249.146182 129.331344 
L 252.392727 128.889604 
L 255.639273 128.480036 
L 258.885818 128.101245 
L 262.132364 127.751906 
L 265.378909 127.430757 
L 268.625455 127.136598 
L 271.872 126.868284 
L 275.118545 126.624727 
L 278.365091 126.404889 
L 281.611636 126.207781 
L 284.858182 126.03246 
L 288.104727 125.878025 
L 291.351273 125.743619 
L 294.597818 125.628422 
L 297.844364 125.531651 
L 301.090909 125.452559 
L 304.337455 125.390431 
L 307.584 125.344585 
L 310.830545 125.314369 
L 314.077091 125.299157 
L 317.323636 125.298353 
L 320.570182 125.311384 
L 323.816727 125.337704 
L 327.063273 125.376788 
L 330.309818 125.428135 
L 333.556364 125.491262 
L 336.802909 125.56571 
L 340.049455 125.651036 
L 343.296 125.746815 
L 346.542545 125.852642 
L 349.789091 125.968125 
L 353.035636 126.092891 
L 356.282182 126.226579 
L 359.528727 126.368845 
L 362.775273 126.519355 
L 366.021818 126.677792 
L 369.268364 126.843849 
L 372.514909 127.017231 
L 375.761455 127.197655 
L 379.008 127.38485 
L 382.254545 127.578551 
L 385.501091 127.778509 
L 388.747636 127.984479 
L 391.994182 128.196229 
L 395.240727 128.413533 
L 398.487273 128.636174 
" clip-path="url(#pe8f842bbd1)" style="fill: none; stroke-dasharray: 1.5,2.475; stroke-dashoffset: 0; stroke: #ff0000; stroke-width: 1.5"/>
   </g>
   <g id="line2d_21">
    <defs>
     <path id="m22719dec23" d="M 0 1.5 
C 0.397805 1.5 0.77937 1.341951 1.06066 1.06066 
C 1.341951 0.77937 1.5 0.397805 1.5 0 
C 1.5 -0.397805 1.341951 -0.77937 1.06066 -1.06066 
C 0.77937 -1.341951 0.397805 -1.5 0 -1.5 
C -0.397805 -1.5 -0.77937 -1.341951 -1.06066 -1.06066 
C -1.341951 -0.77937 -1.5 -0.397805 -1.5 0 
C -1.5 0.397805 -1.341951 0.77937 -1.06066 1.06066 
C -0.77937 1.341951 -0.397805 1.5 0 1.5 
z
" style="stroke: #0000ff"/>
    </defs>
    <g clip-path="url(#pe8f842bbd1)">
     <use xlink:href="#m22719dec23" x="73.832727" y="2968.704" style="fill: #0000ff; stroke: #0000ff"/>
    </g>
   </g>
   <g id="line2d_22">
    <path d="M 77.079273 168.72413 
L 80.325818 163.896674 
L 83.572364 159.104654 
L 86.818909 155.006249 
L 90.065455 150.698162 
L 93.312 146.895586 
L 96.558545 143.314501 
L 99.805091 139.921347 
L 103.051636 136.684669 
L 106.298182 133.494023 
L 109.544727 130.59708 
L 112.791273 127.79216 
L 116.037818 125.115657 
L 119.284364 122.37105 
L 122.530909 120.142762 
L 125.777455 117.823474 
L 129.024 115.847595 
L 132.270545 113.69084 
L 135.517091 111.598398 
L 138.763636 109.812513 
L 142.010182 108.115431 
L 145.256727 106.352347 
L 148.503273 104.678974 
L 151.749818 103.049291 
L 154.996364 101.631147 
L 158.242909 100.235011 
L 161.489455 98.782804 
L 164.736 97.520422 
L 167.982545 96.233608 
L 171.229091 94.941565 
L 174.475636 93.775574 
L 177.722182 92.69606 
L 180.968727 91.702787 
L 184.215273 90.646842 
L 187.461818 89.53376 
L 190.708364 88.6546 
L 193.954909 87.698164 
L 197.201455 86.814756 
L 200.448 85.925839 
L 203.694545 85.0613 
L 206.941091 84.237689 
L 210.187636 83.394218 
L 213.434182 82.749303 
L 216.680727 82.088086 
L 219.927273 81.35422 
L 223.173818 80.675483 
L 226.420364 80.01521 
L 229.666909 79.359156 
L 232.913455 78.719198 
L 236.16 78.161928 
L 239.406545 77.66077 
L 242.653091 76.998421 
L 245.899636 76.43968 
L 249.146182 75.945973 
L 252.392727 75.376091 
L 255.639273 74.936049 
L 258.885818 74.412509 
L 262.132364 73.915421 
L 265.378909 73.556079 
L 268.625455 73.088283 
L 271.872 72.589799 
L 275.118545 72.084922 
L 278.365091 71.742565 
L 281.611636 71.377217 
L 284.858182 70.97325 
L 288.104727 70.568247 
L 291.351273 70.129268 
L 294.597818 69.939903 
L 297.844364 69.43392 
L 301.090909 69.134447 
L 304.337455 68.703157 
L 307.584 68.430411 
L 310.830545 68.204021 
L 314.077091 67.80645 
L 317.323636 67.578049 
L 320.570182 67.290338 
L 323.816727 66.953132 
L 327.063273 66.652492 
L 330.309818 66.40516 
L 333.556364 66.004646 
L 336.802909 65.863101 
L 340.049455 65.542279 
L 343.296 65.314196 
L 346.542545 65.018147 
L 349.789091 64.801071 
L 353.035636 64.518974 
L 356.282182 64.342418 
L 359.528727 64.018791 
L 362.775273 63.836727 
L 366.021818 63.631211 
L 369.268364 63.413174 
L 372.514909 63.265504 
L 375.761455 63.024527 
L 379.008 62.715243 
L 382.254545 62.558693 
L 385.501091 62.417467 
L 388.747636 62.134887 
L 391.994182 61.92316 
L 395.240727 61.837723 
L 398.487273 61.627026 
" clip-path="url(#pe8f842bbd1)" style="fill: none; stroke: #0000ff; stroke-width: 1.5; stroke-linecap: square"/>
   </g>
   <g id="line2d_23">
    <path d="M 77.079273 169.320261 
L 80.325818 164.416469 
L 83.572364 159.797234 
L 86.818909 155.444523 
L 90.065455 151.34156 
L 93.312 147.472733 
L 96.558545 143.823507 
L 99.805091 140.380342 
L 103.051636 137.130624 
L 106.298182 134.062595 
L 109.544727 131.165289 
L 112.791273 128.428476 
L 116.037818 125.842609 
L 119.284364 123.398774 
L 122.530909 121.088645 
L 125.777455 118.904442 
L 129.024 116.83889 
L 132.270545 114.885189 
L 135.517091 113.036972 
L 138.763636 111.288282 
L 142.010182 109.633542 
L 145.256727 108.067524 
L 148.503273 106.58533 
L 151.749818 105.182368 
L 154.996364 103.854329 
L 158.242909 102.59717 
L 161.489455 101.407096 
L 164.736 100.280541 
L 167.982545 99.214155 
L 171.229091 98.20479 
L 174.475636 97.249483 
L 177.722182 96.345447 
L 180.968727 95.490059 
L 184.215273 94.68085 
L 187.461818 93.915491 
L 190.708364 93.19179 
L 193.954909 92.507678 
L 197.201455 91.861205 
L 200.448 91.250528 
L 203.694545 90.67391 
L 206.941091 90.129709 
L 210.187636 89.616374 
L 213.434182 89.132437 
L 216.680727 88.676511 
L 219.927273 88.247284 
L 223.173818 87.843514 
L 226.420364 87.464025 
L 229.666909 87.107702 
L 232.913455 86.773489 
L 236.16 86.460386 
L 239.406545 86.167441 
L 242.653091 85.893755 
L 245.899636 85.638473 
L 249.146182 85.400781 
L 252.392727 85.179909 
L 255.639273 84.975122 
L 258.885818 84.785725 
L 262.132364 84.611054 
L 265.378909 84.450478 
L 268.625455 84.303397 
L 271.872 84.169238 
L 275.118545 84.047459 
L 278.365091 83.937539 
L 281.611636 83.838984 
L 284.858182 83.751322 
L 288.104727 83.674104 
L 291.351273 83.6069 
L 294.597818 83.549301 
L 297.844364 83.500915 
L 301.090909 83.461369 
L 304.337455 83.430305 
L 307.584 83.407381 
L 310.830545 83.392273 
L 314.077091 83.384667 
L 317.323636 83.384265 
L 320.570182 83.390781 
L 323.816727 83.403941 
L 327.063273 83.423483 
L 330.309818 83.449156 
L 333.556364 83.480721 
L 336.802909 83.517945 
L 340.049455 83.560608 
L 343.296 83.608498 
L 346.542545 83.661412 
L 349.789091 83.719155 
L 353.035636 83.781538 
L 356.282182 83.848383 
L 359.528727 83.919516 
L 362.775273 83.994772 
L 366.021818 84.073991 
L 369.268364 84.157021 
L 372.514909 84.243713 
L 375.761455 84.333926 
L 379.008 84.427524 
L 382.254545 84.524376 
L 385.501091 84.624355 
L 388.747636 84.727342 
L 391.994182 84.833217 
L 395.240727 84.94187 
L 398.487273 85.053192 
" clip-path="url(#pe8f842bbd1)" style="fill: none; stroke-dasharray: 1.5,2.475; stroke-dashoffset: 0; stroke: #0000ff; stroke-width: 1.5"/>
   </g>
   <g id="line2d_24">
    <defs>
     <path id="m7cdcb89993" d="M 0 1.5 
C 0.397805 1.5 0.77937 1.341951 1.06066 1.06066 
C 1.341951 0.77937 1.5 0.397805 1.5 0 
C 1.5 -0.397805 1.341951 -0.77937 1.06066 -1.06066 
C 0.77937 -1.341951 0.397805 -1.5 0 -1.5 
C -0.397805 -1.5 -0.77937 -1.341951 -1.06066 -1.06066 
C -1.341951 -0.77937 -1.5 -0.397805 -1.5 0 
C -1.5 0.397805 -1.341951 0.77937 -1.06066 1.06066 
C -0.77937 1.341951 -0.397805 1.5 0 1.5 
z
" style="stroke: #008000"/>
    </defs>
    <g clip-path="url(#pe8f842bbd1)">
     <use xlink:href="#m7cdcb89993" x="73.832727" y="2968.704" style="fill: #008000; stroke: #008000"/>
    </g>
   </g>
   <g id="line2d_25">
    <path d="M 77.079273 126.84524 
L 80.325818 123.60511 
L 83.572364 120.34464 
L 86.818909 117.516771 
L 90.065455 114.638441 
L 93.312 112.209945 
L 96.558545 109.736806 
L 99.805091 107.006336 
L 103.051636 105.049196 
L 106.298182 103.040814 
L 109.544727 101.171208 
L 112.791273 99.189103 
L 116.037818 97.273477 
L 119.284364 95.807771 
L 122.530909 94.1774 
L 125.777455 92.455532 
L 129.024 91.088085 
L 132.270545 89.771837 
L 135.517091 88.393958 
L 138.763636 87.23141 
L 142.010182 85.991151 
L 145.256727 84.911943 
L 148.503273 83.679477 
L 151.749818 82.568852 
L 154.996364 81.723768 
L 158.242909 80.667023 
L 161.489455 79.787099 
L 164.736 78.904162 
L 167.982545 78.080503 
L 171.229091 77.183257 
L 174.475636 76.458265 
L 177.722182 75.619262 
L 180.968727 75.01681 
L 184.215273 74.293197 
L 187.461818 73.604455 
L 190.708364 72.937517 
L 193.954909 72.344376 
L 197.201455 71.75299 
L 200.448 71.158235 
L 203.694545 70.632334 
L 206.941091 70.06442 
L 210.187636 69.540664 
L 213.434182 69.042372 
L 216.680727 68.629389 
L 219.927273 68.167239 
L 223.173818 67.607358 
L 226.420364 67.164871 
L 229.666909 66.709623 
L 232.913455 66.377828 
L 236.16 65.989606 
L 239.406545 65.595971 
L 242.653091 65.216135 
L 245.899636 64.818421 
L 249.146182 64.497548 
L 252.392727 64.185122 
L 255.639273 63.877042 
L 258.885818 63.432553 
L 262.132364 63.224563 
L 265.378909 62.893351 
L 268.625455 62.564239 
L 271.872 62.277413 
L 275.118545 61.945484 
L 278.365091 61.672509 
L 281.611636 61.394676 
L 284.858182 61.139136 
L 288.104727 60.946659 
L 291.351273 60.674789 
L 294.597818 60.429671 
L 297.844364 60.117903 
L 301.090909 59.925384 
L 304.337455 59.713876 
L 307.584 59.461041 
L 310.830545 59.269997 
L 314.077091 59.137123 
L 317.323636 58.830257 
L 320.570182 58.693869 
L 323.816727 58.550435 
L 327.063273 58.373355 
L 330.309818 58.129031 
L 333.556364 57.938285 
L 336.802909 57.678491 
L 340.049455 57.564722 
L 343.296 57.409547 
L 346.542545 57.214492 
L 349.789091 57.067499 
L 353.035636 56.935226 
L 356.282182 56.707873 
L 359.528727 56.589039 
L 362.775273 56.457498 
L 366.021818 56.313957 
L 369.268364 56.224207 
L 372.514909 56.019976 
L 375.761455 55.935875 
L 379.008 55.69745 
L 382.254545 55.647759 
L 385.501091 55.46687 
L 388.747636 55.321237 
L 391.994182 55.224606 
L 395.240727 55.119197 
L 398.487273 54.971632 
" clip-path="url(#pe8f842bbd1)" style="fill: none; stroke: #008000; stroke-width: 1.5; stroke-linecap: square"/>
   </g>
   <g id="line2d_26">
    <path d="M 77.079273 126.704162 
L 80.325818 123.434957 
L 83.572364 120.355457 
L 86.818909 117.453639 
L 90.065455 114.718322 
L 93.312 112.139095 
L 96.558545 109.70627 
L 99.805091 107.410819 
L 103.051636 105.244333 
L 106.298182 103.198974 
L 109.544727 101.26743 
L 112.791273 99.442881 
L 116.037818 97.718964 
L 119.284364 96.089736 
L 122.530909 94.549645 
L 125.777455 93.093504 
L 129.024 91.716465 
L 132.270545 90.413993 
L 135.517091 89.181844 
L 138.763636 88.016048 
L 142.010182 86.912884 
L 145.256727 85.868868 
L 148.503273 84.880736 
L 151.749818 83.945424 
L 154.996364 83.060062 
L 158.242909 82.221953 
L 161.489455 81.428568 
L 164.736 80.677529 
L 167.982545 79.966603 
L 171.229091 79.29369 
L 174.475636 78.656817 
L 177.722182 78.054124 
L 180.968727 77.483864 
L 184.215273 76.944389 
L 187.461818 76.434148 
L 190.708364 75.951679 
L 193.954909 75.495603 
L 197.201455 75.064619 
L 200.448 74.6575 
L 203.694545 74.273087 
L 206.941091 73.910285 
L 210.187636 73.56806 
L 213.434182 73.245435 
L 216.680727 72.941483 
L 219.927273 72.655331 
L 223.173818 72.38615 
L 226.420364 72.133157 
L 229.666909 71.895607 
L 232.913455 71.672798 
L 236.16 71.464061 
L 239.406545 71.268764 
L 242.653091 71.086307 
L 245.899636 70.916118 
L 249.146182 70.757656 
L 252.392727 70.610407 
L 255.639273 70.473883 
L 258.885818 70.347617 
L 262.132364 70.231169 
L 265.378909 70.124118 
L 268.625455 70.026064 
L 271.872 69.936625 
L 275.118545 69.855438 
L 278.365091 69.782158 
L 281.611636 69.716454 
L 284.858182 69.658013 
L 288.104727 69.606534 
L 291.351273 69.561732 
L 294.597818 69.523332 
L 297.844364 69.491075 
L 301.090909 69.46471 
L 304.337455 69.444001 
L 307.584 69.428719 
L 310.830545 69.418646 
L 314.077091 69.413575 
L 317.323636 69.413307 
L 320.570182 69.417651 
L 323.816727 69.426425 
L 327.063273 69.439453 
L 330.309818 69.456569 
L 333.556364 69.477611 
L 336.802909 69.502428 
L 340.049455 69.53087 
L 343.296 69.562797 
L 346.542545 69.598073 
L 349.789091 69.636568 
L 353.035636 69.678157 
L 356.282182 69.72272 
L 359.528727 69.770143 
L 362.775273 69.820314 
L 366.021818 69.873127 
L 369.268364 69.92848 
L 372.514909 69.986274 
L 375.761455 70.046417 
L 379.008 70.108816 
L 382.254545 70.173384 
L 385.501091 70.240037 
L 388.747636 70.308695 
L 391.994182 70.379279 
L 395.240727 70.451715 
L 398.487273 70.525929 
" clip-path="url(#pe8f842bbd1)" style="fill: none; stroke-dasharray: 1.5,2.475; stroke-dashoffset: 0; stroke: #008000; stroke-width: 1.5"/>
   </g>
   <g id="line2d_27">
    <defs>
     <path id="m7c2a9c93eb" d="M 0 1.5 
C 0.397805 1.5 0.77937 1.341951 1.06066 1.06066 
C 1.341951 0.77937 1.5 0.397805 1.5 0 
C 1.5 -0.397805 1.341951 -0.77937 1.06066 -1.06066 
C 0.77937 -1.341951 0.397805 -1.5 0 -1.5 
C -0.397805 -1.5 -0.77937 -1.341951 -1.06066 -1.06066 
C -1.341951 -0.77937 -1.5 -0.397805 -1.5 0 
C -1.5 0.397805 -1.341951 0.77937 -1.06066 1.06066 
C -0.77937 1.341951 -0.397805 1.5 0 1.5 
z
" style="stroke: #ffa500"/>
    </defs>
    <g clip-path="url(#pe8f842bbd1)">
     <use xlink:href="#m7c2a9c93eb" x="73.832727" y="2968.704" style="fill: #ffa500; stroke: #ffa500"/>
    </g>
   </g>
   <g id="line2d_28">
    <path d="M 77.079273 106.241767 
L 80.325818 103.029383 
L 83.572364 100.852298 
L 86.818909 98.618503 
L 90.065455 96.389026 
L 93.312 94.50502 
L 96.558545 92.722889 
L 99.805091 90.796501 
L 103.051636 89.282111 
L 106.298182 87.679111 
L 109.544727 86.118716 
L 112.791273 84.803501 
L 116.037818 83.480482 
L 119.284364 82.114123 
L 122.530909 81.006348 
L 125.777455 79.776609 
L 129.024 78.602095 
L 132.270545 77.677997 
L 135.517091 76.723617 
L 138.763636 75.865572 
L 142.010182 74.88742 
L 145.256727 74.012141 
L 148.503273 73.184828 
L 151.749818 72.336929 
L 154.996364 71.55352 
L 158.242909 70.910604 
L 161.489455 70.216835 
L 164.736 69.532448 
L 167.982545 68.902867 
L 171.229091 68.370848 
L 174.475636 67.749609 
L 177.722182 67.1348 
L 180.968727 66.56986 
L 184.215273 66.08622 
L 187.461818 65.606211 
L 190.708364 65.149189 
L 193.954909 64.679596 
L 197.201455 64.12711 
L 200.448 63.838269 
L 203.694545 63.383076 
L 206.941091 62.948517 
L 210.187636 62.558727 
L 213.434182 62.176094 
L 216.680727 61.779122 
L 219.927273 61.474025 
L 223.173818 61.151008 
L 226.420364 60.77475 
L 229.666909 60.46466 
L 232.913455 60.157338 
L 236.16 59.863935 
L 239.406545 59.565971 
L 242.653091 59.265085 
L 245.899636 58.994282 
L 249.146182 58.756037 
L 252.392727 58.430067 
L 255.639273 58.279042 
L 258.885818 58.002729 
L 262.132364 57.726289 
L 265.378909 57.581906 
L 268.625455 57.325842 
L 271.872 57.10741 
L 275.118545 56.926589 
L 278.365091 56.651735 
L 281.611636 56.447065 
L 284.858182 56.300577 
L 288.104727 56.055717 
L 291.351273 55.882512 
L 294.597818 55.70444 
L 297.844364 55.529241 
L 301.090909 55.389158 
L 304.337455 55.2253 
L 307.584 55.012286 
L 310.830545 54.927663 
L 314.077091 54.743346 
L 317.323636 54.536692 
L 320.570182 54.391803 
L 323.816727 54.245016 
L 327.063273 54.112955 
L 330.309818 53.941625 
L 333.556364 53.848133 
L 336.802909 53.685947 
L 340.049455 53.562817 
L 343.296 53.382044 
L 346.542545 53.343469 
L 349.789091 53.195939 
L 353.035636 53.066357 
L 356.282182 52.925833 
L 359.528727 52.805537 
L 362.775273 52.738718 
L 366.021818 52.6044 
L 369.268364 52.467768 
L 372.514909 52.391295 
L 375.761455 52.267404 
L 379.008 52.12445 
L 382.254545 52.076418 
L 385.501091 51.957399 
L 388.747636 51.867258 
L 391.994182 51.762803 
L 395.240727 51.685305 
L 398.487273 51.560028 
" clip-path="url(#pe8f842bbd1)" style="fill: none; stroke: #ffa500; stroke-width: 1.5; stroke-linecap: square"/>
   </g>
   <g id="line2d_29">
    <path d="M 77.079273 105.396117 
L 80.325818 102.944209 
L 83.572364 100.63458 
L 86.818909 98.458214 
L 90.065455 96.406722 
L 93.312 94.472299 
L 96.558545 92.647677 
L 99.805091 90.926086 
L 103.051636 89.301219 
L 106.298182 87.767196 
L 109.544727 86.318536 
L 112.791273 84.950123 
L 116.037818 83.657183 
L 119.284364 82.435259 
L 122.530909 81.280189 
L 125.777455 80.188082 
L 129.024 79.155301 
L 132.270545 78.178445 
L 135.517091 77.254332 
L 138.763636 76.379983 
L 142.010182 75.552609 
L 145.256727 74.769596 
L 148.503273 74.028495 
L 151.749818 73.32701 
L 154.996364 72.662988 
L 158.242909 72.034405 
L 161.489455 71.439365 
L 164.736 70.876085 
L 167.982545 70.342889 
L 171.229091 69.838204 
L 174.475636 69.360548 
L 177.722182 68.908528 
L 180.968727 68.480832 
L 184.215273 68.076225 
L 187.461818 67.693544 
L 190.708364 67.331692 
L 193.954909 66.989634 
L 197.201455 66.666396 
L 200.448 66.361056 
L 203.694545 66.072746 
L 206.941091 65.800644 
L 210.187636 65.543975 
L 213.434182 65.302005 
L 216.680727 65.074041 
L 219.927273 64.859426 
L 223.173818 64.65754 
L 226.420364 64.467795 
L 229.666909 64.289632 
L 232.913455 64.122525 
L 236.16 63.965973 
L 239.406545 63.8195 
L 242.653091 63.682656 
L 245.899636 63.555014 
L 249.146182 63.436168 
L 252.392727 63.325731 
L 255.639273 63.223337 
L 258.885818 63.128638 
L 262.132364 63.041302 
L 265.378909 62.961014 
L 268.625455 62.887473 
L 271.872 62.820393 
L 275.118545 62.759503 
L 278.365091 62.704543 
L 281.611636 62.655265 
L 284.858182 62.611434 
L 288.104727 62.572825 
L 291.351273 62.539223 
L 294.597818 62.510423 
L 297.844364 62.48623 
L 301.090909 62.466457 
L 304.337455 62.450925 
L 307.584 62.439463 
L 310.830545 62.431909 
L 314.077091 62.428106 
L 317.323636 62.427905 
L 320.570182 62.431162 
L 323.816727 62.437743 
L 327.063273 62.447514 
L 330.309818 62.460351 
L 333.556364 62.476133 
L 336.802909 62.494745 
L 340.049455 62.516077 
L 343.296 62.540022 
L 346.542545 62.566479 
L 349.789091 62.59535 
L 353.035636 62.626542 
L 356.282182 62.659965 
L 359.528727 62.695532 
L 362.775273 62.73316 
L 366.021818 62.77277 
L 369.268364 62.814284 
L 372.514909 62.857631 
L 375.761455 62.902737 
L 379.008 62.949537 
L 382.254545 62.997963 
L 385.501091 63.047953 
L 388.747636 63.099446 
L 391.994182 63.152384 
L 395.240727 63.206711 
L 398.487273 63.262372 
" clip-path="url(#pe8f842bbd1)" style="fill: none; stroke-dasharray: 1.5,2.475; stroke-dashoffset: 0; stroke: #ffa500; stroke-width: 1.5"/>
   </g>
   <g id="line2d_30">
    <defs>
     <path id="m8e2622e7f9" d="M 0 1.5 
C 0.397805 1.5 0.77937 1.341951 1.06066 1.06066 
C 1.341951 0.77937 1.5 0.397805 1.5 0 
C 1.5 -0.397805 1.341951 -0.77937 1.06066 -1.06066 
C 0.77937 -1.341951 0.397805 -1.5 0 -1.5 
C -0.397805 -1.5 -0.77937 -1.341951 -1.06066 -1.06066 
C -1.341951 -0.77937 -1.5 -0.397805 -1.5 0 
C -1.5 0.397805 -1.341951 0.77937 -1.06066 1.06066 
C -0.77937 1.341951 -0.397805 1.5 0 1.5 
z
" style="stroke: #ff00ff"/>
    </defs>
    <g clip-path="url(#pe8f842bbd1)">
     <use xlink:href="#m8e2622e7f9" x="73.832727" y="2968.704" style="fill: #ff00ff; stroke: #ff00ff"/>
    </g>
   </g>
   <g id="line2d_31">
    <path d="M 77.079273 92.660643 
L 80.325818 90.741514 
L 83.572364 88.879565 
L 86.818909 87.093915 
L 90.065455 85.519337 
L 93.312 83.73984 
L 96.558545 82.340315 
L 99.805091 81.09363 
L 103.051636 79.684014 
L 106.298182 78.413168 
L 109.544727 77.166359 
L 112.791273 76.098706 
L 116.037818 75.010615 
L 119.284364 74.062561 
L 122.530909 73.096541 
L 125.777455 72.22066 
L 129.024 71.268096 
L 132.270545 70.478804 
L 135.517091 69.682748 
L 138.763636 68.939823 
L 142.010182 68.227257 
L 145.256727 67.555617 
L 148.503273 66.895882 
L 151.749818 66.225116 
L 154.996364 65.627335 
L 158.242909 65.047134 
L 161.489455 64.446212 
L 164.736 63.977722 
L 167.982545 63.472811 
L 171.229091 63.03225 
L 174.475636 62.478447 
L 177.722182 62.070008 
L 180.968727 61.640197 
L 184.215273 61.22248 
L 187.461818 60.794781 
L 190.708364 60.404839 
L 193.954909 60.026676 
L 197.201455 59.726739 
L 200.448 59.344509 
L 203.694545 58.974024 
L 206.941091 58.684774 
L 210.187636 58.402643 
L 213.434182 58.039196 
L 216.680727 57.793308 
L 219.927273 57.449146 
L 223.173818 57.200725 
L 226.420364 56.949437 
L 229.666909 56.685788 
L 232.913455 56.457233 
L 236.16 56.19943 
L 239.406545 55.987684 
L 242.653091 55.693117 
L 245.899636 55.507187 
L 249.146182 55.286296 
L 252.392727 55.105972 
L 255.639273 54.898872 
L 258.885818 54.763497 
L 262.132364 54.501439 
L 265.378909 54.32619 
L 268.625455 54.13323 
L 271.872 54.01019 
L 275.118545 53.822861 
L 278.365091 53.652632 
L 281.611636 53.497305 
L 284.858182 53.337143 
L 288.104727 53.157158 
L 291.351273 53.041911 
L 294.597818 52.903762 
L 297.844364 52.721275 
L 301.090909 52.572638 
L 304.337455 52.431979 
L 307.584 52.304858 
L 310.830545 52.196178 
L 314.077091 52.087089 
L 317.323636 51.946213 
L 320.570182 51.814807 
L 323.816727 51.689103 
L 327.063273 51.58189 
L 330.309818 51.42312 
L 333.556364 51.346238 
L 336.802909 51.258166 
L 340.049455 51.166869 
L 343.296 51.069218 
L 346.542545 50.965227 
L 349.789091 50.839608 
L 353.035636 50.735939 
L 356.282182 50.688164 
L 359.528727 50.557271 
L 362.775273 50.483116 
L 366.021818 50.394348 
L 369.268364 50.298203 
L 372.514909 50.21536 
L 375.761455 50.130336 
L 379.008 50.023052 
L 382.254545 49.988825 
L 385.501091 49.890346 
L 388.747636 49.81269 
L 391.994182 49.727437 
L 395.240727 49.633493 
L 398.487273 49.566894 
" clip-path="url(#pe8f842bbd1)" style="fill: none; stroke: #ff00ff; stroke-width: 1.5; stroke-linecap: square"/>
   </g>
   <g id="line2d_32">
    <path d="M 77.079273 92.611292 
L 80.325818 90.649763 
L 83.572364 88.802058 
L 86.818909 87.060963 
L 90.065455 85.419768 
L 93.312 83.872228 
L 96.558545 82.412529 
L 99.805091 81.035255 
L 103.051636 79.73536 
L 106.298182 78.508141 
L 109.544727 77.349211 
L 112.791273 76.25448 
L 116.037818 75.220127 
L 119.284364 74.242587 
L 122.530909 73.31853 
L 125.777455 72.444843 
L 129.024 71.618618 
L 132.270545 70.837132 
L 135.517091 70.097841 
L 138.763636 69.398361 
L 142.010182 68.736461 
L 145.256727 68.11005 
L 148.503273 67.517169 
L 151.749818 66.955981 
L 154.996364 66.424762 
L 158.242909 65.921895 
L 161.489455 65.445863 
L 164.736 64.995238 
L 167.982545 64.568681 
L 171.229091 64.164933 
L 174.475636 63.782808 
L 177.722182 63.421191 
L 180.968727 63.079034 
L 184.215273 62.755348 
L 187.461818 62.449203 
L 190.708364 62.159721 
L 193.954909 61.886074 
L 197.201455 61.627483 
L 200.448 61.383211 
L 203.694545 61.152563 
L 206.941091 60.934881 
L 210.187636 60.729546 
L 213.434182 60.53597 
L 216.680727 60.353598 
L 219.927273 60.181907 
L 223.173818 60.020398 
L 226.420364 59.868601 
L 229.666909 59.726071 
L 232.913455 59.592385 
L 236.16 59.467143 
L 239.406545 59.349964 
L 242.653091 59.240489 
L 245.899636 59.138376 
L 249.146182 59.043298 
L 252.392727 58.954949 
L 255.639273 58.873034 
L 258.885818 58.797275 
L 262.132364 58.727406 
L 265.378909 58.663175 
L 268.625455 58.604342 
L 271.872 58.550678 
L 275.118545 58.501966 
L 278.365091 58.457998 
L 281.611636 58.418576 
L 284.858182 58.383511 
L 288.104727 58.352624 
L 291.351273 58.325742 
L 294.597818 58.302702 
L 297.844364 58.283348 
L 301.090909 58.267529 
L 304.337455 58.255103 
L 307.584 58.245934 
L 310.830545 58.23989 
L 314.077091 58.236848 
L 317.323636 58.236687 
L 320.570182 58.239294 
L 323.816727 58.244558 
L 327.063273 58.252375 
L 330.309818 58.262644 
L 333.556364 58.27527 
L 336.802909 58.29016 
L 340.049455 58.307225 
L 343.296 58.326381 
L 346.542545 58.347547 
L 349.789091 58.370644 
L 353.035636 58.395597 
L 356.282182 58.422336 
L 359.528727 58.450789 
L 362.775273 58.480892 
L 366.021818 58.512579 
L 369.268364 58.545791 
L 372.514909 58.580468 
L 375.761455 58.616554 
L 379.008 58.653993 
L 382.254545 58.692734 
L 385.501091 58.732726 
L 388.747636 58.773921 
L 391.994182 58.816272 
L 395.240727 58.859733 
L 398.487273 58.904262 
" clip-path="url(#pe8f842bbd1)" style="fill: none; stroke-dasharray: 1.5,2.475; stroke-dashoffset: 0; stroke: #ff00ff; stroke-width: 1.5"/>
   </g>
   <g id="patch_3">
    <path d="M 57.6 307.584 
L 57.6 41.472 
" style="fill: none; stroke: #000000; stroke-width: 0.8; stroke-linejoin: miter; stroke-linecap: square"/>
   </g>
   <g id="patch_4">
    <path d="M 414.72 307.584 
L 414.72 41.472 
" style="fill: none; stroke: #000000; stroke-width: 0.8; stroke-linejoin: miter; stroke-linecap: square"/>
   </g>
   <g id="patch_5">
    <path d="M 57.6 307.584 
L 414.72 307.584 
" style="fill: none; stroke: #000000; stroke-width: 0.8; stroke-linejoin: miter; stroke-linecap: square"/>
   </g>
   <g id="patch_6">
    <path d="M 57.6 41.472 
L 414.72 41.472 
" style="fill: none; stroke: #000000; stroke-width: 0.8; stroke-linejoin: miter; stroke-linecap: square"/>
   </g>
   <g id="text_18">
    <!-- Coherence vs bin size -->
    <g transform="translate(170.678438 35.472)scale(0.12 -0.12)">
     <defs>
      <path id="DejaVuSans-43" d="M 4122 4306 
L 4122 3641 
Q 3803 3938 3442 4084 
Q 3081 4231 2675 4231 
Q 1875 4231 1450 3742 
Q 1025 3253 1025 2328 
Q 1025 1406 1450 917 
Q 1875 428 2675 428 
Q 3081 428 3442 575 
Q 3803 722 4122 1019 
L 4122 359 
Q 3791 134 3420 21 
Q 3050 -91 2638 -91 
Q 1578 -91 968 557 
Q 359 1206 359 2328 
Q 359 3453 968 4101 
Q 1578 4750 2638 4750 
Q 3056 4750 3426 4639 
Q 3797 4528 4122 4306 
z
" transform="scale(0.015625)"/>
      <path id="DejaVuSans-6f" d="M 1959 3097 
Q 1497 3097 1228 2736 
Q 959 2375 959 1747 
Q 959 1119 1226 758 
Q 1494 397 1959 397 
Q 2419 397 2687 759 
Q 2956 1122 2956 1747 
Q 2956 2369 2687 2733 
Q 2419 3097 1959 3097 
z
M 1959 3584 
Q 2709 3584 3137 3096 
Q 3566 2609 3566 1747 
Q 3566 888 3137 398 
Q 2709 -91 1959 -91 
Q 1206 -91 779 398 
Q 353 888 353 1747 
Q 353 2609 779 3096 
Q 1206 3584 1959 3584 
z
" transform="scale(0.015625)"/>
      <path id="DejaVuSans-68" d="M 3513 2113 
L 3513 0 
L 2938 0 
L 2938 2094 
Q 2938 2591 2744 2837 
Q 2550 3084 2163 3084 
Q 1697 3084 1428 2787 
Q 1159 2491 1159 1978 
L 1159 0 
L 581 0 
L 581 4863 
L 1159 4863 
L 1159 2956 
Q 1366 3272 1645 3428 
Q 1925 3584 2291 3584 
Q 2894 3584 3203 3211 
Q 3513 2838 3513 2113 
z
" transform="scale(0.015625)"/>
      <path id="DejaVuSans-72" d="M 2631 2963 
Q 2534 3019 2420 3045 
Q 2306 3072 2169 3072 
Q 1681 3072 1420 2755 
Q 1159 2438 1159 1844 
L 1159 0 
L 581 0 
L 581 3500 
L 1159 3500 
L 1159 2956 
Q 1341 3275 1631 3429 
Q 1922 3584 2338 3584 
Q 2397 3584 2469 3576 
Q 2541 3569 2628 3553 
L 2631 2963 
z
" transform="scale(0.015625)"/>
      <path id="DejaVuSans-63" d="M 3122 3366 
L 3122 2828 
Q 2878 2963 2633 3030 
Q 2388 3097 2138 3097 
Q 1578 3097 1268 2742 
Q 959 2388 959 1747 
Q 959 1106 1268 751 
Q 1578 397 2138 397 
Q 2388 397 2633 464 
Q 2878 531 3122 666 
L 3122 134 
Q 2881 22 2623 -34 
Q 2366 -91 2075 -91 
Q 1284 -91 818 406 
Q 353 903 353 1747 
Q 353 2603 823 3093 
Q 1294 3584 2113 3584 
Q 2378 3584 2631 3529 
Q 2884 3475 3122 3366 
z
" transform="scale(0.015625)"/>
      <path id="DejaVuSans-76" d="M 191 3500 
L 800 3500 
L 1894 563 
L 2988 3500 
L 3597 3500 
L 2284 0 
L 1503 0 
L 191 3500 
z
" transform="scale(0.015625)"/>
      <path id="DejaVuSans-62" d="M 3116 1747 
Q 3116 2381 2855 2742 
Q 2594 3103 2138 3103 
Q 1681 3103 1420 2742 
Q 1159 2381 1159 1747 
Q 1159 1113 1420 752 
Q 1681 391 2138 391 
Q 2594 391 2855 752 
Q 3116 1113 3116 1747 
z
M 1159 2969 
Q 1341 3281 1617 3432 
Q 1894 3584 2278 3584 
Q 2916 3584 3314 3078 
Q 3713 2572 3713 1747 
Q 3713 922 3314 415 
Q 2916 -91 2278 -91 
Q 1894 -91 1617 61 
Q 1341 213 1159 525 
L 1159 0 
L 581 0 
L 581 4863 
L 1159 4863 
L 1159 2969 
z
" transform="scale(0.015625)"/>
     </defs>
     <use xlink:href="#DejaVuSans-43"/>
     <use xlink:href="#DejaVuSans-6f" x="69.824219"/>
     <use xlink:href="#DejaVuSans-68" x="131.005859"/>
     <use xlink:href="#DejaVuSans-65" x="194.384766"/>
     <use xlink:href="#DejaVuSans-72" x="255.908203"/>
     <use xlink:href="#DejaVuSans-65" x="294.771484"/>
     <use xlink:href="#DejaVuSans-6e" x="356.294922"/>
     <use xlink:href="#DejaVuSans-63" x="419.673828"/>
     <use xlink:href="#DejaVuSans-65" x="474.654297"/>
     <use xlink:href="#DejaVuSans-20" x="536.177734"/>
     <use xlink:href="#DejaVuSans-76" x="567.964844"/>
     <use xlink:href="#DejaVuSans-73" x="627.144531"/>
     <use xlink:href="#DejaVuSans-20" x="679.244141"/>
     <use xlink:href="#DejaVuSans-62" x="711.03125"/>
     <use xlink:href="#DejaVuSans-69" x="774.507812"/>
     <use xlink:href="#DejaVuSans-6e" x="802.291016"/>
     <use xlink:href="#DejaVuSans-20" x="865.669922"/>
     <use xlink:href="#DejaVuSans-73" x="897.457031"/>
     <use xlink:href="#DejaVuSans-69" x="949.556641"/>
     <use xlink:href="#DejaVuSans-7a" x="977.339844"/>
     <use xlink:href="#DejaVuSans-65" x="1029.830078"/>
    </g>
   </g>
   <g id="legend_1">
    <g id="patch_7">
     <path d="M 324.193438 302.584 
L 407.72 302.584 
Q 409.72 302.584 409.72 300.584 
L 409.72 198.837125 
Q 409.72 196.837125 407.72 196.837125 
L 324.193438 196.837125 
Q 322.193438 196.837125 322.193438 198.837125 
L 322.193438 300.584 
Q 322.193438 302.584 324.193438 302.584 
z
" style="fill: #ffffff; opacity: 0.8; stroke: #cccccc; stroke-linejoin: miter"/>
    </g>
    <g id="line2d_33">
     <path d="M 326.193438 204.935563 
L 336.193438 204.935563 
L 346.193438 204.935563 
" style="fill: none; stroke-dasharray: 1.5,2.475; stroke-dashoffset: 0; stroke: #000000; stroke-width: 1.5"/>
    </g>
    <g id="text_19">
     <!-- Analytical -->
     <g transform="translate(354.193438 208.435563)scale(0.1 -0.1)">
      <defs>
       <path id="DejaVuSans-41" d="M 2188 4044 
L 1331 1722 
L 3047 1722 
L 2188 4044 
z
M 1831 4666 
L 2547 4666 
L 4325 0 
L 3669 0 
L 3244 1197 
L 1141 1197 
L 716 0 
L 50 0 
L 1831 4666 
z
" transform="scale(0.015625)"/>
       <path id="DejaVuSans-61" d="M 2194 1759 
Q 1497 1759 1228 1600 
Q 959 1441 959 1056 
Q 959 750 1161 570 
Q 1363 391 1709 391 
Q 2188 391 2477 730 
Q 2766 1069 2766 1631 
L 2766 1759 
L 2194 1759 
z
M 3341 1997 
L 3341 0 
L 2766 0 
L 2766 531 
Q 2569 213 2275 61 
Q 1981 -91 1556 -91 
Q 1019 -91 701 211 
Q 384 513 384 1019 
Q 384 1609 779 1909 
Q 1175 2209 1959 2209 
L 2766 2209 
L 2766 2266 
Q 2766 2663 2505 2880 
Q 2244 3097 1772 3097 
Q 1472 3097 1187 3025 
Q 903 2953 641 2809 
L 641 3341 
Q 956 3463 1253 3523 
Q 1550 3584 1831 3584 
Q 2591 3584 2966 3190 
Q 3341 2797 3341 1997 
z
" transform="scale(0.015625)"/>
       <path id="DejaVuSans-6c" d="M 603 4863 
L 1178 4863 
L 1178 0 
L 603 0 
L 603 4863 
z
" transform="scale(0.015625)"/>
       <path id="DejaVuSans-79" d="M 2059 -325 
Q 1816 -950 1584 -1140 
Q 1353 -1331 966 -1331 
L 506 -1331 
L 506 -850 
L 844 -850 
Q 1081 -850 1212 -737 
Q 1344 -625 1503 -206 
L 1606 56 
L 191 3500 
L 800 3500 
L 1894 763 
L 2988 3500 
L 3597 3500 
L 2059 -325 
z
" transform="scale(0.015625)"/>
       <path id="DejaVuSans-74" d="M 1172 4494 
L 1172 3500 
L 2356 3500 
L 2356 3053 
L 1172 3053 
L 1172 1153 
Q 1172 725 1289 603 
Q 1406 481 1766 481 
L 2356 481 
L 2356 0 
L 1766 0 
Q 1100 0 847 248 
Q 594 497 594 1153 
L 594 3053 
L 172 3053 
L 172 3500 
L 594 3500 
L 594 4494 
L 1172 4494 
z
" transform="scale(0.015625)"/>
      </defs>
      <use xlink:href="#DejaVuSans-41"/>
      <use xlink:href="#DejaVuSans-6e" x="68.408203"/>
      <use xlink:href="#DejaVuSans-61" x="131.787109"/>
      <use xlink:href="#DejaVuSans-6c" x="193.066406"/>
      <use xlink:href="#DejaVuSans-79" x="220.849609"/>
      <use xlink:href="#DejaVuSans-74" x="280.029297"/>
      <use xlink:href="#DejaVuSans-69" x="319.238281"/>
      <use xlink:href="#DejaVuSans-63" x="347.021484"/>
      <use xlink:href="#DejaVuSans-61" x="402.001953"/>
      <use xlink:href="#DejaVuSans-6c" x="463.28125"/>
     </g>
    </g>
    <g id="line2d_34">
     <path d="M 326.193438 219.613688 
L 336.193438 219.613688 
L 346.193438 219.613688 
" style="fill: none; stroke: #000000; stroke-width: 1.5; stroke-linecap: square"/>
    </g>
    <g id="text_20">
     <!-- Measured -->
     <g transform="translate(354.193438 223.113688)scale(0.1 -0.1)">
      <defs>
       <path id="DejaVuSans-4d" d="M 628 4666 
L 1569 4666 
L 2759 1491 
L 3956 4666 
L 4897 4666 
L 4897 0 
L 4281 0 
L 4281 4097 
L 3078 897 
L 2444 897 
L 1241 4097 
L 1241 0 
L 628 0 
L 628 4666 
z
" transform="scale(0.015625)"/>
       <path id="DejaVuSans-75" d="M 544 1381 
L 544 3500 
L 1119 3500 
L 1119 1403 
Q 1119 906 1312 657 
Q 1506 409 1894 409 
Q 2359 409 2629 706 
Q 2900 1003 2900 1516 
L 2900 3500 
L 3475 3500 
L 3475 0 
L 2900 0 
L 2900 538 
Q 2691 219 2414 64 
Q 2138 -91 1772 -91 
Q 1169 -91 856 284 
Q 544 659 544 1381 
z
M 1991 3584 
L 1991 3584 
z
" transform="scale(0.015625)"/>
       <path id="DejaVuSans-64" d="M 2906 2969 
L 2906 4863 
L 3481 4863 
L 3481 0 
L 2906 0 
L 2906 525 
Q 2725 213 2448 61 
Q 2172 -91 1784 -91 
Q 1150 -91 751 415 
Q 353 922 353 1747 
Q 353 2572 751 3078 
Q 1150 3584 1784 3584 
Q 2172 3584 2448 3432 
Q 2725 3281 2906 2969 
z
M 947 1747 
Q 947 1113 1208 752 
Q 1469 391 1925 391 
Q 2381 391 2643 752 
Q 2906 1113 2906 1747 
Q 2906 2381 2643 2742 
Q 2381 3103 1925 3103 
Q 1469 3103 1208 2742 
Q 947 2381 947 1747 
z
" transform="scale(0.015625)"/>
      </defs>
      <use xlink:href="#DejaVuSans-4d"/>
      <use xlink:href="#DejaVuSans-65" x="86.279297"/>
      <use xlink:href="#DejaVuSans-61" x="147.802734"/>
      <use xlink:href="#DejaVuSans-73" x="209.082031"/>
      <use xlink:href="#DejaVuSans-75" x="261.181641"/>
      <use xlink:href="#DejaVuSans-72" x="324.560547"/>
      <use xlink:href="#DejaVuSans-65" x="363.423828"/>
      <use xlink:href="#DejaVuSans-64" x="424.947266"/>
     </g>
    </g>
    <g id="patch_8">
     <path d="M 326.193438 237.791812 
L 346.193438 237.791812 
L 346.193438 230.791812 
L 326.193438 230.791812 
z
" style="fill: #ff0000; stroke: #ff0000; stroke-linejoin: miter"/>
    </g>
    <g id="text_21">
     <!-- 1 emitters -->
     <g transform="translate(354.193438 237.791812)scale(0.1 -0.1)">
      <defs>
       <path id="DejaVuSans-6d" d="M 3328 2828 
Q 3544 3216 3844 3400 
Q 4144 3584 4550 3584 
Q 5097 3584 5394 3201 
Q 5691 2819 5691 2113 
L 5691 0 
L 5113 0 
L 5113 2094 
Q 5113 2597 4934 2840 
Q 4756 3084 4391 3084 
Q 3944 3084 3684 2787 
Q 3425 2491 3425 1978 
L 3425 0 
L 2847 0 
L 2847 2094 
Q 2847 2600 2669 2842 
Q 2491 3084 2119 3084 
Q 1678 3084 1418 2786 
Q 1159 2488 1159 1978 
L 1159 0 
L 581 0 
L 581 3500 
L 1159 3500 
L 1159 2956 
Q 1356 3278 1631 3431 
Q 1906 3584 2284 3584 
Q 2666 3584 2933 3390 
Q 3200 3197 3328 2828 
z
" transform="scale(0.015625)"/>
      </defs>
      <use xlink:href="#DejaVuSans-31"/>
      <use xlink:href="#DejaVuSans-20" x="63.623047"/>
      <use xlink:href="#DejaVuSans-65" x="95.410156"/>
      <use xlink:href="#DejaVuSans-6d" x="156.933594"/>
      <use xlink:href="#DejaVuSans-69" x="254.345703"/>
      <use xlink:href="#DejaVuSans-74" x="282.128906"/>
      <use xlink:href="#DejaVuSans-74" x="321.337891"/>
      <use xlink:href="#DejaVuSans-65" x="360.546875"/>
      <use xlink:href="#DejaVuSans-72" x="422.070312"/>
      <use xlink:href="#DejaVuSans-73" x="463.183594"/>
     </g>
    </g>
    <g id="patch_9">
     <path d="M 326.193438 252.469938 
L 346.193438 252.469938 
L 346.193438 245.469938 
L 326.193438 245.469938 
z
" style="fill: #0000ff; stroke: #0000ff; stroke-linejoin: miter"/>
    </g>
    <g id="text_22">
     <!-- 2 emitters -->
     <g transform="translate(354.193438 252.469938)scale(0.1 -0.1)">
      <use xlink:href="#DejaVuSans-32"/>
      <use xlink:href="#DejaVuSans-20" x="63.623047"/>
      <use xlink:href="#DejaVuSans-65" x="95.410156"/>
      <use xlink:href="#DejaVuSans-6d" x="156.933594"/>
      <use xlink:href="#DejaVuSans-69" x="254.345703"/>
      <use xlink:href="#DejaVuSans-74" x="282.128906"/>
      <use xlink:href="#DejaVuSans-74" x="321.337891"/>
      <use xlink:href="#DejaVuSans-65" x="360.546875"/>
      <use xlink:href="#DejaVuSans-72" x="422.070312"/>
      <use xlink:href="#DejaVuSans-73" x="463.183594"/>
     </g>
    </g>
    <g id="patch_10">
     <path d="M 326.193438 267.148063 
L 346.193438 267.148063 
L 346.193438 260.148063 
L 326.193438 260.148063 
z
" style="fill: #008000; stroke: #008000; stroke-linejoin: miter"/>
    </g>
    <g id="text_23">
     <!-- 3 emitters -->
     <g transform="translate(354.193438 267.148063)scale(0.1 -0.1)">
      <defs>
       <path id="DejaVuSans-33" d="M 2597 2516 
Q 3050 2419 3304 2112 
Q 3559 1806 3559 1356 
Q 3559 666 3084 287 
Q 2609 -91 1734 -91 
Q 1441 -91 1130 -33 
Q 819 25 488 141 
L 488 750 
Q 750 597 1062 519 
Q 1375 441 1716 441 
Q 2309 441 2620 675 
Q 2931 909 2931 1356 
Q 2931 1769 2642 2001 
Q 2353 2234 1838 2234 
L 1294 2234 
L 1294 2753 
L 1863 2753 
Q 2328 2753 2575 2939 
Q 2822 3125 2822 3475 
Q 2822 3834 2567 4026 
Q 2313 4219 1838 4219 
Q 1578 4219 1281 4162 
Q 984 4106 628 3988 
L 628 4550 
Q 988 4650 1302 4700 
Q 1616 4750 1894 4750 
Q 2613 4750 3031 4423 
Q 3450 4097 3450 3541 
Q 3450 3153 3228 2886 
Q 3006 2619 2597 2516 
z
" transform="scale(0.015625)"/>
      </defs>
      <use xlink:href="#DejaVuSans-33"/>
      <use xlink:href="#DejaVuSans-20" x="63.623047"/>
      <use xlink:href="#DejaVuSans-65" x="95.410156"/>
      <use xlink:href="#DejaVuSans-6d" x="156.933594"/>
      <use xlink:href="#DejaVuSans-69" x="254.345703"/>
      <use xlink:href="#DejaVuSans-74" x="282.128906"/>
      <use xlink:href="#DejaVuSans-74" x="321.337891"/>
      <use xlink:href="#DejaVuSans-65" x="360.546875"/>
      <use xlink:href="#DejaVuSans-72" x="422.070312"/>
      <use xlink:href="#DejaVuSans-73" x="463.183594"/>
     </g>
    </g>
    <g id="patch_11">
     <path d="M 326.193438 281.826188 
L 346.193438 281.826188 
L 346.193438 274.826188 
L 326.193438 274.826188 
z
" style="fill: #ffa500; stroke: #ffa500; stroke-linejoin: miter"/>
    </g>
    <g id="text_24">
     <!-- 4 emitters -->
     <g transform="translate(354.193438 281.826188)scale(0.1 -0.1)">
      <use xlink:href="#DejaVuSans-34"/>
      <use xlink:href="#DejaVuSans-20" x="63.623047"/>
      <use xlink:href="#DejaVuSans-65" x="95.410156"/>
      <use xlink:href="#DejaVuSans-6d" x="156.933594"/>
      <use xlink:href="#DejaVuSans-69" x="254.345703"/>
      <use xlink:href="#DejaVuSans-74" x="282.128906"/>
      <use xlink:href="#DejaVuSans-74" x="321.337891"/>
      <use xlink:href="#DejaVuSans-65" x="360.546875"/>
      <use xlink:href="#DejaVuSans-72" x="422.070312"/>
      <use xlink:href="#DejaVuSans-73" x="463.183594"/>
     </g>
    </g>
    <g id="patch_12">
     <path d="M 326.193438 296.504312 
L 346.193438 296.504312 
L 346.193438 289.504312 
L 326.193438 289.504312 
z
" style="fill: #ff00ff; stroke: #ff00ff; stroke-linejoin: miter"/>
    </g>
    <g id="text_25">
     <!-- 5 emitters -->
     <g transform="translate(354.193438 296.504312)scale(0.1 -0.1)">
      <use xlink:href="#DejaVuSans-35"/>
      <use xlink:href="#DejaVuSans-20" x="63.623047"/>
      <use xlink:href="#DejaVuSans-65" x="95.410156"/>
      <use xlink:href="#DejaVuSans-6d" x="156.933594"/>
      <use xlink:href="#DejaVuSans-69" x="254.345703"/>
      <use xlink:href="#DejaVuSans-74" x="282.128906"/>
      <use xlink:href="#DejaVuSans-74" x="321.337891"/>
      <use xlink:href="#DejaVuSans-65" x="360.546875"/>
      <use xlink:href="#DejaVuSans-72" x="422.070312"/>
      <use xlink:href="#DejaVuSans-73" x="463.183594"/>
     </g>
    </g>
   </g>
  </g>
 </g>
 <defs>
  <clipPath id="pe8f842bbd1">
   <rect x="57.6" y="41.472" width="357.12" height="266.112"/>
  </clipPath>
 </defs>
</svg>
